<svg version="1.1" xmlns="http://www.w3.org/2000/svg" viewBox="0 0 248 335" width="248" height="335">
  <!-- svg-source:excalidraw -->
  
  <defs>
    <style>
      @font-face {
        font-family: "Virgil";
        src: url("https://excalidraw.com/Virgil.woff2");
      }
      @font-face {
        font-family: "Cascadia";
        src: url("https://excalidraw.com/Cascadia.woff2");
      }
    </style>
  </defs>
  <g transform="translate(10 76) rotate(0 114 124.5)" stroke="none"><path fill="#000000" d="M 0,-2.67 Q 0,-2.67 1.15,-2.68 2.3,-2.70 3.98,-2.76 5.66,-2.83 7.19,-2.88 8.72,-2.93 9.94,-2.98 11.16,-3.03 12.99,-3.09 14.82,-3.14 16.03,-3.17 17.24,-3.20 18.55,-2.83 19.86,-2.46 21.30,-2.37 22.74,-2.27 24.37,-2.25 25.99,-2.23 27.10,-2.25 28.21,-2.27 30.58,-1.90 32.96,-1.54 34.10,-1.40 35.24,-1.26 36.89,-0.83 38.53,-0.39 39.81,-0.23 41.09,-0.06 42.50,0.03 43.91,0.13 45.37,0.19 46.84,0.25 48.56,0.61 50.29,0.97 52.18,1.23 54.07,1.49 56.34,1.67 58.61,1.86 60.74,1.98 62.86,2.10 65.03,2.47 67.20,2.84 69.15,2.99 71.11,3.14 72.80,3.15 74.50,3.17 76.37,3.19 78.23,3.22 80.46,3.28 82.69,3.35 84.79,3.39 86.89,3.43 88.93,3.45 90.98,3.46 92.71,3.41 94.44,3.36 96.04,3.30 97.64,3.24 99.60,3.53 101.56,3.82 103.69,4.00 105.81,4.17 108.53,4.56 111.25,4.95 113.76,5.12 116.28,5.30 118.78,5.38 121.29,5.46 124.08,5.51 126.87,5.55 129.49,5.57 132.12,5.60 134.67,5.61 137.22,5.63 139.54,5.93 141.86,6.23 144.20,6.35 146.53,6.48 149.25,6.53 151.97,6.59 154.85,6.61 157.73,6.64 160.11,6.65 162.48,6.66 164.64,6.66 166.80,6.67 168.58,6.60 170.36,6.53 172.27,6.50 174.18,6.47 176.42,6.50 178.67,6.53 181.64,6.55 184.61,6.57 187.31,6.59 190.01,6.60 192.30,6.61 194.60,6.62 196.15,6.53 197.70,6.43 198.94,6.33 200.17,6.22 201.62,6.05 203.06,5.89 204.14,5.76 205.22,5.64 207.31,5.51 209.40,5.38 211.04,5.31 212.68,5.23 213.91,5.17 215.15,5.10 216.48,5.05 217.81,5.00 218.99,4.95 220.18,4.91 221.71,4.85 223.25,4.79 224.75,4.75 226.26,4.70 227.30,4.96 228.34,5.22 229.39,6.00 230.45,6.78 230.82,8.16 231.19,9.53 231.22,10.61 231.25,11.69 230.87,12.99 230.50,14.29 230.04,16.17 229.59,18.04 229.01,18.99 228.42,19.94 227.54,21.53 226.66,23.11 225.71,25.33 224.77,27.54 224.12,29.55 223.47,31.56 222.97,32.64 222.47,33.71 221.92,35.99 221.36,38.26 220.88,39.59 220.40,40.92 220.17,43.04 219.95,45.17 219.88,46.55 219.82,47.94 219.71,49.68 219.61,51.41 219.56,53.02 219.52,54.62 219.44,56.46 219.35,58.30 219.06,59.89 218.76,61.49 218.66,63.79 218.56,66.09 218.54,67.50 218.51,68.91 218.50,70.37 218.48,71.83 218.47,73.32 218.46,74.80 218.48,76.01 218.51,77.21 218.51,78.59 218.52,79.96 218.54,81.12 218.57,82.28 218.57,83.64 218.57,84.99 218.56,86.43 218.55,87.87 218.57,89.05 218.60,90.24 218.59,91.61 218.59,92.97 218.58,94.42 218.57,95.86 218.59,97.05 218.61,98.24 218.60,99.61 218.60,100.97 218.43,104.14 218.27,107.31 218.14,109.81 218.02,112.30 217.92,115.38 217.83,118.45 217.76,120.62 217.69,122.79 217.64,125.15 217.58,127.51 217.61,129.37 217.63,131.24 217.58,134.04 217.54,136.85 217.63,138.33 217.71,139.81 217.88,141.98 218.05,144.14 218.12,145.25 218.19,146.36 218.28,148.71 218.37,151.06 218.38,152.48 218.39,153.90 218.43,155.08 218.47,156.25 217.74,167.16 217.01,178.07 216.66,182.96 216.30,187.85 215.81,190.06 215.31,192.27 214.87,193.43 214.42,194.58 213.96,195.62 213.50,196.66 212.13,197.75 210.77,198.84 208.94,199.52 207.11,200.19 205.70,200.93 204.28,201.66 202.80,202.54 201.32,203.41 199.53,204.55 197.73,205.68 196.07,206.77 194.42,207.85 192.85,208.89 191.29,209.94 189.67,210.76 188.05,211.58 186.61,212.45 185.18,213.31 183.97,214.04 182.76,214.77 181.12,215.98 179.49,217.19 178.52,217.77 177.54,218.35 176.56,218.90 175.58,219.45 174.19,220.01 172.80,220.57 171.35,221.07 169.91,221.58 168.60,222.26 167.29,222.94 165.70,223.59 164.11,224.24 162.82,225.17 161.52,226.10 159.49,226.93 157.46,227.76 155.99,228.78 154.52,229.80 152.48,230.65 150.44,231.50 148.87,232.37 147.31,233.23 146.16,234.16 145.02,235.09 143.48,235.91 141.95,236.73 140.80,237.37 139.66,238.01 138.38,238.80 137.10,239.59 135.94,240.29 134.77,240.99 133.31,241.62 131.86,242.25 130.76,242.80 129.66,243.34 128.64,243.88 127.62,244.42 125.86,245.26 124.10,246.11 122.60,246.90 121.10,247.69 119.96,248.60 118.81,249.50 117.09,249.77 115.36,250.04 113.38,250.57 111.40,251.11 110.14,251.18 108.87,251.24 107.73,251.63 106.58,252.02 105.08,252.16 103.58,252.29 102.30,251.83 101.02,251.37 99.99,250.47 98.95,249.56 96.83,248.14 94.70,246.72 93.67,246.19 92.63,245.65 91.28,244.62 89.93,243.60 88.67,242.63 87.41,241.66 86.19,241.04 84.97,240.42 83.59,239.83 82.21,239.25 80.77,238.28 79.33,237.32 77.99,236.36 76.65,235.41 75.55,234.78 74.45,234.15 73.41,233.62 72.36,233.08 71.34,232.58 70.32,232.09 69.15,231.62 67.97,231.16 66.60,230.64 65.23,230.13 63.43,229.21 61.62,228.29 59.76,227.26 57.89,226.22 56.08,225.51 54.26,224.80 52.24,223.83 50.23,222.87 48.33,222.20 46.43,221.53 44.71,220.99 42.99,220.45 41.38,219.96 39.78,219.47 38.23,219.00 36.68,218.53 35.36,218.06 34.05,217.60 32.55,216.78 31.05,215.95 29.85,215.75 28.66,215.55 27.33,215.14 26.00,214.72 24.64,214.28 23.28,213.83 21.62,213.32 19.96,212.81 18.34,212.30 16.71,211.79 15.55,211.27 14.39,210.76 12.93,210.69 11.48,210.61 10.45,210.19 9.42,209.77 7.52,209.40 5.62,209.03 4.06,208.50 2.51,207.96 1.50,207.37 0.50,206.78 -0.51,205.84 -1.54,204.91 -1.79,203.65 -2.05,202.40 -2.13,201.14 -2.22,199.88 -2.25,198.53 -2.27,197.18 -2.28,195.71 -2.30,194.24 -2.25,192.05 -2.20,189.86 -2.18,188.75 -2.16,187.64 -2.07,186.01 -1.98,184.39 -1.77,181.98 -1.57,179.56 -1.41,177.39 -1.24,175.21 -1.12,172.85 -1.00,170.49 -0.91,168.33 -0.81,166.18 -0.76,164.11 -0.71,162.05 -0.68,160.02 -0.65,157.99 -0.63,155.98 -0.61,153.97 -0.57,151.39 -0.53,148.81 -0.50,145.99 -0.47,143.17 -0.45,139.95 -0.43,136.74 -0.69,133.42 -0.96,130.11 -1.08,126.62 -1.19,123.14 -1.23,119.65 -1.28,116.16 -1.29,112.95 -1.31,109.74 -1.31,106.65 -1.32,103.56 -1.32,100.24 -1.32,96.91 -1.32,93.77 -1.32,90.63 -1.32,87.58 -1.32,84.52 -1.32,81.78 -1.31,79.04 -1.31,76.44 -1.31,73.84 -1.31,71.58 -1.31,69.33 -1.31,66.93 -1.31,64.54 -1.31,62.08 -1.31,59.63 -1.31,57.43 -1.31,55.24 -1.38,53.44 -1.45,51.65 -1.52,50.02 -1.60,48.40 -1.63,46.56 -1.65,44.72 -1.70,43.07 -1.76,41.43 -1.76,39.58 -1.76,37.73 -1.80,36.08 -1.84,34.43 -1.89,32.87 -1.93,31.31 -1.97,29.78 -2.01,28.25 -2.04,26.74 -2.08,25.23 -2.14,24.01 -2.20,22.79 -2.23,21.41 -2.26,20.03 -2.31,18.87 -2.36,17.71 -2.40,16.64 -2.45,15.57 -2.55,14.23 -2.64,12.89 -2.68,10.94 -2.71,9.00 -2.64,8.56 -2.57,8.13 -2.36,7.74 -2.16,7.35 -1.84,7.05 -1.52,6.75 -1.12,6.56 -0.72,6.38 -0.28,6.33 0.14,6.28 0.57,6.38 1.00,6.47 1.38,6.70 1.75,6.93 2.04,7.26 2.32,7.60 2.48,8.00 2.65,8.41 2.67,8.85 2.69,9.29 2.58,9.71 2.46,10.14 2.21,10.50 1.97,10.86 1.62,11.13 1.27,11.39 0.85,11.53 0.43,11.67 -0.00,11.67 -0.43,11.67 -0.85,11.53 -1.27,11.39 -1.62,11.13 -1.97,10.86 -2.21,10.50 -2.46,10.13 -2.58,9.71 -2.69,9.29 -2.67,8.85 -2.65,8.41 -2.48,8.00 -2.32,7.59 -2.04,7.26 -1.75,6.93 -1.38,6.70 -1.00,6.47 -0.57,6.38 -0.14,6.28 0.29,6.33 0.72,6.38 1.12,6.56 1.52,6.75 1.84,7.05 2.16,7.35 2.36,7.74 2.57,8.13 2.64,8.56 2.71,9.00 2.71,9.00 2.71,8.99 2.68,10.94 2.64,12.89 2.55,14.23 2.45,15.57 2.40,16.64 2.36,17.71 2.31,18.87 2.26,20.03 2.23,21.41 2.20,22.79 2.14,24.01 2.08,25.23 2.04,26.74 2.01,28.25 1.97,29.78 1.93,31.31 1.89,32.87 1.84,34.43 1.80,36.08 1.76,37.73 1.76,39.58 1.76,41.43 1.70,43.07 1.65,44.72 1.63,46.56 1.60,48.40 1.52,50.02 1.45,51.65 1.38,53.44 1.31,55.24 1.31,57.43 1.31,59.63 1.31,62.08 1.31,64.54 1.31,66.93 1.31,69.33 1.31,71.58 1.31,73.84 1.31,76.44 1.32,79.04 1.32,81.78 1.32,84.52 1.32,87.57 1.32,90.63 1.33,93.77 1.33,96.91 1.34,100.23 1.35,103.55 1.36,106.64 1.37,109.72 1.40,112.92 1.43,116.12 1.49,119.58 1.55,123.04 1.68,126.46 1.81,129.87 2.12,133.31 2.43,136.74 2.45,139.95 2.47,143.17 2.50,145.99 2.53,148.81 2.57,151.39 2.61,153.97 2.63,155.98 2.65,157.99 2.68,160.02 2.71,162.05 2.76,164.11 2.81,166.18 2.91,168.33 3.00,170.49 3.12,172.85 3.24,175.21 3.41,177.39 3.57,179.56 3.77,181.98 3.98,184.39 4.07,186.01 4.16,187.64 4.18,188.75 4.20,189.86 4.25,192.05 4.30,194.24 4.29,195.70 4.28,197.16 4.27,198.43 4.26,199.71 3.68,200.68 3.09,201.65 4.41,202.03 5.72,202.42 7.08,203.35 8.44,204.28 10.27,204.89 12.09,205.49 13.41,205.75 14.72,206.01 16.36,206.84 18.00,207.67 19.57,208.14 21.15,208.62 22.95,209.08 24.75,209.55 26.13,210.04 27.51,210.54 28.56,210.98 29.62,211.43 31.33,211.90 33.04,212.37 34.31,213.13 35.58,213.89 36.72,214.43 37.86,214.98 39.38,215.53 40.91,216.08 42.48,216.65 44.06,217.22 45.75,217.81 47.45,218.40 49.54,219.03 51.62,219.67 53.56,220.43 55.51,221.19 57.60,221.83 59.70,222.46 61.62,223.25 63.54,224.03 65.24,224.69 66.94,225.35 68.40,225.85 69.87,226.35 71.29,226.92 72.71,227.48 73.74,228.05 74.78,228.61 75.87,229.23 76.97,229.85 78.19,230.58 79.40,231.31 80.81,232.21 82.21,233.10 83.17,233.77 84.13,234.45 85.70,235.03 87.26,235.60 88.91,236.35 90.56,237.09 91.99,237.99 93.42,238.89 94.35,239.56 95.27,240.22 97.73,241.58 100.20,242.94 101.78,243.71 103.36,244.48 104.53,244.84 105.69,245.20 107.75,244.97 109.81,244.73 111.17,244.72 112.53,244.71 113.71,244.29 114.89,243.86 115.96,243.53 117.04,243.21 118.89,242.84 120.75,242.48 121.63,241.86 122.52,241.25 124.02,240.66 125.52,240.06 126.62,239.58 127.73,239.09 128.93,238.59 130.13,238.08 131.38,237.60 132.63,237.11 133.77,236.54 134.91,235.96 136.35,235.11 137.79,234.26 138.99,233.73 140.19,233.20 141.47,232.63 142.74,232.06 144.14,231.06 145.55,230.07 147.27,229.10 148.99,228.14 150.62,227.41 152.26,226.67 154.03,225.32 155.80,223.96 157.34,223.26 158.88,222.55 160.57,221.23 162.26,219.91 163.64,219.32 165.02,218.72 166.63,217.83 168.24,216.93 169.61,216.43 170.98,215.94 172.15,215.49 173.32,215.05 174.31,214.59 175.30,214.13 177.12,213.26 178.94,212.39 179.88,211.82 180.83,211.25 182.05,210.66 183.28,210.06 184.86,209.15 186.44,208.24 187.87,207.60 189.29,206.96 190.84,205.91 192.38,204.86 193.98,203.73 195.57,202.60 197.36,201.22 199.16,199.85 200.71,198.87 202.27,197.90 203.95,196.99 205.62,196.08 207.76,195.30 209.91,194.52 210.87,193.04 211.83,191.57 212.12,189.61 212.41,187.65 212.55,182.75 212.68,177.84 213.10,167.05 213.52,156.25 213.56,155.08 213.60,153.90 213.61,152.48 213.62,151.06 213.71,148.71 213.80,146.36 213.87,145.25 213.94,144.14 214.11,141.98 214.28,139.81 214.36,138.33 214.45,136.85 214.41,134.04 214.36,131.24 214.38,129.37 214.41,127.51 214.35,125.15 214.30,122.79 214.23,120.62 214.16,118.45 214.07,115.38 213.97,112.30 213.85,109.81 213.72,107.31 213.56,104.14 213.39,100.97 213.39,99.61 213.38,98.24 213.40,97.05 213.42,95.86 213.41,94.42 213.40,92.97 213.40,91.61 213.39,90.24 213.42,89.05 213.44,87.87 213.43,86.43 213.42,84.99 213.42,83.64 213.42,82.28 213.45,81.12 213.48,79.96 213.48,78.58 213.49,77.21 213.52,76.00 213.55,74.79 213.54,73.29 213.54,71.80 213.54,70.32 213.54,68.83 213.56,67.37 213.58,65.90 213.65,64.47 213.72,63.03 213.90,61.76 214.08,60.50 214.36,59.38 214.64,58.27 214.57,56.44 214.49,54.60 214.46,52.99 214.42,51.37 214.35,49.59 214.28,47.81 214.28,46.32 214.28,44.83 214.35,43.33 214.43,41.83 214.67,40.47 214.91,39.11 215.62,36.87 216.33,34.62 216.60,32.94 216.88,31.26 217.64,29.42 218.40,27.58 219.25,25.21 220.10,22.85 220.44,21.48 220.77,20.12 221.26,19.13 221.75,18.13 222.53,16.86 223.31,15.58 223.59,14.54 223.86,13.49 225.06,12.39 226.26,11.29 224.75,11.24 223.25,11.20 221.71,11.14 220.18,11.08 218.99,11.04 217.81,10.99 216.48,10.94 215.15,10.89 213.91,10.82 212.68,10.76 211.04,10.68 209.40,10.61 207.31,10.48 205.22,10.35 204.14,10.23 203.06,10.10 201.62,9.94 200.17,9.77 198.94,9.66 197.70,9.56 196.15,9.46 194.60,9.37 192.30,9.38 190.01,9.39 187.31,9.40 184.61,9.42 181.64,9.44 178.67,9.46 176.42,9.49 174.18,9.51 172.27,9.48 170.36,9.45 168.58,9.38 166.80,9.31 164.64,9.31 162.47,9.30 160.09,9.30 157.71,9.29 154.82,9.27 151.92,9.25 149.16,9.20 146.40,9.15 143.96,9.03 141.52,8.90 139.37,8.63 137.22,8.35 134.66,8.35 132.10,8.36 129.47,8.36 126.84,8.36 124.03,8.35 121.22,8.34 118.67,8.31 116.11,8.27 113.48,8.15 110.86,8.04 108.24,7.75 105.63,7.46 103.32,7.39 101.02,7.32 99.32,7.03 97.63,6.75 96.03,6.69 94.44,6.63 92.70,6.58 90.97,6.52 88.93,6.53 86.89,6.54 84.78,6.58 82.68,6.61 80.44,6.66 78.19,6.71 76.29,6.68 74.39,6.66 72.65,6.57 70.90,6.48 68.80,6.38 66.71,6.27 64.76,6.05 62.82,5.82 60.67,5.90 58.52,5.97 56.15,6.05 53.79,6.13 51.53,6.13 49.27,6.13 48.00,5.90 46.73,5.66 45.20,5.67 43.68,5.68 42.11,5.66 40.53,5.64 38.86,5.51 37.18,5.39 35.93,5.14 34.68,4.90 33.08,4.79 31.48,4.69 29.83,4.48 28.19,4.27 27.05,4.23 25.91,4.20 24.15,4.16 22.40,4.12 21.30,4.06 20.21,4.00 18.66,3.60 17.12,3.20 15.97,3.17 14.82,3.14 12.99,3.09 11.16,3.03 9.94,2.98 8.72,2.93 7.19,2.88 5.66,2.83 3.98,2.76 2.3,2.70 1.15,2.68 0,2.67 -0.31,2.63 -0.63,2.59 -0.94,2.48 -1.24,2.36 -1.50,2.18 -1.77,2.00 -1.98,1.75 -2.20,1.51 -2.34,1.23 -2.49,0.94 -2.57,0.63 -2.65,0.32 -2.65,-0.00 -2.65,-0.32 -2.57,-0.63 -2.49,-0.94 -2.34,-1.23 -2.19,-1.51 -1.98,-1.75 -1.77,-2.00 -1.50,-2.18 -1.24,-2.36 -0.94,-2.48 -0.63,-2.59 -0.31,-2.63 0.00,-2.67 0.00,-2.67 L 0,-2.67 Z"></path></g><g transform="translate(58 12) rotate(0 -10 18)" stroke="none"><path fill="#000000" d="M 0,2.16 Q 0,2.16 -1.15,2.22 -2.3,2.28 -3.65,2.31 -5.00,2.33 -6.15,2.38 -7.30,2.42 -8.65,2.44 -10.00,2.45 -11.68,2.39 -13.37,2.34 -16.08,3.36 -18.80,4.38 -20.73,4.83 -22.66,5.28 -24.16,5.97 -25.66,6.67 -26.60,7.62 -27.53,8.58 -28.45,9.72 -29.36,10.85 -29.29,12.13 -29.22,13.42 -29.26,14.73 -29.30,16.04 -29.30,17.17 -29.30,18.29 -28.53,19.62 -27.76,20.95 -27.12,22.04 -26.48,23.13 -25.54,24.18 -24.60,25.23 -23.74,25.88 -22.88,26.54 -21.97,27.10 -21.05,27.66 -20.09,28.18 -19.13,28.70 -18.16,29.20 -17.18,29.70 -15.84,30.19 -14.50,30.68 -12.76,31.28 -11.03,31.87 -9.15,32.47 -7.27,33.08 -5.74,33.29 -4.20,33.49 -2.97,33.53 -1.74,33.58 -0.38,33.59 0.97,33.61 2.42,33.62 3.86,33.62 5.05,33.59 6.24,33.56 9.12,33.47 12.00,33.39 12.41,33.46 12.83,33.53 13.20,33.72 13.57,33.92 13.86,34.23 14.15,34.53 14.33,34.92 14.51,35.30 14.55,35.72 14.60,36.14 14.51,36.55 14.42,36.96 14.20,37.32 13.98,37.68 13.66,37.96 13.34,38.23 12.95,38.38 12.55,38.54 12.13,38.56 11.71,38.59 11.31,38.47 10.90,38.36 10.55,38.12 10.20,37.89 9.95,37.55 9.69,37.21 9.56,36.81 9.42,36.42 9.42,35.99 9.42,35.57 9.56,35.17 9.69,34.77 9.95,34.44 10.20,34.10 10.55,33.87 10.90,33.63 11.31,33.52 11.71,33.40 12.14,33.43 12.56,33.45 12.95,33.61 13.34,33.76 13.66,34.04 13.98,34.31 14.20,34.67 14.42,35.03 14.51,35.44 14.60,35.86 14.55,36.27 14.51,36.69 14.33,37.08 14.15,37.46 13.86,37.76 13.57,38.07 13.20,38.27 12.83,38.47 12.41,38.53 11.99,38.60 11.99,38.60 11.99,38.60 9.10,38.51 6.21,38.41 5.01,38.36 3.81,38.32 2.33,38.29 0.85,38.27 -0.60,38.21 -2.06,38.14 -3.41,38.01 -4.76,37.87 -6.58,37.65 -8.40,37.43 -10.37,37.03 -12.35,36.63 -14.25,36.21 -16.16,35.80 -17.97,35.27 -19.79,34.73 -20.82,34.19 -21.86,33.64 -22.93,33.04 -24.00,32.44 -25.15,31.73 -26.30,31.01 -27.61,30.01 -28.91,29.01 -30.07,27.44 -31.23,25.87 -31.76,24.93 -32.28,24.00 -33.15,22.58 -34.02,21.16 -34.33,19.71 -34.64,18.27 -34.61,17.08 -34.58,15.90 -34.55,14.46 -34.51,13.03 -34.37,11.60 -34.23,10.17 -33.17,8.39 -32.12,6.60 -30.92,5.43 -29.72,4.26 -28.57,3.62 -27.43,2.98 -25.61,2.09 -23.79,1.19 -21.97,0.62 -20.15,0.04 -18.58,-0.49 -17.02,-1.03 -15.27,-1.68 -13.53,-2.34 -11.76,-2.39 -10.00,-2.45 -8.65,-2.44 -7.30,-2.42 -6.15,-2.38 -5.00,-2.33 -3.65,-2.31 -2.3,-2.28 -1.15,-2.22 0,-2.16 0.25,-2.13 0.51,-2.10 0.76,-2.01 1.00,-1.92 1.22,-1.77 1.43,-1.62 1.61,-1.42 1.78,-1.23 1.90,-1.00 2.02,-0.76 2.09,-0.51 2.15,-0.26 2.15,0.00 2.15,0.26 2.09,0.51 2.02,0.76 1.90,1.00 1.78,1.23 1.61,1.42 1.43,1.62 1.22,1.77 1.00,1.92 0.76,2.01 0.51,2.10 0.25,2.13 -0.00,2.16 -0.00,2.16 L 0,2.16 Z"></path></g><g transform="translate(126 11) rotate(0 -19 22)" stroke="none"><path fill="#000000" d="M -0.35,1.77 Q -0.35,1.77 -1.80,1.54 -3.25,1.32 -4.35,1.28 -5.45,1.25 -8.05,1.24 -10.65,1.24 -12.76,1.11 -14.87,0.99 -17.49,0.89 -20.12,0.80 -23.24,0.73 -26.37,0.67 -29.14,0.62 -31.90,0.57 -35.02,0.82 -38.14,1.07 -40.52,1.71 -42.90,2.36 -44.35,3.19 -45.80,4.02 -46.25,5.50 -46.69,6.98 -45.63,7.46 -44.57,7.94 -42.91,8.55 -41.26,9.16 -38.01,9.77 -34.75,10.39 -30.09,11.57 -25.43,12.75 -20.34,13.83 -15.26,14.92 -10.17,16.26 -5.09,17.61 -1.80,18.48 1.48,19.35 3.27,19.97 5.05,20.59 7.03,21.20 9.01,21.80 9.98,23.11 10.95,24.42 11.56,25.45 12.17,26.47 12.56,27.77 12.94,29.07 12.79,30.57 12.64,32.06 11.47,33.80 10.31,35.53 8.15,37.06 5.99,38.60 3.25,39.79 0.51,40.98 -2.36,42.01 -5.24,43.04 -8.27,43.75 -11.29,44.47 -14.30,45.04 -17.31,45.61 -20.09,45.85 -22.87,46.09 -24.91,46.20 -26.95,46.32 -29.45,46.50 -31.95,46.67 -32.22,46.63 -32.49,46.60 -32.73,46.48 -32.98,46.36 -33.17,46.16 -33.36,45.97 -33.48,45.73 -33.60,45.48 -33.64,45.22 -33.67,44.95 -33.62,44.68 -33.57,44.41 -33.43,44.18 -33.30,43.94 -33.10,43.76 -32.90,43.58 -32.65,43.47 -32.40,43.37 -32.13,43.35 -31.86,43.32 -31.59,43.39 -31.33,43.46 -31.10,43.60 -30.87,43.75 -30.70,43.96 -30.53,44.17 -30.44,44.43 -30.35,44.68 -30.34,44.95 -30.33,45.22 -30.41,45.48 -30.49,45.74 -30.65,45.96 -30.81,46.18 -31.03,46.34 -31.25,46.50 -31.51,46.58 -31.77,46.66 -32.04,46.65 -32.31,46.64 -32.57,46.55 -32.82,46.45 -33.03,46.28 -33.25,46.11 -33.39,45.88 -33.54,45.65 -33.60,45.39 -33.67,45.13 -33.64,44.86 -33.62,44.59 -33.51,44.34 -33.41,44.09 -33.22,43.89 -33.04,43.69 -32.81,43.55 -32.57,43.42 -32.30,43.37 -32.04,43.32 -32.04,43.32 -32.04,43.32 -29.57,43.33 -27.11,43.35 -25.13,43.24 -23.15,43.14 -20.54,42.87 -17.92,42.59 -15.01,41.95 -12.10,41.32 -9.30,40.55 -6.50,39.78 -3.80,38.66 -1.10,37.54 1.16,36.38 3.43,35.23 4.95,33.94 6.47,32.65 7.19,31.81 7.91,30.96 8.07,29.74 8.23,28.52 7.76,27.51 7.30,26.51 6.66,25.40 6.03,24.29 4.99,23.89 3.95,23.49 2.35,22.82 0.76,22.15 -2.53,21.33 -5.84,20.51 -10.86,19.25 -15.88,17.99 -21.04,16.98 -26.20,15.98 -30.77,14.95 -35.34,13.92 -38.93,13.40 -42.51,12.89 -44.77,12.18 -47.03,11.47 -48.55,10.10 -50.08,8.74 -50.25,7.43 -50.42,6.12 -49.90,4.85 -49.39,3.59 -48.36,2.49 -47.34,1.40 -45.51,0.48 -43.69,-0.42 -41.05,-1.17 -38.42,-1.91 -35.16,-2.24 -31.90,-2.57 -29.14,-2.61 -26.37,-2.66 -23.24,-2.72 -20.11,-2.79 -17.48,-2.87 -14.85,-2.96 -12.72,-3.07 -10.59,-3.17 -8.94,-3.15 -7.29,-3.13 -6.16,-3.01 -5.03,-2.88 -3.76,-2.67 -2.49,-2.47 -1.07,-2.12 0.35,-1.77 0.56,-1.70 0.77,-1.64 0.95,-1.52 1.14,-1.40 1.29,-1.25 1.44,-1.09 1.55,-0.90 1.66,-0.71 1.72,-0.50 1.78,-0.29 1.79,-0.07 1.80,0.13 1.76,0.35 1.72,0.56 1.62,0.76 1.53,0.96 1.39,1.13 1.26,1.30 1.08,1.43 0.91,1.56 0.71,1.65 0.51,1.73 0.29,1.77 0.08,1.81 -0.13,1.79 -0.35,1.77 -0.35,1.77 L -0.35,1.77 Z"></path></g><g transform="translate(179 12) rotate(0 -4 23)" stroke="none"><path fill="#000000" d="M 0,1.86 Q 0,1.86 -1.72,1.88 -3.44,1.89 -5.90,1.82 -8.35,1.74 -10.96,2.24 -13.57,2.74 -16.50,3.23 -19.43,3.72 -21.79,4.20 -24.15,4.68 -26.15,5.68 -28.15,6.68 -29.84,7.92 -31.53,9.17 -32.48,10.08 -33.43,11.00 -34.03,12.21 -34.64,13.43 -32.93,15.02 -31.21,16.62 -26.78,17.95 -22.35,19.29 -16.20,20.18 -10.06,21.07 -4.57,21.47 0.90,21.88 5.25,22.07 9.59,22.25 13.16,22.35 16.73,22.44 19.40,22.49 22.08,22.54 24.02,23.11 25.96,23.69 27.16,24.19 28.35,24.69 29.57,26.87 30.78,29.05 30.94,30.19 31.10,31.33 30.85,32.73 30.61,34.13 29.41,35.83 28.20,37.53 25.66,38.84 23.11,40.14 20.41,41.41 17.72,42.67 14.40,43.52 11.08,44.37 7.42,45.27 3.76,46.16 0.09,46.54 -3.57,46.92 -7.14,47.06 -10.72,47.21 -13.38,47.26 -16.05,47.31 -19.14,46.97 -22.24,46.63 -22.50,46.55 -22.75,46.46 -22.97,46.31 -23.18,46.15 -23.33,45.93 -23.49,45.71 -23.56,45.45 -23.64,45.19 -23.62,44.93 -23.61,44.66 -23.52,44.41 -23.42,44.16 -23.25,43.95 -23.08,43.75 -22.85,43.61 -22.63,43.47 -22.37,43.41 -22.11,43.35 -21.84,43.37 -21.57,43.40 -21.33,43.51 -21.08,43.62 -20.89,43.80 -20.69,43.98 -20.56,44.21 -20.44,44.45 -20.39,44.71 -20.34,44.97 -20.38,45.24 -20.42,45.50 -20.54,45.74 -20.67,45.98 -20.86,46.16 -21.05,46.35 -21.29,46.47 -21.53,46.58 -21.80,46.61 -22.06,46.65 -22.33,46.59 -22.59,46.54 -22.82,46.40 -23.05,46.27 -23.22,46.07 -23.40,45.86 -23.50,45.62 -23.60,45.37 -23.62,45.10 -23.64,44.84 -23.57,44.58 -23.50,44.32 -23.36,44.10 -23.21,43.87 -23.00,43.71 -22.79,43.54 -22.53,43.46 -22.28,43.37 -22.01,43.36 -21.75,43.36 -21.75,43.36 -21.75,43.36 -18.93,43.91 -16.12,44.47 -13.49,44.37 -10.86,44.28 -7.38,44.09 -3.91,43.89 -0.47,43.47 2.96,43.06 6.57,42.07 10.17,41.08 13.11,40.22 16.05,39.36 18.63,37.94 21.20,36.52 22.93,35.58 24.66,34.63 25.66,33.11 26.66,31.60 26.74,29.97 26.82,28.34 25.90,27.46 24.97,26.57 23.49,25.97 22.01,25.37 19.34,25.36 16.67,25.36 13.08,25.32 9.48,25.28 5.09,25.17 0.70,25.05 -4.90,24.74 -10.51,24.42 -16.93,23.62 -23.34,22.82 -28.18,21.53 -33.02,20.24 -35.56,18.81 -38.11,17.37 -38.27,14.71 -38.43,12.05 -37.81,10.90 -37.19,9.75 -36.33,9.12 -35.48,8.48 -34.34,7.70 -33.20,6.92 -31.32,5.52 -29.44,4.12 -27.12,2.96 -24.79,1.79 -22.39,1.24 -19.98,0.69 -17.11,0.12 -14.23,-0.44 -11.30,-1.09 -8.37,-1.74 -5.91,-1.82 -3.44,-1.89 -1.72,-1.88 0,-1.86 0.22,-1.84 0.44,-1.81 0.65,-1.73 0.86,-1.65 1.05,-1.52 1.23,-1.39 1.38,-1.22 1.53,-1.06 1.64,-0.86 1.74,-0.66 1.80,-0.44 1.85,-0.22 1.85,0.00 1.85,0.22 1.80,0.44 1.74,0.66 1.64,0.86 1.53,1.06 1.38,1.23 1.23,1.39 1.05,1.52 0.86,1.65 0.65,1.73 0.44,1.81 0.22,1.84 -0.00,1.86 -0.00,1.86 L 0,1.86 Z"></path></g><g transform="translate(68 125) rotate(0 48.5 59)" stroke="none"><path fill="#000000" d="M -0.43,-1.52 Q -0.43,-1.52 1.58,-2.07 3.60,-2.61 5.62,-3.13 7.65,-3.65 9.76,-3.90 11.87,-4.15 14.12,-4.50 16.37,-4.86 18.86,-5.01 21.34,-5.16 24.04,-5.50 26.75,-5.84 29.41,-5.99 32.06,-6.13 34.34,-6.19 36.62,-6.25 38.74,-6.28 40.86,-6.30 42.91,-6.33 44.96,-6.35 46.98,-6.38 49.01,-6.40 51.02,-6.41 53.03,-6.43 54.88,-6.19 56.73,-5.96 58.52,-5.25 60.31,-4.55 62.15,-3.64 63.99,-2.74 66.23,-1.45 68.47,-0.16 70.85,1.25 73.22,2.67 75.10,3.87 76.98,5.06 78.59,5.77 80.21,6.47 81.45,7.43 82.69,8.38 84.17,9.57 85.65,10.76 86.20,11.94 86.76,13.11 87.46,15.04 88.17,16.96 88.37,18.79 88.58,20.61 88.28,21.98 87.99,23.34 87.49,24.35 86.99,25.36 86.59,26.37 86.20,27.38 84.83,28.84 83.47,30.31 82.43,31.33 81.38,32.34 79.93,33.42 78.48,34.50 76.99,35.49 75.50,36.48 74.46,37.57 73.43,38.67 71.82,39.70 70.21,40.72 68.63,41.43 67.06,42.14 65.52,42.72 63.98,43.30 61.77,43.74 59.55,44.18 57.50,44.61 55.45,45.04 53.42,45.49 51.39,45.93 48.96,46.11 46.54,46.29 44.17,46.62 41.80,46.95 39.56,47.09 37.32,47.23 35.51,47.35 33.70,47.47 31.48,47.46 29.26,47.46 27.46,47.51 25.67,47.57 24.18,47.91 22.70,48.25 21.57,48.71 20.44,49.17 19.20,49.46 17.96,49.75 15.92,50.40 13.87,51.04 13.72,51.13 13.56,51.22 13.28,51.23 12.99,51.24 12.72,51.18 12.44,51.12 12.19,51.00 11.93,50.87 11.71,50.69 11.50,50.51 11.33,50.28 11.16,50.05 11.05,49.79 10.94,49.53 10.90,49.25 10.86,48.97 10.89,48.68 10.91,48.40 11.00,48.13 11.10,47.87 11.25,47.63 11.41,47.39 11.61,47.20 11.82,47.00 12.07,46.86 12.31,46.72 12.59,46.65 12.86,46.57 14.36,46.51 15.86,46.46 17.62,46.53 19.38,46.60 21.57,46.74 23.76,46.88 26.12,46.99 28.49,47.10 31.04,46.62 33.60,46.14 36.89,45.94 40.18,45.74 43.58,45.67 46.98,45.61 50.72,45.60 54.47,45.58 58.13,45.88 61.78,46.17 65.07,46.59 68.36,47.01 70.66,47.49 72.96,47.97 74.92,48.76 76.87,49.55 78.65,50.81 80.43,52.07 82.27,53.45 84.11,54.84 86.04,56.30 87.96,57.75 89.88,58.91 91.79,60.07 93.10,61.17 94.41,62.28 95.26,62.96 96.12,63.64 96.96,65.00 97.80,66.36 98.63,68.03 99.45,69.70 100.33,71.58 101.20,73.46 101.89,75.52 102.57,77.58 102.89,79.71 103.20,81.84 103.31,83.90 103.43,85.95 103.53,87.69 103.63,89.42 103.41,91.19 103.18,92.95 102.82,94.35 102.46,95.75 102.02,97.19 101.59,98.64 100.35,100.16 99.11,101.68 98.14,102.96 97.17,104.24 96.13,105.47 95.09,106.70 94.13,107.98 93.18,109.27 91.73,110.56 90.29,111.86 89.20,112.92 88.11,113.98 86.57,114.89 85.03,115.80 83.25,116.65 81.48,117.49 80.31,118.38 79.14,119.26 77.57,120.07 76.00,120.87 74.30,121.28 72.59,121.68 70.98,122.27 69.36,122.87 67.23,123.18 65.11,123.49 63.52,123.89 61.94,124.29 59.93,124.47 57.93,124.65 55.93,124.69 53.93,124.73 51.36,124.69 48.79,124.65 46.55,124.61 44.31,124.57 42.20,124.55 40.10,124.52 38.06,124.51 36.02,124.51 34.00,124.51 31.98,124.51 29.86,124.21 27.75,123.91 26.08,123.85 24.41,123.79 22.70,123.49 20.99,123.20 19.81,123.15 18.62,123.11 17.10,122.79 15.57,122.47 13.99,122.34 12.40,122.21 11.12,122.21 9.84,122.21 8.45,122.22 7.06,122.23 4.94,122.31 2.82,122.40 1.72,122.44 0.62,122.48 -2.18,122.56 -5.00,122.65 -5.42,122.58 -5.84,122.51 -6.22,122.31 -6.60,122.11 -6.90,121.79 -7.19,121.48 -7.37,121.09 -7.55,120.70 -7.60,120.28 -7.64,119.85 -7.55,119.43 -7.46,119.01 -7.24,118.65 -7.02,118.28 -6.69,118.00 -6.36,117.72 -5.96,117.56 -5.56,117.41 -5.14,117.38 -4.71,117.36 -4.29,117.47 -3.88,117.59 -3.53,117.83 -3.17,118.07 -2.91,118.41 -2.65,118.75 -2.51,119.16 -2.38,119.57 -2.38,120.00 -2.38,120.42 -2.52,120.83 -2.65,121.24 -2.91,121.58 -3.17,121.92 -3.53,122.16 -3.88,122.40 -4.30,122.52 -4.71,122.63 -5.14,122.61 -5.57,122.58 -5.96,122.43 -6.36,122.27 -6.69,121.99 -7.02,121.71 -7.24,121.34 -7.46,120.98 -7.55,120.56 -7.64,120.14 -7.60,119.71 -7.55,119.28 -7.37,118.90 -7.19,118.51 -6.89,118.19 -6.60,117.88 -6.22,117.68 -5.84,117.48 -5.42,117.41 -4.99,117.34 -4.99,117.34 -4.99,117.34 -2.18,117.43 0.63,117.52 1.73,117.56 2.84,117.61 4.99,117.72 7.14,117.84 8.59,117.91 10.04,117.97 11.39,118.09 12.74,118.21 14.64,118.38 16.54,118.55 17.80,118.93 19.07,119.31 20.39,119.55 21.71,119.80 23.18,120.18 24.65,120.56 26.41,120.74 28.18,120.93 30.08,121.21 31.98,121.48 34.00,121.48 36.01,121.48 38.05,121.46 40.09,121.45 42.19,121.41 44.29,121.38 46.52,121.31 48.74,121.24 51.27,121.14 53.79,121.04 55.68,120.93 57.56,120.82 59.28,120.65 61.00,120.47 62.75,120.05 64.51,119.62 66.19,119.34 67.87,119.05 69.80,118.25 71.73,117.44 72.95,117.26 74.18,117.07 75.44,116.49 76.71,115.91 78.15,114.89 79.59,113.87 81.26,112.93 82.93,112.00 84.06,111.43 85.20,110.86 86.35,109.80 87.51,108.73 88.65,107.73 89.78,106.73 90.83,105.31 91.88,103.89 92.86,102.81 93.84,101.73 94.92,100.30 96.00,98.86 96.88,98.05 97.75,97.23 98.23,95.89 98.71,94.55 99.15,93.45 99.60,92.35 99.90,90.93 100.20,89.52 100.20,87.84 100.19,86.16 100.06,84.24 99.94,82.32 99.67,80.50 99.40,78.69 98.72,76.87 98.04,75.05 97.05,73.23 96.07,71.41 95.22,69.78 94.37,68.14 93.31,66.33 92.25,64.52 91.31,63.46 90.37,62.40 88.34,61.19 86.31,59.97 84.37,58.54 82.43,57.11 80.58,55.76 78.73,54.41 77.24,53.29 75.74,52.17 74.07,51.42 72.40,50.66 70.20,50.23 68.01,49.79 64.79,49.41 61.57,49.03 58.04,48.78 54.50,48.54 50.79,48.61 47.07,48.69 43.75,48.83 40.43,48.98 37.37,49.26 34.31,49.55 31.41,50.22 28.50,50.89 26.13,51.00 23.75,51.10 21.56,51.24 19.37,51.38 17.58,51.44 15.79,51.50 14.67,51.36 13.56,51.22 13.28,51.23 13.00,51.24 12.72,51.18 12.44,51.12 12.19,51.00 11.93,50.87 11.71,50.69 11.50,50.51 11.33,50.28 11.16,50.05 11.05,49.79 10.94,49.53 10.90,49.25 10.86,48.97 10.89,48.68 10.91,48.40 11.00,48.13 11.10,47.87 11.25,47.63 11.41,47.39 11.61,47.20 11.82,47.00 12.07,46.86 12.31,46.72 12.59,46.65 12.86,46.57 13.85,46.48 14.84,46.40 17.06,46.00 19.29,45.60 20.69,45.24 22.09,44.88 23.86,44.63 25.64,44.38 27.43,44.41 29.22,44.45 31.40,44.38 33.58,44.32 35.34,44.30 37.10,44.28 39.21,44.10 41.32,43.92 43.78,43.49 46.23,43.06 48.39,42.81 50.55,42.56 52.54,42.00 54.54,41.44 56.54,40.85 58.55,40.25 60.46,39.64 62.37,39.03 63.78,38.49 65.19,37.95 66.50,37.38 67.81,36.80 68.92,36.15 70.04,35.51 71.35,34.02 72.67,32.54 74.01,31.52 75.35,30.49 76.49,29.55 77.64,28.61 79.39,26.90 81.15,25.19 81.98,23.50 82.82,21.82 83.08,20.45 83.35,19.09 83.36,17.66 83.38,16.23 82.99,14.88 82.60,13.54 81.48,12.23 80.36,10.93 79.62,10.07 78.88,9.21 77.17,8.35 75.47,7.49 73.60,6.35 71.74,5.22 69.36,3.87 66.98,2.51 64.79,1.34 62.60,0.17 60.79,-0.66 58.98,-1.50 57.58,-2.19 56.19,-2.88 54.61,-3.22 53.02,-3.55 51.02,-3.57 49.01,-3.58 47.00,-3.59 44.98,-3.60 42.94,-3.60 40.89,-3.61 38.80,-3.58 36.70,-3.55 34.46,-3.48 32.22,-3.41 29.67,-3.25 27.11,-3.09 24.32,-2.72 21.53,-2.35 19.19,-2.17 16.85,-2.00 14.53,-1.59 12.20,-1.17 10.31,-0.97 8.41,-0.76 6.43,-0.22 4.44,0.31 2.44,0.92 0.43,1.52 0.24,1.55 0.05,1.58 -0.13,1.56 -0.32,1.55 -0.50,1.49 -0.68,1.43 -0.84,1.32 -1.00,1.22 -1.13,1.08 -1.27,0.94 -1.36,0.78 -1.46,0.61 -1.51,0.43 -1.56,0.24 -1.57,0.05 -1.58,-0.13 -1.54,-0.32 -1.50,-0.50 -1.42,-0.68 -1.33,-0.85 -1.21,-1.00 -1.09,-1.14 -0.94,-1.26 -0.78,-1.37 -0.61,-1.45 -0.43,-1.52 -0.43,-1.52 L -0.43,-1.52 Z"></path></g></svg>