<svg version="1.1" xmlns="http://www.w3.org/2000/svg" viewBox="0 0 237 260" width="237" height="260">
  <!-- svg-source:excalidraw -->
  
  <defs>
    <style>
      @font-face {
        font-family: "Virgil";
        src: url("https://excalidraw.com/Virgil.woff2");
      }
      @font-face {
        font-family: "Cascadia";
        src: url("https://excalidraw.com/Cascadia.woff2");
      }
    </style>
  </defs>
  <g transform="translate(13 116) rotate(0 1.5 59.5)" stroke="none"><path fill="#000000" d="M 2.10,0 Q 2.10,0 2.16,1.15 2.22,2.3 2.34,3.98 2.46,5.66 2.48,8.17 2.50,10.69 2.42,12.50 2.35,14.32 2.22,16.52 2.08,18.73 1.99,20.82 1.89,22.91 1.90,24.66 1.91,26.41 1.94,28.01 1.97,29.62 2.00,31.16 2.04,32.71 2.29,34.36 2.54,36.01 2.69,37.72 2.83,39.43 2.92,41.03 3.00,42.63 3.04,44.17 3.09,45.71 3.16,46.94 3.22,48.16 3.51,49.32 3.80,50.48 3.96,52.07 4.12,53.65 4.18,55.19 4.25,56.73 4.28,58.24 4.30,59.76 4.35,60.97 4.40,62.19 4.42,63.57 4.43,64.95 4.44,66.40 4.44,67.85 4.43,69.33 4.43,70.81 4.43,72.30 4.42,73.79 4.42,75.29 4.41,76.78 4.41,78.28 4.40,79.78 4.44,80.99 4.47,82.20 4.50,83.29 4.54,84.38 4.58,86.73 4.62,89.07 4.64,90.20 4.66,91.33 4.72,93.12 4.79,94.91 4.84,96.34 4.90,97.77 4.96,98.97 5.01,100.17 5.05,101.61 5.09,103.06 5.13,104.14 5.17,105.22 5.19,106.52 5.21,107.82 5.24,109.00 5.27,110.18 5.48,111.44 5.69,112.70 6.02,115.82 6.36,118.93 6.28,119.47 6.20,120.01 5.95,120.49 5.71,120.98 5.32,121.36 4.93,121.74 4.44,121.98 3.95,122.22 3.41,122.29 2.87,122.35 2.34,122.25 1.81,122.14 1.34,121.87 0.87,121.60 0.51,121.19 0.15,120.78 -0.05,120.28 -0.26,119.78 -0.30,119.24 -0.34,118.69 -0.21,118.17 -0.07,117.64 0.22,117.18 0.51,116.73 0.94,116.39 1.37,116.05 1.88,115.87 2.39,115.69 2.93,115.68 3.48,115.67 4.00,115.83 4.52,116.00 4.95,116.32 5.39,116.64 5.71,117.08 6.02,117.53 6.17,118.05 6.33,118.57 6.31,119.11 6.29,119.66 6.10,120.17 5.91,120.68 5.56,121.10 5.22,121.52 4.76,121.81 4.30,122.09 3.77,122.22 3.24,122.35 2.70,122.30 2.15,122.25 1.66,122.03 1.16,121.81 0.76,121.44 0.36,121.08 0.09,120.60 -0.16,120.13 -0.26,119.59 -0.36,119.06 -0.36,119.06 -0.36,119.06 -0.45,117.00 -0.54,114.95 -0.93,113.63 -1.31,112.31 -1.29,111.24 -1.27,110.18 -1.24,109.00 -1.21,107.82 -1.19,106.52 -1.17,105.22 -1.13,104.14 -1.09,103.06 -1.05,101.61 -1.01,100.17 -0.96,98.97 -0.90,97.77 -0.84,96.34 -0.79,94.91 -0.72,93.12 -0.66,91.33 -0.64,90.20 -0.62,89.07 -0.58,86.73 -0.54,84.38 -0.50,83.29 -0.47,82.20 -0.44,80.99 -0.40,79.78 -0.41,78.28 -0.41,76.78 -0.42,75.29 -0.42,73.79 -0.43,72.30 -0.43,70.81 -0.44,69.34 -0.44,67.86 -0.44,66.41 -0.44,64.97 -0.44,63.60 -0.43,62.23 -0.40,61.03 -0.37,59.83 -0.39,58.36 -0.40,56.89 -0.45,55.47 -0.49,54.05 -0.58,52.74 -0.67,51.42 -0.96,49.82 -1.25,48.21 -1.20,46.99 -1.16,45.77 -1.15,44.27 -1.15,42.77 -1.17,41.25 -1.20,39.74 -1.29,38.19 -1.39,36.64 -1.71,34.68 -2.04,32.71 -2.00,31.17 -1.97,29.62 -1.94,28.01 -1.91,26.41 -1.90,24.66 -1.89,22.91 -1.99,20.82 -2.08,18.73 -2.22,16.52 -2.35,14.32 -2.42,12.50 -2.50,10.69 -2.48,8.17 -2.46,5.66 -2.34,3.98 -2.22,2.3 -2.16,1.15 -2.10,0 -2.07,-0.25 -2.03,-0.50 -1.95,-0.73 -1.86,-0.97 -1.71,-1.18 -1.57,-1.39 -1.38,-1.56 -1.19,-1.72 -0.96,-1.84 -0.74,-1.96 -0.49,-2.02 -0.25,-2.08 0.00,-2.08 0.25,-2.08 0.49,-2.02 0.74,-1.96 0.96,-1.84 1.19,-1.72 1.38,-1.56 1.57,-1.39 1.71,-1.18 1.86,-0.97 1.95,-0.73 2.04,-0.50 2.07,-0.25 2.10,0.00 2.10,0.00 L 2.10,0 Z"></path></g><g transform="translate(16 235) rotate(0 37.5 1.5)" stroke="none"><path fill="#000000" d="M 0,-1.63 Q 0,-1.63 2.58,-1.59 5.17,-1.54 8.28,-1.51 11.39,-1.48 15.02,-1.46 18.64,-1.43 22.77,-1.42 26.89,-1.40 30.37,-1.39 33.85,-1.37 36.77,-1.36 39.69,-1.36 42.15,-1.06 44.62,-0.76 46.75,-0.64 48.87,-0.51 50.64,-0.53 52.40,-0.54 54.41,-0.25 56.42,0.04 58.31,0.15 60.20,0.27 61.76,0.54 63.32,0.82 64.76,0.83 66.21,0.84 67.73,0.70 69.26,0.56 72.13,0.44 75.00,0.31 75.42,0.38 75.85,0.45 76.24,0.66 76.62,0.86 76.92,1.18 77.22,1.49 77.40,1.88 77.58,2.28 77.63,2.71 77.67,3.14 77.58,3.56 77.49,3.99 77.26,4.36 77.04,4.73 76.71,5.01 76.38,5.29 75.97,5.45 75.57,5.61 75.14,5.64 74.70,5.66 74.29,5.55 73.87,5.43 73.51,5.19 73.15,4.94 72.89,4.60 72.62,4.25 72.49,3.84 72.35,3.43 72.35,2.99 72.35,2.56 72.49,2.15 72.63,1.74 72.89,1.39 73.15,1.05 73.51,0.80 73.87,0.56 74.29,0.44 74.71,0.33 75.14,0.35 75.57,0.38 75.98,0.54 76.38,0.70 76.71,0.98 77.04,1.26 77.26,1.63 77.49,2.00 77.58,2.43 77.67,2.85 77.63,3.28 77.58,3.71 77.40,4.11 77.21,4.50 76.92,4.82 76.62,5.13 76.23,5.33 75.85,5.54 75.42,5.61 74.99,5.68 74.99,5.68 74.99,5.68 73.12,5.64 71.25,5.61 69.71,5.46 68.16,5.30 66.99,5.14 65.82,4.97 64.16,4.56 62.51,4.16 61.25,3.75 59.99,3.33 57.96,3.19 55.93,3.04 54.12,2.71 52.31,2.39 50.52,2.27 48.72,2.15 46.51,2.03 44.30,1.91 41.99,1.63 39.68,1.36 36.77,1.36 33.85,1.37 30.37,1.39 26.89,1.40 22.77,1.42 18.64,1.43 15.02,1.46 11.39,1.48 8.28,1.51 5.17,1.54 2.58,1.59 0,1.63 -0.19,1.61 -0.39,1.58 -0.57,1.51 -0.76,1.44 -0.92,1.33 -1.08,1.22 -1.21,1.07 -1.34,0.93 -1.43,0.75 -1.53,0.58 -1.57,0.38 -1.62,0.19 -1.62,-0.00 -1.62,-0.19 -1.57,-0.38 -1.53,-0.58 -1.43,-0.75 -1.34,-0.93 -1.21,-1.07 -1.08,-1.22 -0.92,-1.33 -0.76,-1.44 -0.57,-1.51 -0.39,-1.58 -0.19,-1.61 0.00,-1.63 0.00,-1.63 L 0,-1.63 Z"></path></g><g transform="translate(81 115) rotate(0 6 62)" stroke="none"><path fill="#000000" d="M 1.61,0 Q 1.61,0 1.66,1.72 1.70,3.44 1.70,5.33 1.71,7.21 1.65,9.45 1.60,11.69 1.56,14.08 1.52,16.46 1.49,18.92 1.46,21.37 1.44,23.85 1.42,26.33 1.40,29.11 1.39,31.89 1.66,34.73 1.94,37.56 2.05,40.85 2.17,44.14 2.77,46.84 3.38,49.54 3.65,51.96 3.93,54.37 4.32,56.47 4.71,58.58 5.22,60.29 5.72,62.01 5.96,64.02 6.21,66.02 6.81,68.15 7.42,70.27 7.70,72.78 7.99,75.29 8.38,77.72 8.76,80.14 9.24,81.99 9.72,83.84 10.00,85.59 10.28,87.34 10.46,88.66 10.65,89.98 11.02,91.23 11.38,92.48 11.84,93.53 12.30,94.57 12.58,96.14 12.86,97.70 12.97,99.22 13.09,100.75 13.14,102.26 13.19,103.76 13.25,104.98 13.31,106.19 13.37,107.28 13.42,108.38 13.52,110.02 13.62,111.67 13.69,113.20 13.77,114.73 13.83,116.35 13.88,117.98 14.45,120.83 15.02,123.68 14.99,124.17 14.97,124.67 14.78,125.12 14.60,125.58 14.27,125.95 13.95,126.33 13.53,126.58 13.11,126.83 12.63,126.93 12.14,127.04 11.65,126.98 11.16,126.92 10.72,126.72 10.27,126.51 9.92,126.17 9.56,125.82 9.33,125.39 9.10,124.95 9.03,124.46 8.95,123.98 9.03,123.49 9.11,123.01 9.35,122.57 9.58,122.14 9.94,121.80 10.30,121.47 10.75,121.26 11.20,121.06 11.69,121.01 12.18,120.96 12.66,121.06 13.14,121.17 13.56,121.43 13.98,121.69 14.30,122.06 14.61,122.44 14.79,122.90 14.97,123.36 15.00,123.85 15.02,124.34 14.89,124.81 14.75,125.29 14.47,125.70 14.19,126.10 13.80,126.40 13.41,126.69 12.94,126.85 12.47,127.00 11.98,127.00 11.49,127.00 11.02,126.84 10.55,126.68 10.16,126.38 9.77,126.08 9.50,125.67 9.22,125.26 9.10,124.78 8.97,124.31 8.97,124.31 8.97,124.31 8.50,122.35 8.04,120.39 8.07,119.19 8.11,117.98 8.16,116.35 8.22,114.73 8.29,113.20 8.37,111.68 8.46,110.04 8.55,108.40 8.59,107.32 8.63,106.25 8.67,105.05 8.70,103.86 8.69,102.42 8.68,100.98 8.64,99.62 8.60,98.26 8.51,97.11 8.43,95.95 8.04,94.65 7.65,93.34 7.37,91.78 7.09,90.21 7.11,88.96 7.13,87.71 7.02,86.11 6.91,84.52 6.47,82.55 6.03,80.59 5.60,78.11 5.18,75.62 4.90,73.35 4.63,71.08 3.92,68.71 3.21,66.34 3.06,64.53 2.91,62.73 2.51,60.90 2.10,59.06 1.68,56.87 1.27,54.68 1.01,52.40 0.76,50.12 0.11,47.19 -0.53,44.25 -0.66,41.04 -0.79,37.83 -1.09,34.86 -1.39,31.89 -1.40,29.11 -1.42,26.33 -1.44,23.85 -1.46,21.37 -1.49,18.92 -1.52,16.46 -1.56,14.08 -1.60,11.69 -1.65,9.45 -1.71,7.21 -1.70,5.33 -1.70,3.44 -1.66,1.72 -1.61,0 -1.59,-0.19 -1.56,-0.38 -1.50,-0.56 -1.43,-0.75 -1.32,-0.91 -1.21,-1.07 -1.06,-1.20 -0.91,-1.33 -0.74,-1.42 -0.57,-1.51 -0.38,-1.55 -0.19,-1.60 0.00,-1.60 0.19,-1.60 0.38,-1.55 0.57,-1.51 0.74,-1.42 0.91,-1.33 1.06,-1.20 1.21,-1.07 1.32,-0.91 1.43,-0.75 1.50,-0.56 1.56,-0.38 1.59,-0.19 1.61,0.00 1.61,0.00 L 1.61,0 Z"></path></g><g transform="translate(93 239) rotate(0 67 5.5)" stroke="none"><path fill="#000000" d="M 0,-2.03 Q 0,-2.03 1.43,-2.07 2.87,-2.11 4.63,-2.09 6.39,-2.07 8.58,-1.97 10.76,-1.87 13.13,-1.79 15.50,-1.72 17.94,-1.66 20.38,-1.61 22.57,-1.57 24.76,-1.53 26.27,-1.61 27.77,-1.69 28.98,-1.79 30.20,-1.88 31.29,-1.96 32.38,-2.05 33.71,-2.10 35.03,-2.15 36.17,-2.21 37.31,-2.27 38.95,-2.26 40.58,-2.24 43.00,-2.12 45.42,-2.00 47.88,-1.91 50.35,-1.81 53.12,-1.75 55.90,-1.68 59.09,-1.63 62.28,-1.58 65.99,-1.25 69.71,-0.92 73.53,-0.78 77.34,-0.63 80.47,-0.27 83.60,0.09 86.03,0.24 88.45,0.40 90.19,0.68 91.93,0.96 93.40,1.02 94.87,1.08 96.51,1.39 98.15,1.70 99.29,1.75 100.43,1.81 102.59,2.12 104.74,2.43 105.99,2.42 107.23,2.42 108.60,2.74 109.97,3.07 112.15,3.51 114.33,3.95 115.62,4.39 116.91,4.84 118.76,5.42 120.60,6.00 122.57,6.60 124.55,7.21 126.53,7.79 128.51,8.37 129.60,8.50 130.70,8.62 132.41,8.70 134.13,8.79 134.48,8.87 134.83,8.94 135.14,9.13 135.44,9.32 135.67,9.59 135.90,9.87 136.03,10.20 136.16,10.54 136.18,10.89 136.19,11.25 136.10,11.60 136.00,11.94 135.79,12.23 135.59,12.53 135.30,12.74 135.02,12.96 134.68,13.07 134.34,13.18 133.98,13.18 133.62,13.18 133.28,13.06 132.94,12.94 132.66,12.72 132.38,12.50 132.18,12.21 131.98,11.91 131.89,11.56 131.79,11.22 131.81,10.86 131.84,10.50 131.97,10.17 132.11,9.84 132.34,9.57 132.58,9.30 132.88,9.11 133.19,8.93 133.54,8.86 133.89,8.78 134.25,8.83 134.60,8.87 134.93,9.02 135.25,9.17 135.51,9.42 135.77,9.67 135.93,9.99 136.10,10.30 136.15,10.66 136.21,11.01 136.15,11.37 136.09,11.72 135.92,12.03 135.75,12.35 135.48,12.59 135.22,12.84 134.90,12.98 134.57,13.13 134.21,13.17 133.86,13.20 133.86,13.20 133.86,13.20 131.90,12.98 129.93,12.75 128.75,12.45 127.57,12.15 125.56,11.75 123.54,11.34 121.52,10.97 119.51,10.59 117.37,10.23 115.24,9.87 113.16,9.13 111.09,8.40 109.86,8.20 108.63,8.00 106.98,7.58 105.32,7.17 103.77,6.59 102.21,6.02 101.08,5.88 99.95,5.74 98.64,5.50 97.34,5.25 95.94,4.86 94.54,4.47 92.91,4.23 91.28,3.99 89.78,3.58 88.28,3.17 85.79,3.03 83.29,2.90 80.27,2.59 77.25,2.27 73.36,2.17 69.47,2.07 65.87,1.83 62.28,1.58 59.09,1.63 55.90,1.68 53.12,1.75 50.35,1.81 47.88,1.91 45.42,2.00 43.00,2.12 40.58,2.24 38.95,2.26 37.31,2.27 36.17,2.21 35.03,2.15 33.71,2.10 32.38,2.05 31.29,1.96 30.20,1.88 28.98,1.79 27.77,1.69 26.27,1.61 24.76,1.53 22.57,1.57 20.38,1.61 17.94,1.66 15.50,1.72 13.13,1.79 10.76,1.87 8.58,1.97 6.39,2.07 4.63,2.09 2.87,2.11 1.43,2.07 0,2.03 -0.24,2.00 -0.48,1.97 -0.71,1.88 -0.94,1.79 -1.14,1.66 -1.34,1.52 -1.51,1.33 -1.67,1.15 -1.78,0.93 -1.90,0.72 -1.95,0.48 -2.01,0.24 -2.01,-0.00 -2.01,-0.24 -1.95,-0.48 -1.90,-0.72 -1.78,-0.93 -1.67,-1.15 -1.50,-1.33 -1.34,-1.52 -1.14,-1.66 -0.94,-1.79 -0.71,-1.88 -0.48,-1.97 -0.24,-2.00 0.00,-2.03 0.00,-2.03 L 0,-2.03 Z"></path></g><g transform="translate(193 108) rotate(0 13 70)" stroke="none"><path fill="#000000" d="M 1.82,-0.26 Q 1.82,-0.26 2.06,1.75 2.30,3.77 2.40,5.85 2.50,7.93 2.80,9.84 3.11,11.76 3.56,13.40 4.01,15.05 4.44,17.25 4.86,19.45 5.36,21.19 5.86,22.93 6.15,24.65 6.43,26.38 6.80,28.15 7.16,29.93 7.58,31.84 8.00,33.75 8.45,35.72 8.89,37.69 9.36,39.68 9.82,41.67 10.30,43.67 10.77,45.67 11.24,47.99 11.71,50.30 12.19,52.41 12.66,54.53 13.14,56.58 13.63,58.63 14.13,60.65 14.62,62.67 15.11,64.99 15.61,67.31 16.09,69.42 16.58,71.54 17.08,73.59 17.57,75.64 17.82,77.75 18.06,79.86 18.44,81.81 18.82,83.76 19.27,85.74 19.71,87.72 20.19,89.72 20.67,91.71 20.90,93.80 21.13,95.89 21.29,97.64 21.44,99.38 21.77,101.16 22.10,102.94 22.58,104.20 23.06,105.45 23.30,107.35 23.54,109.24 23.66,110.89 23.78,112.54 24.12,113.93 24.46,115.32 24.64,116.94 24.83,118.57 24.95,119.83 25.08,121.08 25.39,122.27 25.71,123.46 26.04,125.46 26.37,127.45 26.50,128.77 26.64,130.09 27.13,131.80 27.62,133.52 28.20,134.97 28.77,136.42 28.91,138.14 29.06,139.86 29.00,140.35 28.94,140.84 28.73,141.29 28.52,141.74 28.17,142.10 27.83,142.45 27.39,142.68 26.95,142.91 26.46,142.99 25.97,143.06 25.48,142.98 24.99,142.89 24.55,142.65 24.12,142.42 23.78,142.05 23.44,141.69 23.24,141.24 23.03,140.79 22.98,140.29 22.93,139.80 23.05,139.32 23.16,138.83 23.42,138.41 23.68,137.99 24.06,137.67 24.44,137.35 24.90,137.17 25.36,136.99 25.86,136.97 26.36,136.95 26.83,137.09 27.31,137.22 27.72,137.51 28.13,137.79 28.42,138.19 28.72,138.58 28.87,139.06 29.03,139.53 29.02,140.02 29.02,140.52 28.85,140.99 28.69,141.46 28.39,141.85 28.08,142.24 27.67,142.52 27.26,142.79 26.78,142.92 26.30,143.05 25.80,143.01 25.31,142.98 24.85,142.80 24.39,142.61 24.01,142.28 23.64,141.96 23.39,141.53 23.14,141.10 23.03,140.62 22.93,140.13 22.93,140.13 22.93,140.13 22.65,138.12 22.37,136.11 22.15,134.93 21.93,133.75 21.63,131.97 21.32,130.18 21.39,128.96 21.45,127.74 21.40,126.09 21.36,124.45 21.05,122.87 20.74,121.30 20.75,120.12 20.76,118.93 20.67,117.52 20.59,116.12 20.28,114.42 19.98,112.73 19.95,111.17 19.92,109.62 19.79,108.05 19.67,106.48 19.30,104.99 18.93,103.49 18.61,101.52 18.29,99.54 18.28,97.86 18.26,96.18 18.08,94.27 17.91,92.36 17.43,90.35 16.95,88.34 16.50,86.31 16.06,84.28 15.68,82.22 15.30,80.15 15.12,78.21 14.94,76.28 14.43,74.22 13.93,72.16 13.42,70.03 12.91,67.89 12.40,65.62 11.89,63.34 11.39,61.32 10.88,59.30 10.37,57.24 9.85,55.19 9.33,53.06 8.80,50.93 8.28,48.68 7.75,46.42 7.24,44.43 6.72,42.44 6.20,40.45 5.69,38.47 5.18,36.50 4.67,34.52 4.20,32.58 3.72,30.63 3.33,28.73 2.95,26.82 2.81,25.31 2.68,23.79 2.21,21.96 1.74,20.13 1.22,18.01 0.70,15.88 0.29,14.09 -0.11,12.31 -0.49,10.22 -0.86,8.13 -1.01,6.20 -1.15,4.27 -1.49,2.26 -1.82,0.26 -1.83,0.03 -1.83,-0.18 -1.78,-0.40 -1.73,-0.61 -1.64,-0.81 -1.54,-1.01 -1.39,-1.18 -1.25,-1.35 -1.07,-1.48 -0.89,-1.61 -0.68,-1.69 -0.47,-1.78 -0.25,-1.81 -0.03,-1.84 0.18,-1.82 0.40,-1.80 0.61,-1.72 0.82,-1.65 1.00,-1.52 1.19,-1.40 1.34,-1.24 1.49,-1.08 1.60,-0.88 1.71,-0.69 1.76,-0.47 1.82,-0.26 1.82,-0.26 L 1.82,-0.26 Z"></path></g><g transform="translate(13 117) rotate(0 32.5 2)" stroke="none"><path fill="#000000" d="M 0,-1.98 Q 0,-1.98 1.43,-2.03 2.87,-2.07 4.06,-2.13 5.24,-2.20 6.32,-2.25 7.40,-2.31 9.46,-1.94 11.52,-1.56 14.04,-1.04 16.56,-0.52 19.08,0.02 21.60,0.57 23.46,0.77 25.32,0.98 27.24,1.07 29.16,1.17 30.74,1.45 32.32,1.72 33.67,1.78 35.02,1.84 36.45,1.85 37.88,1.87 39.64,1.91 41.39,1.94 42.72,1.90 44.04,1.86 45.47,1.83 46.89,1.80 48.36,1.78 49.83,1.76 51.31,1.74 52.80,1.73 54.40,1.61 55.99,1.50 57.10,1.41 58.21,1.32 59.73,1.22 61.25,1.11 63.12,1.09 65.00,1.06 65.46,1.14 65.93,1.21 66.35,1.44 66.77,1.66 67.10,2.00 67.42,2.35 67.62,2.78 67.82,3.21 67.87,3.68 67.92,4.15 67.82,4.62 67.72,5.08 67.48,5.49 67.23,5.89 66.87,6.20 66.51,6.51 66.07,6.69 65.63,6.86 65.15,6.89 64.68,6.91 64.22,6.79 63.76,6.66 63.37,6.39 62.98,6.13 62.69,5.75 62.40,5.37 62.25,4.92 62.10,4.47 62.10,3.99 62.10,3.52 62.25,3.07 62.40,2.62 62.69,2.24 62.98,1.86 63.37,1.60 63.76,1.33 64.22,1.20 64.68,1.08 65.15,1.10 65.63,1.13 66.07,1.31 66.51,1.48 66.87,1.79 67.23,2.10 67.48,2.50 67.72,2.91 67.82,3.37 67.93,3.84 67.87,4.31 67.82,4.78 67.62,5.21 67.42,5.64 67.10,5.99 66.77,6.33 66.35,6.55 65.93,6.78 65.46,6.85 64.99,6.93 64.99,6.93 64.99,6.93 63.12,6.90 61.25,6.88 59.73,6.77 58.21,6.67 57.10,6.58 55.99,6.49 54.39,6.38 52.80,6.26 51.31,6.24 49.82,6.23 48.35,6.20 46.88,6.18 45.44,6.14 44.01,6.10 42.67,6.04 41.33,5.97 39.53,5.96 37.72,5.95 36.19,5.85 34.65,5.74 33.07,5.53 31.50,5.32 30.25,4.94 29.01,4.57 26.99,4.50 24.97,4.43 22.96,4.24 20.96,4.06 18.45,3.68 15.94,3.30 13.41,3.01 10.87,2.71 9.13,2.51 7.40,2.31 6.32,2.25 5.24,2.20 4.06,2.13 2.87,2.07 1.43,2.03 0,1.98 -0.23,1.95 -0.47,1.92 -0.69,1.84 -0.92,1.75 -1.11,1.62 -1.31,1.48 -1.47,1.30 -1.63,1.12 -1.74,0.91 -1.85,0.70 -1.91,0.47 -1.96,0.23 -1.96,-0.00 -1.96,-0.23 -1.91,-0.47 -1.85,-0.70 -1.74,-0.91 -1.63,-1.12 -1.47,-1.30 -1.31,-1.48 -1.11,-1.62 -0.92,-1.75 -0.69,-1.84 -0.47,-1.92 -0.23,-1.95 0.00,-1.98 0.00,-1.98 L 0,-1.98 Z"></path></g><g transform="translate(10 115) rotate(0 19 -32)" stroke="none"><path fill="#000000" d="M -1.25,-1.25 Q -1.25,-1.25 -0.13,-2.43 0.97,-3.61 1.60,-4.61 2.23,-5.60 3.47,-7.18 4.72,-8.75 6.15,-10.54 7.58,-12.33 8.75,-13.93 9.91,-15.54 10.97,-17.09 12.02,-18.64 13.05,-20.38 14.08,-22.11 15.11,-23.99 16.15,-25.87 17.16,-27.59 18.18,-29.31 19.19,-31.13 20.20,-32.95 21.20,-34.64 22.21,-36.34 22.83,-37.64 23.45,-38.94 23.94,-40.28 24.43,-41.63 24.91,-42.86 25.39,-44.09 25.86,-45.21 26.32,-46.33 26.77,-47.40 27.23,-48.46 27.69,-49.50 28.15,-50.54 28.61,-51.57 29.07,-52.60 29.54,-53.61 30.00,-54.63 30.82,-56.06 31.64,-57.49 32.20,-58.66 32.75,-59.83 33.43,-61.08 34.11,-62.33 34.53,-63.42 34.96,-64.51 35.12,-64.98 35.29,-65.46 35.59,-65.85 35.89,-66.24 36.31,-66.52 36.72,-66.80 37.20,-66.93 37.68,-67.06 38.18,-67.03 38.68,-67.00 39.14,-66.81 39.60,-66.62 39.98,-66.30 40.35,-65.97 40.61,-65.54 40.86,-65.11 40.97,-64.63 41.07,-64.14 41.01,-63.65 40.95,-63.15 40.74,-62.70 40.53,-62.25 40.19,-61.89 39.84,-61.53 39.40,-61.30 38.96,-61.07 38.47,-60.99 37.97,-60.92 37.48,-61.00 36.99,-61.09 36.55,-61.32 36.11,-61.56 35.77,-61.92 35.44,-62.29 35.23,-62.74 35.02,-63.19 34.97,-63.69 34.92,-64.18 35.03,-64.67 35.14,-65.15 35.40,-65.58 35.66,-66.00 36.05,-66.32 36.43,-66.64 36.89,-66.82 37.35,-67.01 37.85,-67.03 38.35,-67.05 38.83,-66.92 39.31,-66.78 39.72,-66.50 40.13,-66.21 40.43,-65.82 40.72,-65.42 40.88,-64.94 41.04,-64.47 41.03,-63.97 41.03,-63.47 41.03,-63.48 41.03,-63.48 39.28,-60.44 37.53,-57.41 36.93,-56.41 36.33,-55.40 35.42,-53.90 34.51,-52.40 33.97,-51.41 33.44,-50.42 32.90,-49.44 32.36,-48.45 31.81,-47.47 31.26,-46.48 30.70,-45.48 30.15,-44.49 29.58,-43.46 29.00,-42.43 28.41,-41.32 27.81,-40.21 27.12,-38.74 26.43,-37.27 25.63,-36.02 24.82,-34.76 23.83,-33.15 22.83,-31.53 21.83,-29.63 20.84,-27.72 19.85,-26.08 18.85,-24.44 17.86,-22.48 16.87,-20.52 15.84,-18.63 14.81,-16.74 13.74,-15.17 12.66,-13.60 11.51,-11.93 10.36,-10.25 9.05,-8.38 7.75,-6.50 6.61,-4.87 5.47,-3.24 4.54,-2.11 3.62,-0.98 2.43,0.13 1.25,1.25 1.08,1.39 0.92,1.52 0.72,1.61 0.52,1.69 0.31,1.73 0.10,1.77 -0.10,1.76 -0.32,1.75 -0.52,1.68 -0.73,1.62 -0.91,1.51 -1.09,1.40 -1.24,1.24 -1.40,1.09 -1.51,0.91 -1.62,0.73 -1.68,0.52 -1.75,0.32 -1.76,0.10 -1.77,-0.10 -1.73,-0.31 -1.69,-0.52 -1.61,-0.72 -1.52,-0.92 -1.39,-1.09 -1.25,-1.25 -1.25,-1.25 L -1.25,-1.25 Z"></path></g><g transform="translate(48 51) rotate(0 18 38.5)" stroke="none"><path fill="#000000" d="M 1.79,-0.71 Q 1.79,-0.71 2.40,0.70 3.01,2.13 3.37,3.47 3.73,4.81 4.13,6.09 4.54,7.37 4.76,8.99 4.98,10.60 5.33,11.94 5.67,13.28 6.06,15.06 6.45,16.85 7.07,18.98 7.70,21.12 8.51,23.49 9.32,25.86 10.47,28.25 11.62,30.63 12.70,33.17 13.79,35.70 14.79,37.90 15.80,40.10 16.78,41.86 17.77,43.61 18.77,45.56 19.77,47.50 21.03,49.74 22.30,51.97 23.40,53.78 24.50,55.58 25.58,57.19 26.65,58.80 27.49,60.05 28.32,61.30 29.02,62.39 29.72,63.48 30.91,65.03 32.10,66.59 32.68,67.55 33.26,68.51 34.21,69.50 35.16,70.49 36.90,73.51 38.63,76.52 38.64,76.95 38.64,77.39 38.51,77.80 38.38,78.21 38.12,78.56 37.87,78.91 37.51,79.16 37.16,79.41 36.74,79.53 36.33,79.65 35.89,79.64 35.46,79.62 35.05,79.47 34.65,79.31 34.31,79.04 33.98,78.76 33.75,78.39 33.52,78.02 33.42,77.60 33.32,77.18 33.36,76.75 33.40,76.32 33.58,75.92 33.76,75.53 34.05,75.21 34.34,74.89 34.72,74.68 35.10,74.47 35.53,74.39 35.95,74.32 36.38,74.38 36.81,74.44 37.20,74.64 37.58,74.84 37.89,75.15 38.19,75.46 38.38,75.85 38.57,76.24 38.62,76.67 38.67,77.10 38.59,77.52 38.50,77.95 38.28,78.32 38.06,78.70 37.74,78.98 37.41,79.27 37.01,79.44 36.61,79.60 36.18,79.63 35.75,79.66 35.33,79.55 34.91,79.44 34.54,79.21 34.18,78.97 33.91,78.63 33.65,78.29 33.50,77.88 33.36,77.47 33.36,77.47 33.36,77.47 32.85,76.23 32.35,74.99 31.33,73.68 30.30,72.38 29.33,70.56 28.36,68.75 27.43,66.98 26.50,65.21 26.00,64.07 25.49,62.94 24.86,61.65 24.23,60.36 23.20,58.69 22.17,57.03 21.02,55.19 19.88,53.36 18.56,51.10 17.24,48.83 16.23,46.95 15.21,45.06 14.16,43.22 13.10,41.38 12.02,39.17 10.94,36.97 9.81,34.55 8.69,32.13 7.35,29.63 6.01,27.12 5.02,24.76 4.04,22.39 3.14,20.14 2.24,17.89 1.75,16.12 1.26,14.35 0.89,12.73 0.51,11.12 0.40,9.85 0.30,8.58 -0.20,6.09 -0.71,3.61 -1.25,2.16 -1.79,0.71 -1.85,0.49 -1.91,0.26 -1.91,0.03 -1.92,-0.19 -1.86,-0.42 -1.81,-0.65 -1.71,-0.86 -1.60,-1.06 -1.45,-1.24 -1.30,-1.42 -1.11,-1.55 -0.92,-1.69 -0.71,-1.78 -0.49,-1.86 -0.26,-1.89 -0.03,-1.93 0.19,-1.90 0.42,-1.88 0.64,-1.80 0.86,-1.72 1.06,-1.59 1.25,-1.46 1.41,-1.29 1.56,-1.12 1.68,-0.92 1.79,-0.71 1.79,-0.71 L 1.79,-0.71 Z"></path></g><g transform="translate(45 53) rotate(0 49 0)" stroke="none"><path fill="#000000" d="M 0,-1.64 Q 0,-1.64 1.43,-1.72 2.87,-1.80 4.63,-1.81 6.39,-1.83 8.58,-1.76 10.76,-1.69 13.99,-1.64 17.22,-1.59 20.89,-1.55 24.57,-1.51 29.00,-1.48 33.44,-1.46 37.62,-1.44 41.81,-1.42 46.46,-1.40 51.12,-1.39 55.68,-1.38 60.25,-1.36 64.77,-1.36 69.30,-1.35 73.24,-1.34 77.18,-1.34 79.71,-1.33 82.25,-1.33 83.90,-1.42 85.55,-1.50 87.54,-1.72 89.52,-1.93 90.82,-2.08 92.12,-2.22 93.47,-2.34 94.81,-2.45 96.40,-2.50 98,-2.54 98.40,-2.47 98.81,-2.40 99.17,-2.21 99.53,-2.02 99.82,-1.72 100.10,-1.42 100.27,-1.05 100.45,-0.68 100.49,-0.27 100.53,0.13 100.45,0.53 100.36,0.94 100.15,1.29 99.93,1.64 99.62,1.91 99.31,2.17 98.92,2.33 98.54,2.48 98.13,2.50 97.72,2.52 97.32,2.41 96.93,2.30 96.59,2.07 96.25,1.84 96.00,1.51 95.75,1.19 95.62,0.80 95.49,0.41 95.49,-0.00 95.49,-0.41 95.62,-0.80 95.75,-1.19 96.00,-1.51 96.25,-1.84 96.59,-2.07 96.93,-2.30 97.32,-2.41 97.72,-2.52 98.13,-2.50 98.54,-2.48 98.92,-2.33 99.31,-2.17 99.62,-1.91 99.93,-1.64 100.15,-1.29 100.36,-0.94 100.45,-0.53 100.53,-0.13 100.49,0.27 100.45,0.68 100.27,1.05 100.10,1.42 99.82,1.72 99.53,2.02 99.17,2.21 98.81,2.41 98.40,2.47 97.99,2.54 97.99,2.54 98,2.54 96.40,2.50 94.81,2.45 93.47,2.34 92.12,2.22 90.82,2.08 89.52,1.93 87.54,1.72 85.55,1.50 83.90,1.42 82.25,1.33 79.71,1.33 77.18,1.34 73.24,1.34 69.30,1.35 64.77,1.36 60.25,1.36 55.68,1.38 51.12,1.39 46.46,1.40 41.81,1.42 37.62,1.44 33.44,1.46 29.00,1.48 24.57,1.51 20.89,1.55 17.22,1.59 13.99,1.64 10.76,1.69 8.58,1.76 6.39,1.83 4.63,1.81 2.87,1.80 1.43,1.72 0,1.64 -0.19,1.61 -0.39,1.59 -0.57,1.52 -0.76,1.45 -0.92,1.34 -1.08,1.22 -1.22,1.08 -1.35,0.93 -1.44,0.75 -1.53,0.58 -1.58,0.39 -1.63,0.19 -1.63,-0.00 -1.63,-0.19 -1.58,-0.39 -1.53,-0.58 -1.44,-0.75 -1.35,-0.93 -1.22,-1.08 -1.08,-1.22 -0.92,-1.34 -0.76,-1.45 -0.57,-1.52 -0.39,-1.59 -0.19,-1.61 0.00,-1.64 0.00,-1.64 L 0,-1.64 Z"></path></g><g transform="translate(143 53) rotate(0 29.5 27)" stroke="none"><path fill="#000000" d="M 1.38,-0.83 Q 1.38,-0.83 2.29,0.57 3.20,1.98 4.35,3.73 5.50,5.47 7.08,7.32 8.67,9.18 10.45,10.80 12.23,12.43 14.17,14.32 16.11,16.21 17.99,17.52 19.87,18.83 21.40,20.35 22.92,21.87 24.61,23.31 26.30,24.75 28.22,26.56 30.13,28.37 32.00,29.64 33.87,30.91 35.61,32.38 37.36,33.86 38.72,35.00 40.08,36.15 41.19,36.80 42.30,37.44 43.47,38.35 44.65,39.25 45.62,39.78 46.59,40.32 47.90,41.16 49.22,42.00 50.46,42.99 51.70,43.97 52.81,44.95 53.93,45.94 55.06,46.66 56.20,47.38 57.49,48.64 58.78,49.91 59.94,51.11 61.10,52.30 61.32,52.69 61.53,53.07 61.61,53.50 61.70,53.92 61.64,54.36 61.58,54.79 61.38,55.18 61.19,55.57 60.88,55.88 60.57,56.19 60.18,56.39 59.79,56.58 59.35,56.64 58.92,56.70 58.49,56.61 58.06,56.53 57.68,56.31 57.30,56.10 57.01,55.77 56.72,55.45 56.54,55.05 56.37,54.64 56.34,54.21 56.30,53.77 56.41,53.35 56.51,52.92 56.75,52.56 56.99,52.19 57.33,51.91 57.67,51.64 58.08,51.49 58.49,51.34 58.93,51.33 59.36,51.32 59.78,51.45 60.20,51.58 60.55,51.83 60.91,52.09 61.16,52.44 61.42,52.80 61.54,53.22 61.67,53.63 61.66,54.07 61.65,54.51 61.50,54.92 61.35,55.33 61.07,55.67 60.80,56.01 60.43,56.24 60.06,56.48 59.64,56.58 59.21,56.69 58.77,56.65 58.34,56.62 57.94,56.44 57.54,56.27 57.21,55.98 56.89,55.68 56.89,55.69 56.89,55.69 55.45,53.71 54.02,51.73 52.48,50.45 50.95,49.17 49.95,48.20 48.96,47.24 47.95,46.34 46.93,45.44 45.66,44.56 44.38,43.67 43.30,42.86 42.23,42.05 41.29,41.13 40.36,40.21 39.22,39.28 38.08,38.35 36.85,37.13 35.63,35.91 33.98,34.53 32.34,33.15 30.30,31.76 28.26,30.37 26.38,28.62 24.51,26.88 22.70,25.37 20.89,23.86 19.58,22.49 18.28,21.12 16.21,19.70 14.14,18.28 12.20,16.45 10.26,14.62 8.32,12.91 6.38,11.20 4.62,9.26 2.86,7.31 1.55,5.53 0.24,3.76 -0.56,2.29 -1.38,0.83 -1.46,0.65 -1.54,0.47 -1.57,0.28 -1.61,0.09 -1.60,-0.10 -1.58,-0.29 -1.53,-0.48 -1.47,-0.66 -1.37,-0.83 -1.26,-1.00 -1.13,-1.13 -0.99,-1.27 -0.82,-1.37 -0.65,-1.47 -0.47,-1.53 -0.28,-1.59 -0.09,-1.60 0.10,-1.61 0.29,-1.57 0.48,-1.54 0.66,-1.46 0.84,-1.38 0.99,-1.25 1.14,-1.13 1.26,-0.98 1.38,-0.83 1.38,-0.83 L 1.38,-0.83 Z"></path></g><g transform="translate(80 118) rotate(0 58 -0.5)" stroke="none"><path fill="#000000" d="M 0,-1.57 Q 0,-1.57 2.01,-1.56 4.02,-1.55 6.89,-1.52 9.76,-1.49 12.70,-1.46 15.64,-1.44 19.14,-1.70 22.63,-1.97 26.48,-2.08 30.32,-2.19 34.25,-2.24 38.18,-2.28 42.73,-2.30 47.28,-2.31 52.95,-2.32 58.62,-2.32 64.47,-2.32 70.33,-2.32 75.99,-2.32 81.64,-2.32 86.34,-2.32 91.04,-2.32 94.19,-2.32 97.34,-2.32 98.97,-2.41 100.59,-2.50 102.56,-2.71 104.53,-2.92 105.83,-3.07 107.12,-3.22 108.69,-3.38 110.25,-3.54 113.12,-3.62 115.99,-3.70 116.43,-3.63 116.86,-3.56 117.25,-3.36 117.63,-3.15 117.94,-2.83 118.24,-2.51 118.42,-2.12 118.60,-1.72 118.65,-1.28 118.70,-0.85 118.61,-0.42 118.51,0.00 118.29,0.37 118.06,0.75 117.73,1.03 117.39,1.32 116.98,1.48 116.58,1.64 116.14,1.66 115.70,1.69 115.28,1.57 114.86,1.45 114.49,1.21 114.13,0.96 113.87,0.61 113.60,0.26 113.46,-0.14 113.32,-0.56 113.32,-1.00 113.32,-1.43 113.46,-1.85 113.60,-2.26 113.87,-2.61 114.13,-2.96 114.50,-3.21 114.86,-3.45 115.28,-3.57 115.70,-3.69 116.14,-3.66 116.58,-3.64 116.98,-3.48 117.39,-3.32 117.73,-3.03 118.06,-2.75 118.29,-2.37 118.51,-2.00 118.61,-1.57 118.70,-1.14 118.65,-0.71 118.60,-0.27 118.42,0.12 118.24,0.52 117.93,0.83 117.63,1.15 117.25,1.36 116.86,1.56 116.43,1.63 115.99,1.70 115.99,1.70 116.00,1.70 113.12,1.62 110.25,1.54 108.69,1.38 107.12,1.22 105.83,1.07 104.53,0.92 102.56,0.71 100.59,0.50 98.97,0.41 97.34,0.32 94.19,0.32 91.04,0.32 86.34,0.32 81.64,0.32 75.99,0.33 70.34,0.33 64.48,0.34 58.62,0.35 52.95,0.36 47.29,0.38 42.75,0.41 38.22,0.43 34.31,0.50 30.41,0.56 26.63,0.69 22.86,0.82 19.25,1.13 15.64,1.44 12.70,1.46 9.76,1.49 6.89,1.52 4.02,1.55 2.01,1.56 0,1.57 -0.18,1.54 -0.37,1.52 -0.55,1.45 -0.73,1.39 -0.88,1.28 -1.04,1.17 -1.16,1.03 -1.29,0.89 -1.38,0.72 -1.46,0.55 -1.51,0.37 -1.56,0.18 -1.56,-0.00 -1.56,-0.18 -1.51,-0.37 -1.46,-0.55 -1.38,-0.72 -1.29,-0.89 -1.16,-1.03 -1.04,-1.17 -0.88,-1.28 -0.73,-1.39 -0.55,-1.45 -0.37,-1.52 -0.18,-1.54 0.00,-1.57 0.00,-1.57 L 0,-1.57 Z"></path></g><g transform="translate(39 173) rotate(0 1.5 30)" stroke="none"><path fill="#000000" d="M 2.09,0 Q 2.09,0 2.13,1.43 2.16,2.86 2.85,5.44 3.55,8.02 3.70,10.04 3.84,12.06 4.18,13.58 4.52,15.11 4.65,17.10 4.79,19.09 4.81,21.08 4.83,23.07 4.87,24.77 4.92,26.47 4.96,28.06 5.00,29.65 5.03,31.18 5.07,32.72 5.10,34.24 5.13,35.75 5.15,37.26 5.17,38.77 5.22,39.98 5.28,41.20 5.30,42.58 5.33,43.96 5.37,45.12 5.41,46.28 5.45,47.36 5.49,48.44 5.20,49.80 4.90,51.16 4.83,52.24 4.75,53.32 4.77,54.73 4.78,56.14 4.29,58.40 3.79,60.67 3.61,61.10 3.43,61.53 3.12,61.88 2.81,62.23 2.41,62.46 2.00,62.69 1.55,62.78 1.09,62.87 0.63,62.81 0.17,62.75 -0.24,62.55 -0.66,62.34 -0.99,62.02 -1.32,61.69 -1.53,61.27 -1.74,60.86 -1.81,60.40 -1.87,59.93 -1.79,59.48 -1.70,59.02 -1.48,58.61 -1.25,58.20 -0.90,57.89 -0.56,57.58 -0.13,57.39 0.28,57.20 0.75,57.16 1.21,57.12 1.66,57.23 2.12,57.34 2.51,57.59 2.91,57.84 3.20,58.20 3.49,58.56 3.66,59.00 3.82,59.44 3.83,59.90 3.85,60.37 3.72,60.81 3.58,61.26 3.31,61.64 3.04,62.02 2.67,62.29 2.29,62.57 1.84,62.71 1.40,62.85 0.93,62.84 0.47,62.83 0.03,62.67 -0.40,62.51 -0.76,62.22 -1.13,61.93 -1.38,61.54 -1.63,61.15 -1.75,60.70 -1.86,60.24 -1.83,59.78 -1.79,59.32 -1.79,59.32 -1.79,59.32 -1.25,57.63 -0.71,55.95 -0.55,54.39 -0.39,52.83 -0.22,51.31 -0.05,49.79 0.26,48.03 0.58,46.28 0.62,45.12 0.66,43.96 0.69,42.58 0.71,41.20 0.76,39.98 0.81,38.77 0.84,37.26 0.86,35.76 0.88,34.25 0.91,32.73 0.93,31.21 0.96,29.68 0.97,28.11 0.99,26.54 0.98,24.87 0.97,23.20 0.86,21.31 0.75,19.43 0.57,17.72 0.40,16.00 0.02,14.23 -0.36,12.46 -0.56,10.77 -0.76,9.08 -1.19,7.43 -1.63,5.78 -1.89,4.33 -2.16,2.88 -2.13,1.44 -2.09,0 -2.06,-0.25 -2.03,-0.50 -1.94,-0.73 -1.85,-0.97 -1.71,-1.18 -1.57,-1.39 -1.38,-1.55 -1.19,-1.72 -0.96,-1.84 -0.74,-1.96 -0.49,-2.02 -0.25,-2.08 0.00,-2.08 0.25,-2.08 0.49,-2.02 0.74,-1.96 0.96,-1.84 1.19,-1.72 1.38,-1.55 1.57,-1.39 1.71,-1.18 1.85,-0.97 1.94,-0.73 2.03,-0.50 2.06,-0.25 2.09,0.00 2.09,0.00 L 2.09,0 Z"></path></g><g transform="translate(38 179) rotate(0 12 -1.5)" stroke="none"><path fill="#000000" d="M -0.39,-2.39 Q -0.39,-2.39 1.33,-2.62 3.06,-2.86 5.07,-2.93 7.07,-2.99 9.06,-2.98 11.04,-2.96 12.76,-3.52 14.48,-4.08 15.78,-4.28 17.08,-4.49 18.89,-5.11 20.70,-5.73 22.31,-5.80 23.92,-5.88 24.38,-5.81 24.85,-5.75 25.26,-5.54 25.68,-5.33 26.01,-5.00 26.34,-4.67 26.55,-4.25 26.75,-3.84 26.82,-3.37 26.88,-2.91 26.79,-2.45 26.70,-2.00 26.47,-1.59 26.24,-1.18 25.89,-0.87 25.54,-0.56 25.11,-0.38 24.69,-0.19 24.22,-0.16 23.76,-0.12 23.30,-0.23 22.85,-0.35 22.46,-0.60 22.06,-0.85 21.77,-1.22 21.48,-1.58 21.32,-2.02 21.16,-2.46 21.15,-2.92 21.14,-3.39 21.28,-3.84 21.41,-4.28 21.69,-4.66 21.96,-5.04 22.34,-5.31 22.72,-5.58 23.17,-5.72 23.61,-5.85 24.08,-5.84 24.54,-5.83 24.98,-5.66 25.42,-5.50 25.78,-5.21 26.15,-4.92 26.40,-4.52 26.65,-4.13 26.76,-3.68 26.87,-3.22 26.83,-2.76 26.79,-2.29 26.61,-1.86 26.42,-1.44 26.11,-1.09 25.80,-0.74 25.39,-0.51 24.98,-0.29 24.53,-0.20 24.07,-0.11 24.07,-0.11 24.07,-0.11 21.56,0.05 19.05,0.23 17.68,0.36 16.31,0.50 15.12,0.52 13.93,0.55 12.55,0.83 11.18,1.11 9.27,1.23 7.35,1.35 5.59,1.53 3.83,1.71 2.11,2.05 0.39,2.39 0.10,2.40 -0.18,2.41 -0.47,2.35 -0.75,2.30 -1.02,2.17 -1.28,2.05 -1.51,1.86 -1.74,1.68 -1.91,1.45 -2.09,1.22 -2.20,0.95 -2.32,0.68 -2.37,0.39 -2.42,0.10 -2.39,-0.18 -2.37,-0.47 -2.28,-0.75 -2.19,-1.03 -2.03,-1.27 -1.88,-1.52 -1.67,-1.72 -1.46,-1.93 -1.21,-2.07 -0.95,-2.22 -0.67,-2.30 -0.39,-2.39 -0.39,-2.39 L -0.39,-2.39 Z"></path></g><g transform="translate(62 176) rotate(0 4 30)" stroke="none"><path fill="#000000" d="M 1.95,-0.24 Q 1.95,-0.24 2.15,2.06 2.35,4.37 2.48,6.26 2.61,8.16 2.64,10.12 2.68,12.09 2.68,14.08 2.68,16.06 2.72,17.77 2.77,19.47 2.77,21.35 2.77,23.22 3.08,24.72 3.39,26.23 3.56,27.88 3.74,29.53 4.05,31.24 4.36,32.96 4.79,34.52 5.23,36.09 5.50,37.45 5.77,38.82 5.92,40.00 6.08,41.18 6.63,42.82 7.19,44.47 7.39,45.77 7.58,47.07 8.10,48.73 8.62,50.39 8.77,51.72 8.92,53.06 9.36,54.27 9.80,55.48 10.42,57.22 11.04,58.97 11.12,59.48 11.20,59.99 11.12,60.51 11.04,61.02 10.79,61.48 10.55,61.94 10.17,62.29 9.80,62.65 9.33,62.87 8.85,63.09 8.34,63.14 7.82,63.20 7.32,63.09 6.81,62.98 6.36,62.71 5.92,62.44 5.58,62.05 5.25,61.65 5.05,61.17 4.86,60.69 4.83,60.17 4.80,59.65 4.94,59.15 5.08,58.65 5.37,58.22 5.66,57.79 6.08,57.47 6.49,57.16 6.98,56.99 7.47,56.83 7.99,56.83 8.51,56.83 9.01,56.99 9.50,57.16 9.91,57.47 10.32,57.79 10.62,58.22 10.91,58.65 11.05,59.15 11.19,59.65 11.16,60.17 11.13,60.68 10.94,61.17 10.75,61.65 10.41,62.04 10.07,62.44 9.63,62.71 9.18,62.98 8.68,63.09 8.17,63.20 7.65,63.14 7.14,63.09 6.67,62.87 6.19,62.65 5.82,62.29 5.44,61.94 5.20,61.48 4.95,61.02 4.95,61.02 4.95,61.02 4.18,58.62 3.41,56.22 3.21,54.76 3.00,53.30 3.06,51.93 3.13,50.57 2.76,48.46 2.38,46.35 2.34,45.24 2.30,44.12 1.99,41.77 1.68,39.41 1.58,38.24 1.48,37.07 1.05,35.37 0.62,33.66 0.26,31.75 -0.10,29.83 -0.17,28.35 -0.24,26.86 -0.51,25.05 -0.78,23.23 -0.79,21.36 -0.80,19.49 -0.77,17.80 -0.74,16.10 -0.79,14.14 -0.83,12.19 -0.90,10.29 -0.97,8.39 -1.08,6.61 -1.20,4.82 -1.57,2.53 -1.95,0.24 -1.95,0.00 -1.95,-0.23 -1.89,-0.46 -1.84,-0.69 -1.73,-0.90 -1.62,-1.11 -1.46,-1.29 -1.31,-1.46 -1.11,-1.60 -0.92,-1.73 -0.69,-1.82 -0.47,-1.90 -0.24,-1.93 -0.00,-1.96 0.22,-1.94 0.46,-1.91 0.68,-1.82 0.90,-1.74 1.10,-1.61 1.30,-1.47 1.45,-1.30 1.61,-1.12 1.72,-0.91 1.83,-0.70 1.89,-0.47 1.95,-0.24 1.95,-0.24 L 1.95,-0.24 Z"></path></g><g transform="translate(118 161) rotate(0 29 21.5)" stroke="none"><path fill="#000000" d="M 1.77,0 Q 1.77,0 1.73,2.01 1.70,4.02 1.95,5.91 2.20,7.80 2.31,9.87 2.43,11.94 2.44,14.26 2.45,16.58 2.44,19.00 2.44,21.42 2.42,23.88 2.41,26.35 2.40,28.84 2.39,31.32 2.42,33.24 2.46,35.16 2.56,36.55 2.67,37.94 2.76,39.11 2.86,40.27 6.76,40.61 10.65,40.96 14.20,41.07 17.75,41.18 21.49,40.97 25.24,40.75 28.62,40.68 31.99,40.61 34.79,40.31 37.59,40.01 40.29,39.89 43.00,39.76 45.58,39.72 48.17,39.68 50.42,39.66 52.67,39.65 55.33,39.53 57.99,39.41 58.24,39.45 58.49,39.49 58.72,39.61 58.95,39.73 59.13,39.91 59.30,40.10 59.41,40.33 59.52,40.56 59.55,40.82 59.58,41.07 59.53,41.32 59.47,41.57 59.34,41.79 59.21,42.02 59.02,42.18 58.82,42.35 58.58,42.45 58.34,42.54 58.09,42.56 57.83,42.57 57.58,42.51 57.34,42.44 57.12,42.30 56.91,42.15 56.75,41.95 56.60,41.75 56.51,41.50 56.43,41.26 56.43,41.00 56.43,40.75 56.51,40.50 56.59,40.26 56.74,40.05 56.90,39.85 57.11,39.70 57.32,39.56 57.57,39.49 57.81,39.42 58.07,39.43 58.33,39.44 58.57,39.54 58.81,39.63 59.00,39.80 59.20,39.96 59.33,40.18 59.47,40.40 59.52,40.65 59.58,40.90 59.55,41.16 59.53,41.41 59.42,41.64 59.31,41.88 59.14,42.07 58.96,42.25 58.74,42.37 58.51,42.50 58.26,42.54 58.00,42.58 58.00,42.58 58.00,42.58 55.35,42.50 52.70,42.42 50.47,42.45 48.24,42.49 45.69,42.57 43.15,42.65 40.55,42.81 37.94,42.98 35.02,43.35 32.10,43.73 28.79,43.89 25.48,44.05 21.60,44.40 17.72,44.74 14.15,44.80 10.58,44.86 7.53,44.91 4.49,44.96 2.42,44.54 0.34,44.12 -0.26,42.20 -0.86,40.27 -0.77,39.11 -0.67,37.94 -0.57,36.55 -0.47,35.16 -0.43,33.24 -0.40,31.33 -0.42,28.84 -0.44,26.36 -0.47,23.90 -0.50,21.45 -0.55,19.05 -0.61,16.65 -0.70,14.39 -0.79,12.13 -0.92,10.20 -1.05,8.26 -1.38,6.14 -1.70,4.02 -1.73,2.01 -1.77,0 -1.74,-0.21 -1.71,-0.42 -1.64,-0.62 -1.56,-0.82 -1.44,-0.99 -1.32,-1.17 -1.16,-1.31 -1.00,-1.45 -0.81,-1.55 -0.62,-1.65 -0.42,-1.70 -0.21,-1.75 0.00,-1.75 0.21,-1.75 0.42,-1.70 0.62,-1.65 0.81,-1.55 1.00,-1.45 1.16,-1.31 1.32,-1.17 1.44,-0.99 1.56,-0.82 1.64,-0.62 1.71,-0.42 1.74,-0.21 1.77,0.00 1.77,0.00 L 1.77,0 Z"></path></g><g transform="translate(173 159) rotate(0 2 21.5)" stroke="none"><path fill="#000000" d="M 2.01,-0.25 Q 2.01,-0.25 2.20,2.06 2.40,4.37 2.52,6.26 2.64,8.15 2.76,9.53 2.89,10.91 2.91,12.67 2.94,14.42 2.92,16.31 2.90,18.20 2.82,20.44 2.75,22.68 2.76,24.50 2.77,26.31 3.08,27.78 3.39,29.26 3.60,30.59 3.81,31.93 4.26,33.41 4.71,34.90 5.27,36.35 5.83,37.79 6.20,40.33 6.58,42.87 6.54,43.28 6.49,43.70 6.31,44.08 6.13,44.46 5.84,44.76 5.55,45.07 5.18,45.26 4.81,45.45 4.40,45.52 3.98,45.59 3.57,45.52 3.16,45.45 2.79,45.25 2.42,45.05 2.13,44.75 1.84,44.44 1.67,44.06 1.49,43.68 1.45,43.26 1.41,42.84 1.50,42.43 1.59,42.03 1.81,41.67 2.03,41.31 2.35,41.04 2.67,40.77 3.06,40.61 3.45,40.46 3.87,40.44 4.29,40.42 4.69,40.53 5.09,40.65 5.44,40.88 5.79,41.12 6.04,41.46 6.29,41.79 6.42,42.19 6.55,42.59 6.55,43.01 6.55,43.43 6.42,43.82 6.28,44.22 6.02,44.55 5.77,44.88 5.42,45.12 5.07,45.35 4.67,45.46 4.26,45.57 3.84,45.55 3.43,45.52 3.04,45.37 2.65,45.21 2.33,44.94 2.01,44.66 1.80,44.30 1.58,43.94 1.49,43.53 1.41,43.12 1.41,43.12 1.41,43.12 1.28,41.38 1.15,39.64 0.75,38.00 0.36,36.35 0.09,34.33 -0.17,32.31 -0.21,31.11 -0.25,29.90 -0.51,28.11 -0.78,26.32 -0.77,24.50 -0.76,22.69 -0.84,20.45 -0.93,18.22 -0.97,16.34 -1.01,14.47 -1.02,12.77 -1.04,11.06 -1.02,9.73 -1.00,8.40 -1.12,6.61 -1.25,4.82 -1.63,2.53 -2.01,0.25 -2.01,0.00 -2.01,-0.23 -1.95,-0.47 -1.90,-0.71 -1.78,-0.93 -1.67,-1.14 -1.51,-1.33 -1.35,-1.51 -1.15,-1.65 -0.95,-1.79 -0.72,-1.88 -0.49,-1.97 -0.25,-2.00 -0.00,-2.03 0.23,-2.00 0.47,-1.97 0.70,-1.88 0.93,-1.80 1.13,-1.66 1.34,-1.52 1.50,-1.34 1.66,-1.15 1.78,-0.94 1.89,-0.72 1.95,-0.48 2.01,-0.25 2.01,-0.25 L 2.01,-0.25 Z"></path></g><g transform="translate(115 164) rotate(0 30 0.5)" stroke="none"><path fill="#000000" d="M 0,-1.62 Q 0,-1.62 2.58,-1.58 5.17,-1.54 8.28,-1.51 11.39,-1.48 15.02,-1.45 18.64,-1.43 22.25,-1.12 25.86,-0.82 29.06,-0.68 32.27,-0.55 35.06,-0.49 37.86,-0.43 40.49,-0.40 43.11,-0.37 45.38,-0.36 47.65,-0.35 49.47,-0.40 51.30,-0.46 52.36,-0.57 53.43,-0.69 55.18,-0.87 56.93,-1.06 58.46,-1.11 60.00,-1.17 60.34,-1.11 60.69,-1.05 61.00,-0.89 61.31,-0.72 61.55,-0.47 61.79,-0.21 61.94,0.10 62.09,0.41 62.12,0.76 62.16,1.11 62.09,1.46 62.01,1.80 61.83,2.10 61.65,2.40 61.38,2.63 61.11,2.85 60.79,2.98 60.46,3.11 60.11,3.13 59.76,3.15 59.42,3.06 59.08,2.96 58.79,2.77 58.50,2.57 58.29,2.29 58.08,2.01 57.97,1.68 57.85,1.35 57.85,0.99 57.85,0.64 57.97,0.31 58.08,-0.01 58.29,-0.29 58.50,-0.57 58.79,-0.77 59.08,-0.96 59.42,-1.06 59.76,-1.15 60.11,-1.13 60.46,-1.11 60.79,-0.98 61.11,-0.85 61.38,-0.63 61.65,-0.40 61.83,-0.10 62.01,0.19 62.09,0.54 62.16,0.88 62.12,1.23 62.09,1.58 61.94,1.89 61.79,2.21 61.55,2.47 61.31,2.72 61.00,2.89 60.69,3.05 60.34,3.11 59.99,3.17 59.99,3.17 59.99,3.17 58.46,3.11 56.92,3.06 55.17,2.87 53.42,2.69 52.36,2.57 51.29,2.45 49.46,2.38 47.64,2.32 45.36,2.31 43.09,2.31 40.45,2.29 37.81,2.28 34.99,2.23 32.16,2.19 28.90,2.08 25.63,1.97 22.14,1.70 18.64,1.43 15.02,1.45 11.39,1.48 8.28,1.51 5.17,1.54 2.58,1.58 0,1.62 -0.19,1.60 -0.38,1.58 -0.57,1.51 -0.75,1.44 -0.91,1.33 -1.08,1.21 -1.21,1.07 -1.34,0.92 -1.43,0.75 -1.52,0.57 -1.57,0.38 -1.61,0.19 -1.61,-0.00 -1.61,-0.19 -1.57,-0.38 -1.52,-0.57 -1.43,-0.75 -1.34,-0.92 -1.21,-1.07 -1.08,-1.21 -0.91,-1.33 -0.75,-1.44 -0.57,-1.51 -0.38,-1.58 -0.19,-1.60 0.00,-1.62 0.00,-1.62 L 0,-1.62 Z"></path></g><g transform="translate(117 185) rotate(0 29.5 0)" stroke="none"><path fill="#000000" d="M 0,-1.63 Q 0,-1.63 1.72,-1.67 3.44,-1.72 5.33,-1.72 7.21,-1.72 9.16,-1.71 11.11,-1.69 13.38,-1.64 15.64,-1.59 18.33,-1.55 21.02,-1.51 24.18,-1.48 27.33,-1.46 31.26,-1.44 35.19,-1.42 38.29,-1.40 41.40,-1.39 43.87,-1.38 46.34,-1.37 47.97,-1.45 49.59,-1.54 51.27,-1.74 52.96,-1.94 54.08,-2.08 55.20,-2.22 57.10,-2.26 59,-2.31 59.36,-2.25 59.73,-2.19 60.07,-2.01 60.40,-1.84 60.65,-1.57 60.91,-1.29 61.07,-0.95 61.23,-0.61 61.27,-0.24 61.31,0.12 61.23,0.49 61.15,0.85 60.95,1.17 60.76,1.49 60.47,1.74 60.19,1.98 59.84,2.12 59.49,2.26 59.12,2.28 58.74,2.30 58.38,2.20 58.02,2.10 57.71,1.89 57.40,1.68 57.18,1.38 56.95,1.08 56.83,0.72 56.71,0.37 56.71,-0.00 56.71,-0.37 56.83,-0.73 56.95,-1.08 57.18,-1.38 57.40,-1.68 57.71,-1.89 58.02,-2.10 58.38,-2.20 58.75,-2.30 59.12,-2.28 59.49,-2.26 59.84,-2.12 60.19,-1.98 60.48,-1.74 60.76,-1.49 60.95,-1.17 61.15,-0.85 61.23,-0.49 61.31,-0.12 61.27,0.24 61.23,0.62 61.07,0.96 60.91,1.30 60.65,1.57 60.40,1.84 60.07,2.01 59.73,2.19 59.36,2.25 58.99,2.31 58.99,2.31 59,2.31 57.10,2.26 55.20,2.22 54.08,2.08 52.96,1.94 51.27,1.74 49.59,1.54 47.97,1.45 46.34,1.37 43.87,1.38 41.40,1.39 38.29,1.40 35.19,1.42 31.26,1.44 27.33,1.46 24.18,1.48 21.02,1.51 18.33,1.55 15.64,1.59 13.38,1.64 11.11,1.69 9.16,1.71 7.21,1.72 5.33,1.72 3.44,1.72 1.72,1.67 0,1.63 -0.19,1.61 -0.39,1.58 -0.57,1.51 -0.76,1.44 -0.92,1.33 -1.08,1.22 -1.21,1.07 -1.34,0.92 -1.43,0.75 -1.53,0.58 -1.57,0.38 -1.62,0.19 -1.62,-0.00 -1.62,-0.19 -1.57,-0.38 -1.53,-0.58 -1.43,-0.75 -1.34,-0.92 -1.21,-1.07 -1.08,-1.22 -0.92,-1.33 -0.76,-1.44 -0.57,-1.51 -0.39,-1.58 -0.19,-1.61 0.00,-1.63 0.00,-1.63 L 0,-1.63 Z"></path></g><g transform="translate(144 165) rotate(0 2 16.5)" stroke="none"><path fill="#000000" d="M 2.43,0 Q 2.43,0 2.46,1.13 2.49,2.27 2.96,4.22 3.43,6.17 3.50,7.56 3.56,8.96 3.82,10.16 4.08,11.35 4.17,13.28 4.26,15.21 4.58,16.32 4.89,17.42 5.30,18.80 5.71,20.17 6.11,22.27 6.51,24.37 6.64,25.72 6.77,27.07 6.84,28.14 6.91,29.22 6.94,31.11 6.97,32.99 6.89,33.47 6.81,33.94 6.59,34.37 6.36,34.79 6.01,35.12 5.66,35.45 5.23,35.66 4.79,35.86 4.31,35.91 3.84,35.96 3.37,35.86 2.90,35.75 2.48,35.51 2.07,35.26 1.76,34.89 1.45,34.53 1.27,34.08 1.09,33.63 1.07,33.15 1.04,32.67 1.17,32.21 1.30,31.75 1.57,31.35 1.84,30.95 2.22,30.66 2.60,30.37 3.06,30.22 3.51,30.06 3.99,30.06 4.47,30.06 4.93,30.22 5.39,30.37 5.77,30.66 6.15,30.95 6.42,31.35 6.69,31.75 6.82,32.21 6.95,32.67 6.92,33.15 6.90,33.63 6.72,34.08 6.54,34.53 6.23,34.89 5.92,35.26 5.51,35.51 5.09,35.75 4.63,35.86 4.16,35.96 3.68,35.91 3.20,35.86 2.76,35.66 2.33,35.45 1.98,35.12 1.63,34.79 1.41,34.37 1.18,33.94 1.10,33.47 1.02,33.00 1.02,33.00 1.02,33.00 1.10,30.10 1.18,27.20 1.21,26.00 1.25,24.80 1.12,23.20 0.99,21.61 0.54,20.14 0.08,18.67 -0.28,17.13 -0.65,15.60 -0.82,14.03 -1.00,12.46 -1.36,10.82 -1.71,9.19 -1.81,7.14 -1.90,5.09 -2.20,3.70 -2.49,2.32 -2.46,1.16 -2.43,0 -2.39,-0.29 -2.36,-0.58 -2.25,-0.85 -2.15,-1.13 -1.98,-1.37 -1.82,-1.61 -1.60,-1.80 -1.38,-2.00 -1.12,-2.13 -0.86,-2.27 -0.57,-2.34 -0.29,-2.41 0.00,-2.41 0.29,-2.41 0.57,-2.34 0.86,-2.27 1.12,-2.13 1.38,-2.00 1.60,-1.80 1.82,-1.61 1.98,-1.37 2.15,-1.12 2.25,-0.85 2.36,-0.58 2.39,-0.29 2.43,0.00 2.43,0.00 L 2.43,0 Z"></path></g><g transform="translate(131 27) rotate(0 2 15)" stroke="none"><path fill="#000000" d="M 2.48,-0.41 Q 2.48,-0.41 2.71,1.31 2.94,3.05 3.30,4.55 3.66,6.05 3.89,7.43 4.12,8.80 4.71,10.94 5.30,13.08 5.41,14.20 5.52,15.32 5.62,17.39 5.72,19.45 6.16,21.31 6.61,23.17 6.76,24.59 6.90,26.01 6.95,28.00 6.99,29.98 6.91,30.46 6.83,30.94 6.61,31.37 6.38,31.80 6.03,32.13 5.68,32.47 5.24,32.67 4.81,32.88 4.32,32.93 3.84,32.98 3.37,32.88 2.90,32.78 2.48,32.53 2.07,32.28 1.75,31.91 1.44,31.55 1.26,31.10 1.08,30.65 1.05,30.16 1.02,29.68 1.15,29.21 1.28,28.75 1.55,28.35 1.82,27.94 2.20,27.65 2.58,27.36 3.04,27.20 3.50,27.04 3.99,27.04 4.47,27.04 4.93,27.19 5.39,27.35 5.77,27.64 6.16,27.93 6.43,28.33 6.71,28.73 6.84,29.20 6.97,29.66 6.94,30.15 6.92,30.63 6.74,31.08 6.56,31.53 6.25,31.90 5.94,32.27 5.53,32.52 5.11,32.77 4.64,32.88 4.17,32.98 3.68,32.93 3.20,32.88 2.76,32.68 2.32,32.48 1.97,32.14 1.62,31.81 1.39,31.39 1.16,30.96 1.08,30.48 1.00,30.00 1.00,30.00 1.00,30.01 1.02,27.58 1.04,25.15 0.96,23.72 0.89,22.29 0.56,20.93 0.24,19.57 0.26,17.61 0.28,15.66 0.19,13.89 0.10,12.12 -0.26,10.80 -0.64,9.48 -0.75,8.35 -0.87,7.22 -1.33,5.53 -1.79,3.84 -2.14,2.13 -2.48,0.41 -2.50,0.11 -2.51,-0.19 -2.45,-0.49 -2.39,-0.78 -2.26,-1.06 -2.13,-1.33 -1.94,-1.57 -1.75,-1.81 -1.51,-1.99 -1.26,-2.17 -0.99,-2.29 -0.71,-2.41 -0.41,-2.46 -0.11,-2.51 0.19,-2.49 0.49,-2.47 0.78,-2.37 1.07,-2.28 1.32,-2.12 1.58,-1.95 1.79,-1.74 2.00,-1.52 2.16,-1.26 2.31,-0.99 2.40,-0.70 2.48,-0.41 2.48,-0.41 L 2.48,-0.41 Z"></path></g><g transform="translate(160 31) rotate(0 2.5 24)" stroke="none"><path fill="#000000" d="M 2.08,0 Q 2.08,0 2.12,1.43 2.15,2.86 2.54,5.92 2.92,8.99 2.91,11.01 2.89,13.02 2.86,15.03 2.83,17.03 2.86,18.75 2.89,20.46 2.87,22.34 2.86,24.21 3.16,25.71 3.45,27.21 3.65,28.56 3.85,29.91 3.95,31.37 4.05,32.84 4.10,34.31 4.15,35.79 4.67,37.95 5.19,40.12 5.58,41.47 5.98,42.83 6.78,44.97 7.58,47.12 7.66,47.55 7.73,47.99 7.66,48.43 7.59,48.86 7.38,49.26 7.17,49.65 6.85,49.95 6.53,50.26 6.13,50.44 5.73,50.63 5.29,50.68 4.85,50.73 4.42,50.63 3.99,50.54 3.61,50.31 3.23,50.08 2.94,49.74 2.65,49.41 2.49,49.00 2.33,48.59 2.30,48.15 2.28,47.70 2.39,47.28 2.51,46.85 2.76,46.48 3.01,46.12 3.36,45.85 3.71,45.58 4.13,45.44 4.55,45.30 4.99,45.30 5.43,45.30 5.85,45.44 6.27,45.58 6.62,45.84 6.98,46.11 7.23,46.48 7.47,46.84 7.59,47.27 7.71,47.70 7.69,48.14 7.67,48.58 7.50,48.99 7.34,49.40 7.05,49.74 6.77,50.08 6.39,50.30 6.01,50.53 5.58,50.63 5.15,50.72 4.71,50.68 4.27,50.63 3.87,50.45 3.46,50.26 3.14,49.96 2.82,49.65 2.61,49.26 2.41,48.87 2.41,48.87 2.41,48.87 1.75,46.70 1.09,44.52 0.76,43.31 0.42,42.09 0.38,40.43 0.33,38.78 0.05,37.33 -0.22,35.88 -0.21,34.44 -0.21,32.99 -0.21,31.65 -0.22,30.30 -0.26,29.08 -0.31,27.87 -0.59,26.05 -0.87,24.23 -0.89,22.36 -0.92,20.48 -0.91,18.78 -0.90,17.07 -0.97,15.10 -1.05,13.13 -1.16,11.19 -1.28,9.26 -1.45,7.51 -1.62,5.77 -1.89,4.33 -2.15,2.88 -2.12,1.44 -2.08,0 -2.05,-0.24 -2.02,-0.49 -1.93,-0.73 -1.84,-0.96 -1.70,-1.17 -1.56,-1.38 -1.37,-1.54 -1.18,-1.71 -0.96,-1.83 -0.73,-1.94 -0.49,-2.00 -0.25,-2.06 0.00,-2.06 0.25,-2.06 0.49,-2.00 0.73,-1.94 0.96,-1.83 1.18,-1.71 1.37,-1.54 1.56,-1.38 1.70,-1.17 1.84,-0.96 1.93,-0.73 2.02,-0.49 2.05,-0.24 2.08,0.00 2.08,0.00 L 2.08,0 Z"></path></g><g transform="translate(119 27) rotate(0 28 4)" stroke="none"><path fill="#000000" d="M 0,-1.67 Q 0,-1.67 1.43,-1.75 2.87,-1.82 5.04,-1.47 7.21,-1.12 9.81,-0.66 12.41,-0.19 15.51,0.30 18.61,0.80 22.22,1.31 25.83,1.82 30.00,2.63 34.16,3.44 37.91,4.07 41.65,4.70 44.64,4.97 47.62,5.24 49.47,5.30 51.32,5.36 53.87,5.90 56.42,6.44 56.65,6.55 56.89,6.66 57.08,6.84 57.27,7.01 57.39,7.24 57.52,7.47 57.56,7.73 57.60,7.99 57.56,8.24 57.52,8.50 57.40,8.73 57.28,8.96 57.09,9.14 56.91,9.32 56.67,9.43 56.43,9.54 56.18,9.57 55.92,9.60 55.66,9.55 55.41,9.49 55.18,9.36 54.96,9.23 54.79,9.03 54.62,8.83 54.52,8.59 54.43,8.35 54.41,8.09 54.39,7.83 54.46,7.58 54.53,7.33 54.68,7.11 54.82,6.90 55.03,6.74 55.23,6.58 55.48,6.49 55.73,6.41 55.99,6.41 56.25,6.41 56.49,6.49 56.74,6.57 56.95,6.73 57.16,6.88 57.30,7.10 57.45,7.31 57.52,7.56 57.59,7.81 57.58,8.07 57.57,8.33 57.47,8.57 57.38,8.82 57.21,9.02 57.04,9.21 56.82,9.35 56.60,9.49 56.35,9.54 56.09,9.60 55.83,9.57 55.57,9.55 55.57,9.55 55.57,9.55 53.36,8.92 51.15,8.30 49.27,8.13 47.38,7.97 44.29,7.72 41.20,7.46 37.41,6.85 33.63,6.24 29.54,5.49 25.44,4.74 21.80,4.28 18.17,3.82 15.04,3.40 11.91,2.98 9.32,2.63 6.73,2.27 4.80,2.05 2.87,1.82 1.43,1.75 0,1.67 -0.20,1.65 -0.40,1.62 -0.58,1.55 -0.77,1.48 -0.94,1.36 -1.11,1.25 -1.24,1.10 -1.37,0.95 -1.47,0.77 -1.56,0.59 -1.61,0.39 -1.66,0.20 -1.66,-0.00 -1.66,-0.20 -1.61,-0.39 -1.56,-0.59 -1.47,-0.77 -1.37,-0.95 -1.24,-1.10 -1.11,-1.25 -0.94,-1.36 -0.77,-1.48 -0.58,-1.55 -0.40,-1.62 -0.20,-1.65 0.00,-1.67 0.00,-1.67 L 0,-1.67 Z"></path></g><g transform="translate(176 12) rotate(0 0 12.5)" stroke="none"><path fill="#000000" d="M 2.44,0 Q 2.44,0 2.32,2.01 2.21,4.02 2.09,6.31 1.97,8.61 2.04,9.87 2.10,11.13 2.16,12.24 2.23,13.35 2.35,14.72 2.47,16.09 2.56,17.16 2.65,18.23 2.75,19.74 2.86,21.25 2.89,23.12 2.91,25 2.84,25.46 2.76,25.93 2.54,26.34 2.32,26.76 1.98,27.09 1.63,27.41 1.20,27.61 0.78,27.81 0.31,27.86 -0.15,27.91 -0.61,27.81 -1.08,27.71 -1.48,27.46 -1.88,27.22 -2.19,26.86 -2.50,26.50 -2.67,26.06 -2.84,25.62 -2.87,25.15 -2.90,24.68 -2.77,24.22 -2.64,23.77 -2.38,23.38 -2.11,22.99 -1.74,22.70 -1.36,22.42 -0.91,22.27 -0.47,22.12 0.00,22.12 0.47,22.12 0.91,22.27 1.36,22.42 1.74,22.70 2.11,22.99 2.38,23.38 2.64,23.77 2.77,24.23 2.90,24.68 2.87,25.15 2.84,25.62 2.67,26.06 2.49,26.50 2.19,26.86 1.88,27.22 1.48,27.46 1.07,27.71 0.61,27.81 0.15,27.91 -0.31,27.86 -0.78,27.81 -1.20,27.61 -1.63,27.41 -1.98,27.08 -2.32,26.76 -2.54,26.34 -2.76,25.93 -2.84,25.46 -2.91,24.99 -2.91,24.99 -2.91,25 -2.89,23.12 -2.86,21.25 -2.75,19.74 -2.65,18.23 -2.56,17.16 -2.47,16.09 -2.35,14.72 -2.23,13.35 -2.16,12.24 -2.10,11.13 -2.04,9.87 -1.97,8.61 -2.09,6.31 -2.21,4.02 -2.32,2.01 -2.44,0 -2.40,-0.29 -2.37,-0.58 -2.26,-0.85 -2.16,-1.13 -1.99,-1.37 -1.82,-1.61 -1.60,-1.81 -1.38,-2.01 -1.12,-2.14 -0.86,-2.28 -0.58,-2.35 -0.29,-2.42 0.00,-2.42 0.29,-2.42 0.58,-2.35 0.86,-2.28 1.12,-2.14 1.38,-2.00 1.60,-1.81 1.82,-1.61 1.99,-1.37 2.16,-1.13 2.26,-0.85 2.37,-0.58 2.40,-0.29 2.44,0.00 2.44,0.00 L 2.44,0 Z"></path></g><g transform="translate(117 11) rotate(0 0.5 7.5)" stroke="none"><path fill="#000000" d="M 2.54,0 Q 2.54,0 2.48,1.72 2.42,3.44 2.44,4.75 2.46,6.06 2.49,7.18 2.53,8.30 2.99,9.88 3.46,11.47 3.60,13.18 3.74,14.88 3.69,15.33 3.64,15.77 3.44,16.17 3.25,16.57 2.94,16.89 2.63,17.21 2.23,17.41 1.84,17.61 1.40,17.68 0.96,17.75 0.52,17.67 0.08,17.59 -0.30,17.38 -0.69,17.16 -0.99,16.84 -1.29,16.51 -1.47,16.10 -1.66,15.70 -1.70,15.25 -1.74,14.81 -1.64,14.38 -1.54,13.94 -1.30,13.56 -1.07,13.19 -0.72,12.90 -0.38,12.62 0.02,12.46 0.44,12.30 0.89,12.28 1.33,12.26 1.76,12.39 2.18,12.51 2.55,12.77 2.91,13.02 3.18,13.38 3.44,13.74 3.58,14.16 3.72,14.59 3.71,15.03 3.70,15.48 3.56,15.90 3.41,16.32 3.13,16.67 2.86,17.02 2.49,17.26 2.12,17.51 1.69,17.62 1.25,17.73 0.81,17.70 0.37,17.67 -0.03,17.50 -0.45,17.33 -0.78,17.04 -1.12,16.75 -1.34,16.36 -1.57,15.98 -1.65,15.54 -1.74,15.11 -1.74,15.11 -1.74,15.11 -1.84,13.11 -1.93,11.12 -2.23,9.73 -2.53,8.35 -2.49,7.20 -2.46,6.06 -2.44,4.75 -2.42,3.44 -2.48,1.72 -2.54,0 -2.50,-0.30 -2.46,-0.60 -2.35,-0.89 -2.25,-1.18 -2.07,-1.43 -1.90,-1.68 -1.67,-1.88 -1.44,-2.09 -1.17,-2.23 -0.90,-2.37 -0.60,-2.44 -0.30,-2.52 0.00,-2.52 0.30,-2.52 0.60,-2.44 0.90,-2.37 1.17,-2.23 1.44,-2.09 1.67,-1.88 1.90,-1.68 2.07,-1.43 2.25,-1.18 2.35,-0.89 2.46,-0.60 2.50,-0.30 2.54,0.00 2.54,0.00 L 2.54,0 Z"></path></g><g transform="translate(114 10) rotate(0 35.5 3.5)" stroke="none"><path fill="#000000" d="M 0,-1.61 Q 0,-1.61 1.43,-1.69 2.87,-1.78 5.04,-1.43 7.20,-1.09 9.72,-0.92 12.23,-0.76 15.39,-0.38 18.55,-0.00 22.18,0.45 25.81,0.91 29.60,1.11 33.39,1.31 37.68,1.98 41.97,2.66 46.05,3.23 50.13,3.80 52.98,4.05 55.84,4.29 57.62,4.33 59.41,4.37 60.74,4.31 62.07,4.25 63.87,4.09 65.68,3.94 66.76,4.23 67.83,4.53 69.46,4.61 71.09,4.69 71.46,4.77 71.83,4.84 72.15,5.03 72.47,5.22 72.71,5.50 72.96,5.79 73.10,6.13 73.24,6.48 73.27,6.85 73.29,7.22 73.19,7.58 73.10,7.94 72.89,8.25 72.69,8.56 72.39,8.79 72.10,9.02 71.74,9.14 71.39,9.27 71.02,9.27 70.65,9.27 70.29,9.16 69.94,9.04 69.64,8.82 69.34,8.60 69.13,8.29 68.91,7.99 68.81,7.63 68.71,7.27 68.72,6.90 68.74,6.52 68.87,6.18 69.01,5.83 69.25,5.54 69.48,5.25 69.80,5.06 70.12,4.86 70.48,4.78 70.85,4.69 71.22,4.73 71.59,4.77 71.93,4.92 72.27,5.07 72.54,5.33 72.82,5.58 72.99,5.91 73.17,6.24 73.24,6.60 73.30,6.97 73.24,7.34 73.19,7.71 73.02,8.04 72.84,8.37 72.58,8.63 72.31,8.89 71.97,9.05 71.64,9.21 71.26,9.25 70.89,9.30 70.89,9.30 70.90,9.30 68.21,8.66 65.53,8.03 63.74,7.82 61.96,7.62 60.60,7.47 59.25,7.32 57.43,7.15 55.61,6.99 52.68,6.75 49.76,6.51 45.65,5.96 41.54,5.40 37.40,4.77 33.25,4.14 29.36,3.97 25.47,3.80 21.85,3.40 18.23,2.99 15.15,2.70 12.08,2.40 9.41,2.32 6.73,2.24 4.80,2.01 2.87,1.78 1.43,1.69 0,1.61 -0.19,1.59 -0.38,1.56 -0.56,1.49 -0.75,1.42 -0.91,1.31 -1.07,1.20 -1.20,1.06 -1.32,0.91 -1.41,0.74 -1.51,0.57 -1.55,0.38 -1.60,0.19 -1.60,-0.00 -1.60,-0.19 -1.55,-0.38 -1.51,-0.57 -1.41,-0.74 -1.32,-0.91 -1.19,-1.06 -1.07,-1.20 -0.91,-1.31 -0.75,-1.43 -0.56,-1.49 -0.38,-1.56 -0.19,-1.59 0.00,-1.61 0.00,-1.61 L 0,-1.61 Z"></path></g></svg>