<svg version="1.1" xmlns="http://www.w3.org/2000/svg" viewBox="0 0 270.1377411231575 315.47768696143953" width="270.1377411231575" height="315.47768696143953">
  <!-- svg-source:excalidraw -->
  
  <defs>
    <style>
      @font-face {
        font-family: "Virgil";
        src: url("https://excalidraw.com/Virgil.woff2");
      }
      @font-face {
        font-family: "Cascadia";
        src: url("https://excalidraw.com/Cascadia.woff2");
      }
    </style>
  </defs>
  <g stroke-linecap="round"><g transform="translate(16.62494934238498 230.43828588894473) rotate(0 -2.4332687262445916 -69.97522466700525)"><path d="M1.76 1.1 C0.3 -22.13, -5.22 -113.94, -6.62 -136.73 M-0.73 -0.77 C-1.47 -23.64, -1.11 -117.86, -1.11 -141.05" stroke="#000000" stroke-width="1" fill="none"></path></g></g><g stroke-linecap="round"><g transform="translate(72.12494934238498 121.43828588894473) rotate(57.532635893151706 -3.0895088847726697 -71.08706204030659)"><path d="M0.55 -0.31 C-0.61 -22.75, -5.63 -114.61, -6.72 -137.26 M-2.6 -2.95 C-2.87 -26.03, -0.29 -118.9, -1.26 -141.86" stroke="#000000" stroke-width="1" fill="none"></path></g></g><g stroke-linecap="round"><g transform="translate(197.12494934238498 118.43828588894473) rotate(123.20290762623594 -2.319011411331587 -68.90814473960546)"><path d="M0.42 -2.35 C0.23 -25.87, -2.65 -117.54, -3.58 -140.36 M-2.8 2.54 C-3.01 -20.78, -4.33 -114.79, -5.05 -138.01" stroke="#000000" stroke-width="1" fill="none"></path></g></g><g stroke-linecap="round"><g transform="translate(255.12494934238498 227.43828588894473) rotate(180.8431316291797 -0.07404091954231262 -70.89535636704417)"><path d="M-0.61 0.15 C-1.03 -22.74, -2.06 -114.54, -3.16 -137.31 M4.26 -2.24 C3.68 -26.02, -3.43 -118.79, -4.4 -141.94" stroke="#000000" stroke-width="1" fill="none"></path></g></g><g stroke-linecap="round"><g transform="translate(201.12494934238487 333.43828588894473) rotate(236.4738648254083 -0.41398773789404686 -69.08507531326262)"><path d="M-1.86 1.24 C-2.45 -21.58, -2.02 -112.25, -2.35 -135.67 M2.32 -0.55 C1.49 -24.23, -1.93 -116.7, -3.15 -139.41" stroke="#000000" stroke-width="1" fill="none"></path></g></g><g stroke-linecap="round"><g transform="translate(99.62494934238498 102.43828588894473) rotate(0 1.9552314236760253 78.4760522648692)"><path d="M0.01 0.03 C-0.02 26.03, 0.99 130.67, 2.02 156.89 M-3.43 -2.42 C-2.77 23.79, 5.84 132.37, 7.34 159.37" stroke="#000000" stroke-width="1" fill="none"></path></g></g><g stroke-linecap="round"><g transform="translate(96.62494934238498 270.43828588894473) rotate(29.263487363049972 -9.672879247367348 9.185850329101072)"><path d="M-2.62 0.67 C-6.04 3.82, -15.69 13.57, -18.52 16.12 M1.16 -1.44 C-2.78 2.45, -16.68 16.4, -20.5 19.81" stroke="#000000" stroke-width="1" fill="none"></path></g></g><g stroke-linecap="round"><g transform="translate(16.62494934238498 229.43828588894473) rotate(0 29.846611570939444 24.789241939783096)"><path d="M-2.19 1.29 C8.02 9.51, 51.04 39.52, 61.88 47.68 M1.82 -0.47 C11.67 8.17, 50.08 41.06, 60.12 50.05" stroke="#000000" stroke-width="1" fill="none"></path></g></g><g stroke-linecap="round"><g transform="translate(197.62494934238498 137.43828588894473) rotate(0 -18.605202231109104 -19.09689786940811)"><path d="M-1.09 -2.7 C-7.87 -9.21, -33.15 -30.66, -39.72 -36.53 M3.51 2 C-3.52 -4.03, -33.21 -32.73, -40.72 -40.2" stroke="#000000" stroke-width="1" fill="none"></path></g></g><g stroke-linecap="round"><g transform="translate(158.62494934238498 103.43828588894473) rotate(0 -18.372871065996605 34.63593997448683)"><path d="M1.14 1.95 C-5.13 12.98, -28.79 55.19, -35.07 66.12 M-1.69 0.54 C-8.65 11.89, -32.99 57.08, -37.88 68.73" stroke="#000000" stroke-width="1" fill="none"></path></g></g><g stroke-linecap="round"><g transform="translate(125.62494934238498 171.43828588894473) rotate(0 44.94980347257109 2.261862608332933)"><path d="M-1.4 2.67 C13.06 3.21, 71.44 0.6, 86.34 1.25 M3.04 1.65 C18.36 2.6, 77.53 3.26, 91.3 3.38" stroke="#000000" stroke-width="1" fill="none"></path></g></g><g stroke-linecap="round"><g transform="translate(215.62494934238498 176.43828588894473) rotate(0 -26.2120291864872 43.474028620310094)"><path d="M-2.54 0.85 C-11.55 15.17, -43.54 74.03, -52.35 88.1 M1.27 -1.15 C-8.12 12.19, -43.81 69.37, -53.69 84.23" stroke="#000000" stroke-width="1" fill="none"></path></g></g><g stroke-linecap="round"><g transform="translate(158.62494934238498 262.43828588894473) rotate(0 -15.70764932669698 -20.327919477224327)"><path d="M2.47 -1.91 C-2.86 -8.37, -27.7 -33.4, -33.88 -39.97 M0.36 3.22 C-3.9 -3.9, -23.57 -37.04, -28.5 -43.88" stroke="#000000" stroke-width="1" fill="none"></path></g></g><g stroke-linecap="round"><g transform="translate(102.62494934238498 257.43828588894473) rotate(0 0.05385242251367117 11.034946533441541)"><path d="M1.34 1.66 C1.18 4.72, 2.04 16.52, 1.24 19.63 M-1.38 0.1 C-1.91 3.3, -0.34 18.23, 0.22 21.97" stroke="#000000" stroke-width="1" fill="none"></path></g></g></svg>