<svg version="1.1" xmlns="http://www.w3.org/2000/svg" viewBox="0 0 380.3887308341938 332.8153100827922" width="380.3887308341938" height="332.8153100827922">
  <!-- svg-source:excalidraw -->
  
  <defs>
    <style>
      @font-face {
        font-family: "Virgil";
        src: url("https://excalidraw.com/Virgil.woff2");
      }
      @font-face {
        font-family: "Cascadia";
        src: url("https://excalidraw.com/Cascadia.woff2");
      }
    </style>
  </defs>
  <g stroke-linecap="round" transform="translate(141.71055219821835 -12.571015528660837) rotate(322.30547160500595 49.16221516126916 180.19735407893407)"><path d="M8.25 71.34 C10.58 54.38, 18.37 39.97, 23.16 29.31 C27.96 18.65, 32.17 12.2, 37.01 7.36 C41.85 2.52, 47.29 -0.79, 52.22 0.28 C57.16 1.34, 61.96 6, 66.62 13.73 C71.28 21.45, 75.98 33.63, 80.17 46.63 C84.36 59.64, 88.81 74.44, 91.76 91.76 C94.7 109.07, 96.94 130.82, 97.86 150.54 C98.78 170.25, 97.97 190.79, 97.28 210.05 C96.58 229.32, 95.86 249.06, 93.71 266.13 C91.56 283.21, 88.25 299.54, 84.38 312.48 C80.51 325.42, 75.6 335.74, 70.48 343.76 C65.36 351.78, 59 358.5, 53.64 360.62 C48.29 362.74, 43.24 361.56, 38.36 356.5 C33.47 351.43, 29.25 340.9, 24.33 330.22 C19.41 319.54, 12.38 307.18, 8.86 292.43 C5.35 277.67, 4.86 260.01, 3.24 241.7 C1.63 223.39, -0.5 201.96, -0.84 182.56 C-1.18 163.15, -2.31 150.14, 1.19 125.27 C4.69 100.4, 14.31 52.21, 20.17 33.33 C26.03 14.45, 35.48 9.89, 36.35 11.98 M29.06 19.76 C33.26 9.14, 37.51 6.65, 41.84 3.99 C46.18 1.33, 49.85 0.19, 55.06 3.78 C60.27 7.37, 67.79 15.64, 73.09 25.55 C78.39 35.46, 83.59 49.43, 86.87 63.22 C90.16 77, 91.2 90.63, 92.79 108.27 C94.39 125.9, 96 149.22, 96.44 169.02 C96.87 188.83, 96.64 208.45, 95.38 227.09 C94.13 245.74, 91.7 264.38, 88.89 280.89 C86.08 297.4, 82.38 314.39, 78.53 326.15 C74.67 337.91, 71.11 345.72, 65.77 351.45 C60.43 357.17, 52.04 360.85, 46.5 360.5 C40.96 360.16, 37.61 355.72, 32.52 349.37 C27.44 343.02, 19.94 334.8, 16.01 322.38 C12.09 309.96, 11.36 291.82, 8.99 274.87 C6.62 257.91, 2.86 239.4, 1.81 220.65 C0.76 201.9, 2.61 181.36, 2.7 162.38 C2.78 143.39, 0.53 124.03, 2.32 106.72 C4.12 89.41, 9.9 73.31, 13.45 58.51 C17.01 43.72, 21.54 23.3, 23.65 17.95 C25.76 12.59, 25.08 23.48, 26.11 26.38" stroke="#000000" stroke-width="1" fill="none"></path></g><g stroke-linecap="round" transform="translate(125.33113634464326 -13.7896990375379) rotate(31.494804162805814 55.95142724791248 180.19735407893404)"><path d="M40.82 4.85 C46.43 -2.64, 53.68 0.31, 59.92 2.11 C66.15 3.92, 72.66 8.05, 78.23 15.71 C83.81 23.36, 88.83 34.87, 93.39 48.04 C97.96 61.21, 102.77 77.83, 105.63 94.71 C108.49 111.58, 109.86 130.01, 110.56 149.27 C111.26 168.54, 110.96 190.77, 109.83 210.28 C108.71 229.79, 106.43 249.5, 103.81 266.32 C101.18 283.14, 98.05 298.08, 94.09 311.18 C90.13 324.29, 85.52 336.65, 80.04 344.95 C74.56 353.25, 67.6 359.36, 61.21 360.99 C54.81 362.63, 47.8 359.86, 41.68 354.78 C35.56 349.7, 29.45 340.72, 24.49 330.5 C19.53 320.27, 15.36 308.49, 11.92 293.44 C8.48 278.39, 6.15 258.66, 3.88 240.17 C1.6 221.68, -1.33 202.3, -1.7 182.48 C-2.08 162.66, -0.88 139.96, 1.61 121.23 C4.11 102.5, 9.48 85.42, 13.26 70.1 C17.05 54.78, 17.61 41.01, 24.3 29.31 C30.99 17.61, 46.6 3.62, 53.4 -0.12 C60.2 -3.86, 65.01 4.06, 65.12 6.87 M19.09 38.7 C22.88 25.56, 30.33 18.36, 36.34 12.2 C42.35 6.03, 48.9 2.53, 55.15 1.72 C61.4 0.91, 68.12 1.17, 73.86 7.36 C79.59 13.55, 84.87 26.66, 89.55 38.88 C94.24 51.1, 98.85 64.16, 101.98 80.67 C105.11 97.18, 106.48 118.71, 108.34 137.95 C110.2 157.19, 113.71 176.56, 113.13 196.1 C112.56 215.64, 107.77 237.62, 104.88 255.17 C101.99 272.72, 99.88 286.97, 95.8 301.39 C91.72 315.82, 85.87 332.42, 80.41 341.73 C74.95 351.05, 68.72 354.98, 63.05 357.28 C57.38 359.58, 52.09 359.17, 46.39 355.54 C40.7 351.91, 33.75 344.17, 28.88 335.48 C24 326.78, 21.04 317.72, 17.14 303.37 C13.25 289.03, 8.29 267.79, 5.5 249.43 C2.71 231.06, 1.33 212.12, 0.41 193.16 C-0.5 174.21, -1.04 154.41, 0.02 135.7 C1.08 116.99, 3.59 97.6, 6.76 80.91 C9.93 64.23, 16.44 42.86, 19.05 35.59 C21.66 28.31, 20.88 34.42, 22.41 37.27" stroke="#000000" stroke-width="1" fill="none"></path></g><g stroke-linecap="round" transform="translate(144.69436541709695 -10.329651440811801) rotate(89.65895772114116 45.5 180.19735407893404)"><path d="M59.73 8.21 C64.72 11.11, 70.01 23.83, 74.02 35.59 C78.03 47.35, 81.37 62.26, 83.79 78.79 C86.21 95.31, 87.66 115.24, 88.54 134.75 C89.42 154.26, 89.15 176.49, 89.08 195.87 C89.02 215.26, 89.5 233.57, 88.16 251.08 C86.82 268.58, 84.39 286.31, 81.03 300.92 C77.66 315.52, 72.68 329.27, 67.98 338.72 C63.28 348.17, 57.6 354.17, 52.81 357.6 C48.03 361.03, 43.83 362.09, 39.26 359.31 C34.68 356.53, 29.92 350.27, 25.35 340.94 C20.78 331.62, 15.31 317.94, 11.86 303.34 C8.41 288.74, 6.77 271.27, 4.64 253.34 C2.51 235.4, -0.57 215.43, -0.91 195.74 C-1.25 176.06, 1.26 153.84, 2.59 135.22 C3.92 116.61, 4.91 99.95, 7.05 84.06 C9.19 68.16, 11.54 52.31, 15.45 39.87 C19.36 27.44, 25.52 16.33, 30.5 9.46 C35.48 2.59, 36.92 -10.66, 45.32 -1.33 C53.71 8, 73.51 38.73, 80.88 65.45 C88.25 92.17, 89.95 156.66, 89.54 158.98 M34.69 7.96 C39.04 0.29, 46.12 -2.62, 50.96 -1.44 C55.81 -0.25, 59.24 7.39, 63.77 15.06 C68.3 22.74, 75.05 31.46, 78.14 44.62 C81.23 57.78, 80.74 76.64, 82.31 94 C83.88 111.35, 85.79 129.81, 87.56 148.75 C89.34 167.69, 93.7 188.07, 92.95 207.63 C92.19 227.18, 85.77 249.22, 83.03 266.07 C80.3 282.92, 79.72 295.24, 76.54 308.74 C73.36 322.23, 68.37 338.91, 63.96 347.04 C59.56 355.16, 55.17 356.16, 50.12 357.49 C45.06 358.82, 38.74 359.45, 33.64 355.01 C28.53 350.58, 23.34 340.79, 19.46 330.88 C15.58 320.98, 13.37 310.68, 10.34 295.59 C7.32 280.51, 2.83 258.71, 1.31 240.38 C-0.22 222.06, 0.87 205.02, 1.19 185.64 C1.51 166.26, 2.32 143.54, 3.23 124.13 C4.14 104.71, 4.29 84.22, 6.65 69.14 C9 54.07, 12.85 44.09, 17.37 33.68 C21.89 23.26, 31.2 11.01, 33.75 6.64 C36.3 2.27, 32.22 4.26, 32.68 7.48" stroke="#000000" stroke-width="1" fill="none"></path></g><g stroke-linecap="round" transform="translate(161.19436541709695 145.86770263812224) rotate(0 26.5 24)"><path d="M7.37 9.06 C7.37 9.06, 7.37 9.06, 7.37 9.06 M7.37 9.06 C7.37 9.06, 7.37 9.06, 7.37 9.06 M-3.1 21.49 C2.59 16.72, 13.41 9.66, 22.21 4.72 M1.11 24.75 C5.72 15.75, 9.34 12.36, 19.66 4.32 M4.13 27.3 C6.54 17.95, 13.16 13.13, 18.85 1.58 M2.82 29.69 C6.94 23.19, 11.07 14.33, 23.47 2.26 M4.95 28.54 C10.13 22.54, 15.78 17.21, 26.68 3.73 M4.73 31.88 C10.55 27.82, 15.34 18.9, 28.63 3.73 M5 34.12 C8.99 27.04, 15.31 22.06, 31.78 4.87 M3.02 36.69 C15.41 21.67, 24.12 12.61, 32.46 4.54 M10.49 39.8 C21.76 22.83, 32.73 11.38, 36.86 -0.27 M7.65 39.76 C15.69 29.25, 19.48 23.8, 37.1 4.94 M9.98 45.17 C21.41 31.1, 25.7 30.09, 43.75 8.73 M9.62 41.42 C22.3 29.85, 33.13 17.24, 43.42 5.86 M14.04 43.73 C28.98 29.18, 34.43 16.83, 45.56 9.79 M16.07 44.38 C24.51 31.89, 35.21 17.59, 44.6 10.24 M16.36 43.99 C27.67 33.1, 35.17 23.29, 45.89 14.74 M16.76 48.46 C26.64 38.23, 31.85 28.6, 48.85 11.08 M19.98 48.65 C29.47 32.22, 45.25 19.19, 49.14 12.46 M21.87 49.21 C30.99 37.47, 36.48 28.19, 51.07 12.04 M26.53 48.17 C28.72 43.86, 37.44 35.02, 53.68 22.5 M24.51 49.16 C34.99 39.48, 44.42 25.15, 53.49 16.74 M28.34 49.15 C37.33 45.51, 39.46 39.37, 49.96 21.17 M32.43 49.67 C37.28 40.78, 41.47 33.89, 53.25 24.3" stroke="#000" stroke-width="0.5" fill="none"></path><path d="M7.19 9.27 C10.11 5.41, 15.23 2.29, 20.32 1.21 C25.41 0.12, 32.6 0.8, 37.72 2.75 C42.85 4.69, 48.69 8.34, 51.07 12.89 C53.46 17.44, 53.96 25, 52.03 30.05 C50.1 35.09, 44.44 39.88, 39.51 43.13 C34.58 46.39, 28.04 50.33, 22.47 49.58 C16.89 48.84, 10.08 42.47, 6.06 38.65 C2.05 34.83, -2 32.55, -1.63 26.67 C-1.26 20.78, 5.01 7.26, 8.28 3.34 C11.55 -0.58, 17.5 2.85, 17.99 3.14 M29.73 0.2 C35.34 0.87, 41.67 4.14, 45.87 8.37 C50.08 12.61, 54.75 20.97, 54.95 25.61 C55.15 30.25, 50.76 32.61, 47.08 36.2 C43.39 39.79, 38.07 45.77, 32.85 47.13 C27.64 48.49, 21 46.45, 15.79 44.33 C10.58 42.22, 3.57 39.31, 1.58 34.43 C-0.4 29.55, 2.09 19.79, 3.85 15.05 C5.61 10.3, 7.54 8.74, 12.14 5.97 C16.74 3.19, 28.92 -1.05, 31.45 -1.61 C33.99 -2.16, 27.16 1.68, 27.37 2.65" stroke="#000000" stroke-width="1" fill="none"></path></g></svg>