<svg version="1.1" xmlns="http://www.w3.org/2000/svg" viewBox="0 0 276 232" width="276" height="232">
  <!-- svg-source:excalidraw -->
  
  <defs>
    <style>
      @font-face {
        font-family: "Virgil";
        src: url("https://excalidraw.com/Virgil.woff2");
      }
      @font-face {
        font-family: "Cascadia";
        src: url("https://excalidraw.com/Cascadia.woff2");
      }
    </style>
  </defs>
  <g transform="translate(72 142) rotate(0 37 -66)" stroke="none"><path fill="#000000" d="M -1.71,1.28 Q -1.71,1.28 -2.60,0.15 -3.49,-0.98 -4.27,-2.50 -5.04,-4.02 -5.83,-5.77 -6.62,-7.52 -7.25,-9.54 -7.89,-11.57 -8.47,-12.88 -9.06,-14.18 -9.83,-15.53 -10.60,-16.88 -11.03,-18.94 -11.47,-21.00 -11.89,-22.54 -12.32,-24.08 -12.81,-25.23 -13.30,-26.38 -13.82,-27.79 -14.34,-29.21 -14.85,-30.29 -15.36,-31.38 -15.90,-32.78 -16.43,-34.19 -16.91,-36.01 -17.39,-37.83 -17.87,-39.40 -18.35,-40.98 -18.85,-42.15 -19.36,-43.32 -19.66,-44.95 -19.96,-46.58 -20.32,-47.92 -20.68,-49.26 -21.12,-50.33 -21.57,-51.39 -22.03,-53.15 -22.50,-54.91 -22.97,-56.46 -23.44,-58.00 -23.72,-59.39 -24.00,-60.77 -24.12,-62.28 -24.24,-63.79 -24.32,-64.99 -24.40,-66.19 -24.45,-67.28 -24.51,-68.37 -24.52,-69.70 -24.54,-71.03 -24.57,-72.17 -24.60,-73.31 -24.60,-74.66 -24.60,-76.01 -24.23,-77.93 -23.86,-79.86 -23.72,-81.34 -23.59,-82.83 -23.21,-84.53 -22.83,-86.23 -22.36,-87.82 -21.90,-89.40 -21.03,-91.10 -20.17,-92.80 -19.58,-94.02 -18.99,-95.25 -18.49,-96.55 -17.98,-97.84 -16.69,-99.52 -15.40,-101.20 -14.72,-102.33 -14.04,-103.46 -12.72,-104.93 -11.40,-106.41 -9.98,-108.03 -8.55,-109.65 -7.00,-111.24 -5.45,-112.83 -3.91,-114.35 -2.37,-115.87 -0.17,-117.44 2.02,-119.01 3.73,-120.46 5.44,-121.90 7.43,-123.16 9.42,-124.41 11.07,-125.51 12.73,-126.61 14.28,-127.68 15.83,-128.74 17.42,-129.58 19.02,-130.41 20.57,-131.08 22.12,-131.76 23.79,-132.12 25.46,-132.47 27.20,-132.85 28.95,-133.23 30.36,-133.48 31.77,-133.73 32.97,-133.88 34.17,-134.03 35.27,-134.13 36.36,-134.22 37.99,-134.23 39.62,-134.23 41.62,-133.89 43.62,-133.54 45.59,-133.05 47.56,-132.56 48.63,-132.47 49.70,-132.38 50.94,-132.03 52.19,-131.68 54.85,-130.88 57.52,-130.08 59.02,-129.52 60.51,-128.96 61.64,-128.41 62.77,-127.85 63.74,-127.39 64.70,-126.94 66.71,-125.61 68.72,-124.28 69.60,-123.63 70.48,-122.97 72.40,-121.61 74.31,-120.25 75.76,-119.21 77.21,-118.17 78.31,-117.25 79.40,-116.32 80.37,-115.85 81.35,-115.38 82.37,-114.72 83.39,-114.07 84.12,-113.21 84.85,-112.36 85.66,-111.56 86.47,-110.76 87.14,-109.75 87.82,-108.74 88.36,-107.76 88.90,-106.78 89.89,-105.29 90.89,-103.80 91.74,-102.36 92.59,-100.92 92.97,-99.77 93.35,-98.62 93.87,-96.62 94.40,-94.62 94.59,-93.32 94.78,-92.02 95.38,-90.82 95.98,-89.63 96.47,-87.61 96.97,-85.59 97.43,-84.58 97.89,-83.57 98.05,-82.24 98.21,-80.91 98.77,-78.53 99.32,-76.15 99.26,-75.62 99.20,-75.08 98.97,-74.59 98.74,-74.10 98.37,-73.72 97.99,-73.33 97.51,-73.08 97.04,-72.83 96.50,-72.75 95.97,-72.66 95.44,-72.75 94.91,-72.84 94.43,-73.10 93.96,-73.36 93.59,-73.75 93.22,-74.14 93.00,-74.64 92.78,-75.13 92.72,-75.66 92.67,-76.20 92.79,-76.73 92.91,-77.25 93.19,-77.71 93.47,-78.17 93.88,-78.52 94.30,-78.86 94.80,-79.06 95.30,-79.26 95.84,-79.28 96.38,-79.31 96.90,-79.16 97.42,-79.01 97.86,-78.70 98.31,-78.40 98.63,-77.97 98.95,-77.53 99.12,-77.02 99.29,-76.51 99.28,-75.97 99.28,-75.43 99.10,-74.92 98.93,-74.41 98.60,-73.98 98.27,-73.56 97.82,-73.26 97.37,-72.96 96.85,-72.82 96.33,-72.68 95.79,-72.71 95.25,-72.75 94.75,-72.95 94.25,-73.15 93.85,-73.50 93.44,-73.86 93.16,-74.32 92.89,-74.78 92.78,-75.31 92.67,-75.84 92.67,-75.84 92.67,-75.84 92.44,-77.25 92.22,-78.66 91.96,-80.60 91.70,-82.54 91.21,-84.53 90.72,-86.51 90.16,-87.52 89.61,-88.53 89.08,-90.70 88.54,-92.87 88.03,-94.75 87.53,-96.63 87.16,-97.88 86.80,-99.13 85.81,-100.66 84.82,-102.19 83.77,-103.89 82.73,-105.59 81.93,-106.72 81.14,-107.85 80.02,-109.17 78.90,-110.48 76.55,-111.97 74.20,-113.46 73.16,-114.17 72.12,-114.89 70.69,-116.20 69.25,-117.52 67.55,-118.78 65.84,-120.05 64.12,-121.31 62.40,-122.56 60.67,-123.62 58.94,-124.68 57.36,-125.24 55.79,-125.80 54.45,-126.33 53.12,-126.87 51.07,-127.49 49.02,-128.12 47.87,-128.38 46.73,-128.63 44.85,-128.96 42.96,-129.29 41.30,-129.50 39.64,-129.72 37.04,-129.73 34.44,-129.75 33.35,-129.75 32.27,-129.76 31.01,-129.67 29.75,-129.59 27.92,-129.18 26.08,-128.77 24.74,-128.62 23.40,-128.47 21.92,-127.95 20.45,-127.42 18.98,-126.80 17.52,-126.17 15.93,-125.16 14.34,-124.15 12.66,-123.07 10.98,-121.98 9.19,-120.81 7.40,-119.63 5.64,-118.06 3.87,-116.49 1.94,-115.03 0.01,-113.57 -1.39,-112.00 -2.80,-110.43 -4.14,-108.83 -5.47,-107.22 -6.78,-105.38 -8.08,-103.54 -9.13,-102.27 -10.17,-101.01 -11.00,-99.75 -11.82,-98.50 -12.72,-97.29 -13.62,-96.07 -14.21,-94.61 -14.80,-93.15 -15.43,-91.94 -16.07,-90.74 -16.72,-89.42 -17.37,-88.10 -17.77,-86.65 -18.17,-85.21 -18.47,-83.83 -18.76,-82.45 -18.87,-80.75 -18.98,-79.04 -19.18,-77.52 -19.38,-76.00 -19.38,-74.66 -19.38,-73.32 -19.41,-72.19 -19.43,-71.06 -19.46,-68.71 -19.48,-66.35 -19.48,-65.22 -19.49,-64.09 -19.43,-62.82 -19.37,-61.55 -19.24,-60.45 -19.10,-59.35 -18.59,-57.77 -18.08,-56.18 -17.59,-54.63 -17.10,-53.07 -16.65,-51.75 -16.19,-50.43 -15.80,-48.85 -15.40,-47.28 -15.27,-46.12 -15.15,-44.97 -14.66,-43.63 -14.17,-42.29 -13.65,-40.67 -13.13,-39.06 -12.61,-37.42 -12.09,-35.78 -11.62,-34.47 -11.16,-33.16 -10.68,-31.90 -10.21,-30.65 -9.75,-29.27 -9.29,-27.88 -8.84,-26.51 -8.39,-25.14 -7.94,-23.46 -7.50,-21.78 -7.24,-20.31 -6.98,-18.84 -6.13,-17.29 -5.27,-15.74 -4.72,-14.30 -4.18,-12.85 -3.51,-11.11 -2.85,-9.38 -1.93,-7.67 -1.01,-5.97 -0.48,-4.79 0.04,-3.61 0.88,-2.45 1.71,-1.28 1.84,-1.06 1.97,-0.84 2.04,-0.59 2.12,-0.34 2.13,-0.08 2.14,0.17 2.08,0.42 2.03,0.68 1.92,0.91 1.81,1.15 1.65,1.35 1.48,1.55 1.27,1.70 1.07,1.86 0.83,1.96 0.59,2.06 0.34,2.10 0.08,2.14 -0.17,2.12 -0.43,2.10 -0.67,2.02 -0.92,1.94 -1.14,1.80 -1.36,1.66 -1.53,1.47 -1.71,1.28 -1.71,1.28 L -1.71,1.28 Z"></path></g><g transform="translate(87 148) rotate(0 -1.5 11.5)" stroke="none"><path d="M-11.75 1.71 C-11.75 1.71, -11.75 1.71, -11.75 1.71 M-11.75 1.71 C-11.75 1.71, -11.75 1.71, -11.75 1.71 M-17.34 12.84 C-12.51 10.31, -7.97 1.02, -4.63 0.59 M-15.2 12.38 C-14.41 10.8, -11.47 6.12, -6.17 0.9 M-15.89 16.87 C-10.31 10.11, -5.27 7.77, 4.36 -4.56 M-15.8 18.47 C-10.98 13.16, -6.72 7.98, 2.7 -1.5 M-10.12 24.35 C-7.72 10.18, -0.95 1.94, 1.72 -1.6 M-14.13 22.35 C-6.48 13.05, -1.27 9.8, 4.69 -0.63 M-11.26 22.43 C-7.09 20.89, -2.94 11.29, 10.42 5.98 M-7.11 22.32 C-3.48 17.45, 4.54 9.42, 9.33 3.38 M-0.77 26.72 C-0.41 18.2, 7.73 13.35, 15.03 4.83 M-4.06 22.48 C0.48 15.98, 7.67 10.35, 11.62 3.64 M-0.61 20.7 C8 19.74, 13.14 15.65, 9.73 10.41 M-1 23.52 C3.96 19.49, 9.21 17.12, 12.98 10.89 M4.37 24.33 C7.8 22.02, 7.91 21.17, 8.96 20.91 M5 24.5 C5.91 23.36, 8.1 22.83, 9.67 20.32" stroke="#000" stroke-width="0.5" fill="none"></path><path fill="#000000" d="M 0,2.63 Q 0,2.63 -1.15,2.65 -2.3,2.67 -3.36,2.69 -4.42,2.71 -6.44,2.98 -8.47,3.24 -9.23,4.52 -9.99,5.81 -10.94,7.33 -11.90,8.85 -12.34,9.91 -12.78,10.97 -12.82,12.35 -12.86,13.74 -12.90,15.22 -12.95,16.69 -11.87,17.02 -10.79,17.34 -9.62,17.94 -8.44,18.53 -7.37,19.07 -6.29,19.61 -5.39,20.20 -4.49,20.79 -3.05,20.86 -1.61,20.93 0.16,20.96 1.94,20.98 3.04,20.95 4.14,20.92 4.90,20.08 5.65,19.23 6.60,17.91 7.55,16.58 8.61,14.90 9.68,13.22 9.70,11.92 9.72,10.61 9.73,9.25 9.73,7.90 8.81,7.09 7.89,6.29 6.32,5.27 4.76,4.24 3.54,3.82 2.33,3.40 2.43,2.86 2.53,2.31 2.10,2.65 1.66,3.00 1.14,3.18 0.61,3.37 0.06,3.38 -0.49,3.39 -1.02,3.22 -1.55,3.06 -1.99,2.73 -2.44,2.40 -2.76,1.95 -3.08,1.49 -3.24,0.96 -3.40,0.43 -3.38,-0.12 -3.36,-0.67 -3.16,-1.19 -2.97,-1.71 -2.62,-2.14 -2.27,-2.57 -1.80,-2.86 -1.32,-3.16 -0.78,-3.29 -0.24,-3.42 0.30,-3.37 0.85,-3.32 1.36,-3.10 1.87,-2.87 2.28,-2.50 2.69,-2.12 2.96,-1.64 3.23,-1.15 3.33,-0.61 3.43,-0.06 3.35,0.48 3.27,1.03 3.02,1.53 2.77,2.02 2.37,2.41 1.97,2.80 1.47,3.04 0.97,3.29 0.42,3.36 -0.12,3.43 -0.66,3.32 -1.21,3.21 -1.69,2.93 -2.17,2.65 -2.54,2.24 -2.90,1.82 -3.12,1.31 -3.33,0.79 -3.37,0.24 -3.41,-0.30 -3.28,-0.84 -3.14,-1.38 -2.83,-1.84 -2.53,-2.31 -2.53,-2.31 -2.53,-2.31 0.30,-2.81 3.14,-3.30 4.53,-3.09 5.92,-2.88 7.46,-1.84 8.99,-0.79 10.74,0.38 12.49,1.56 13.77,2.57 15.05,3.58 15.64,5.77 16.24,7.97 16.20,9.51 16.15,11.05 15.95,12.54 15.75,14.03 14.87,15.95 14.00,17.87 13.47,18.87 12.93,19.87 11.81,21.42 10.69,22.97 9.76,24.08 8.82,25.18 7.84,25.76 6.86,26.33 4.96,26.68 3.06,27.02 1.66,26.95 0.26,26.87 -0.89,26.83 -2.05,26.79 -3.53,26.67 -5.01,26.56 -6.94,25.69 -8.87,24.81 -9.93,24.30 -11.00,23.78 -12.16,23.24 -13.32,22.70 -15.29,21.64 -17.26,20.57 -18.16,18.04 -19.06,15.51 -18.99,13.46 -18.92,11.42 -18.39,9.33 -17.86,7.24 -16.85,5.77 -15.85,4.31 -14.94,2.98 -14.04,1.65 -13.15,0.41 -12.26,-0.83 -10.97,-1.46 -9.68,-2.09 -7.05,-2.40 -4.42,-2.71 -3.36,-2.69 -2.3,-2.67 -1.15,-2.65 0,-2.63 0.31,-2.59 0.63,-2.55 0.92,-2.44 1.22,-2.33 1.48,-2.15 1.74,-1.97 1.95,-1.73 2.16,-1.49 2.31,-1.21 2.46,-0.93 2.53,-0.62 2.61,-0.31 2.61,0.00 2.61,0.31 2.53,0.62 2.46,0.93 2.31,1.21 2.16,1.49 1.95,1.73 1.74,1.97 1.48,2.15 1.22,2.33 0.92,2.44 0.63,2.55 0.31,2.59 -0.00,2.63 -0.00,2.63 L 0,2.63 Z"></path></g><g transform="translate(39 117) rotate(0 47.5 49.5)" stroke="none"><path fill="#000000" d="M 1.49,1.98 Q 1.49,1.98 0.34,2.84 -0.81,3.71 -2.34,5.16 -3.88,6.62 -4.82,7.54 -5.76,8.47 -6.66,9.58 -7.56,10.69 -8.73,11.71 -9.89,12.73 -11.33,14.52 -12.76,16.32 -13.82,17.76 -14.87,19.20 -16.20,21.38 -17.54,23.57 -18.13,24.62 -18.72,25.68 -19.69,26.90 -20.66,28.12 -21.72,29.98 -22.78,31.83 -23.66,33.15 -24.53,34.46 -25.22,37.01 -25.90,39.56 -26.06,41.44 -26.23,43.32 -26.24,44.38 -26.25,45.44 -26.27,46.75 -26.29,48.05 -26.31,49.47 -26.34,50.89 -26.42,52.65 -26.49,54.40 -26.48,55.72 -26.47,57.04 -26.47,58.47 -26.48,59.89 -26.49,61.36 -26.50,62.83 -26.47,64.02 -26.45,65.22 -26.41,66.31 -26.38,67.39 -26.09,69.07 -25.80,70.75 -25.04,72.11 -24.29,73.47 -23.89,74.77 -23.49,76.07 -22.74,77.02 -21.99,77.97 -21.38,79.28 -20.76,80.58 -19.50,81.60 -18.23,82.62 -17.30,83.59 -16.36,84.55 -15.17,85.89 -13.98,87.23 -13.02,87.93 -12.06,88.64 -11.11,89.20 -10.15,89.77 -8.38,90.74 -6.61,91.72 -5.51,92.24 -4.40,92.76 -3.19,93.24 -1.98,93.72 -0.78,94.24 0.40,94.77 2.60,95.29 4.80,95.82 6.52,96.07 8.24,96.33 9.63,96.39 11.01,96.45 12.44,96.48 13.87,96.51 15.35,96.53 16.82,96.55 18.31,96.56 19.79,96.57 21.29,96.57 22.78,96.58 24.57,96.64 26.36,96.70 28.84,96.82 31.32,96.95 33.52,97.05 35.71,97.15 37.25,96.63 38.78,96.11 40.21,95.77 41.65,95.43 42.83,94.81 44.01,94.18 45.16,93.55 46.31,92.93 47.36,92.35 48.41,91.77 49.81,91.20 51.21,90.62 52.28,90.10 53.35,89.58 54.98,88.86 56.60,88.14 57.85,87.49 59.11,86.85 60.20,86.27 61.29,85.69 62.13,84.98 62.97,84.28 64.07,83.55 65.18,82.82 66.23,82.20 67.27,81.59 68.52,80.83 69.76,80.07 71.33,79.38 72.90,78.68 74.44,78.12 75.97,77.55 77.32,76.84 78.68,76.14 79.89,75.47 81.11,74.81 82.96,74.23 84.81,73.64 86.01,73.12 87.21,72.60 88.49,71.89 89.78,71.17 90.96,70.50 92.15,69.83 93.62,69.23 95.09,68.62 96.41,67.89 97.73,67.17 99.32,66.49 100.91,65.82 102.07,65.25 103.23,64.68 104.28,64.13 105.32,63.59 106.15,62.90 106.97,62.21 108.46,61.47 109.96,60.72 111.55,59.27 113.15,57.82 114.17,57.20 115.20,56.58 116.15,55.32 117.11,54.06 117.99,52.83 118.88,51.59 120.02,49.77 121.17,47.94 121.41,47.52 121.65,47.09 122.02,46.77 122.38,46.44 122.83,46.25 123.28,46.06 123.77,46.03 124.25,45.99 124.73,46.11 125.20,46.23 125.61,46.49 126.02,46.76 126.32,47.14 126.63,47.52 126.80,47.98 126.96,48.44 126.97,48.93 126.98,49.42 126.84,49.88 126.69,50.35 126.41,50.74 126.12,51.14 125.72,51.42 125.32,51.70 124.86,51.85 124.39,51.99 123.90,51.97 123.41,51.96 122.96,51.79 122.50,51.62 122.12,51.31 121.74,51.00 121.48,50.59 121.22,50.18 121.10,49.70 120.99,49.23 121.03,48.74 121.07,48.25 121.26,47.81 121.46,47.36 121.79,47.00 122.11,46.63 122.54,46.40 122.97,46.16 123.45,46.07 123.93,45.98 124.41,46.05 124.89,46.11 125.33,46.33 125.77,46.55 126.11,46.90 126.45,47.24 126.67,47.68 126.88,48.12 126.95,48.61 127.01,49.09 126.92,49.57 126.82,50.05 126.82,50.05 126.82,50.05 126.09,51.49 125.35,52.93 124.47,53.87 123.58,54.80 122.91,55.78 122.24,56.77 121.12,57.86 120.00,58.95 118.96,60.01 117.92,61.08 116.22,62.05 114.53,63.03 113.35,64.07 112.18,65.12 111.07,65.63 109.96,66.14 108.71,67.05 107.46,67.95 106.33,68.45 105.21,68.96 103.96,69.50 102.72,70.04 101.36,70.63 100.00,71.22 98.44,72.11 96.88,73.01 95.63,73.51 94.37,74.01 93.21,74.59 92.05,75.18 90.52,76.06 88.99,76.93 87.63,77.46 86.27,77.99 84.79,78.52 83.32,79.05 82.12,79.65 80.93,80.25 79.31,81.17 77.70,82.08 76.31,82.63 74.92,83.18 73.67,83.75 72.42,84.32 71.07,85.18 69.73,86.05 68.76,86.54 67.79,87.04 66.86,87.57 65.92,88.11 64.67,89.02 63.41,89.93 62.27,90.46 61.13,90.98 59.85,91.58 58.56,92.19 56.92,93.05 55.28,93.91 54.08,94.40 52.87,94.89 51.63,95.34 50.39,95.79 49.29,96.28 48.18,96.76 46.96,97.29 45.74,97.82 44.06,98.55 42.38,99.28 41.13,99.43 39.89,99.58 37.82,100.21 35.76,100.84 33.54,100.94 31.32,101.03 28.84,101.16 26.35,101.29 24.57,101.35 22.78,101.40 21.28,101.41 19.78,101.41 18.28,101.41 16.78,101.41 15.28,101.40 13.78,101.39 12.28,101.36 10.77,101.34 9.31,101.26 7.85,101.19 5.58,101.12 3.31,101.05 2.10,100.72 0.89,100.38 -0.43,100.06 -1.76,99.74 -2.83,99.26 -3.91,98.78 -5.34,98.25 -6.76,97.72 -7.80,97.22 -8.85,96.72 -10.89,95.53 -12.94,94.34 -14.08,93.63 -15.22,92.91 -16.49,91.97 -17.75,91.03 -19.09,89.85 -20.43,88.66 -21.39,87.75 -22.35,86.84 -23.21,86.02 -24.06,85.20 -25.11,83.59 -26.16,81.97 -27.17,80.86 -28.17,79.75 -28.62,78.08 -29.07,76.41 -29.61,75.48 -30.15,74.55 -30.59,73.40 -31.04,72.24 -31.32,69.81 -31.61,67.39 -31.58,66.31 -31.54,65.22 -31.52,64.02 -31.49,62.82 -31.50,61.36 -31.51,59.89 -31.51,58.46 -31.52,57.04 -31.50,55.72 -31.49,54.39 -31.56,52.63 -31.63,50.87 -31.65,49.43 -31.66,48.00 -31.65,46.64 -31.64,45.28 -31.59,44.13 -31.53,42.98 -31.17,40.54 -30.81,38.11 -30.41,36.70 -30.02,35.29 -29.54,33.50 -29.05,31.71 -28.30,30.44 -27.55,29.18 -26.94,28.11 -26.32,27.04 -25.58,25.91 -24.84,24.77 -24.13,23.90 -23.41,23.02 -22.75,21.85 -22.09,20.69 -21.36,19.47 -20.63,18.25 -20.03,17.23 -19.44,16.22 -18.04,14.51 -16.63,12.81 -15.82,11.93 -15.01,11.05 -13.26,9.31 -11.52,7.57 -10.46,6.16 -9.39,4.75 -8.42,3.80 -7.44,2.85 -6.47,1.96 -5.50,1.07 -4.64,0.40 -3.78,-0.26 -2.64,-1.12 -1.49,-1.98 -1.23,-2.13 -0.97,-2.28 -0.68,-2.37 -0.39,-2.45 -0.09,-2.46 0.20,-2.47 0.49,-2.41 0.78,-2.35 1.05,-2.22 1.33,-2.09 1.56,-1.90 1.79,-1.72 1.97,-1.48 2.15,-1.24 2.27,-0.96 2.38,-0.68 2.43,-0.39 2.48,-0.09 2.45,0.20 2.43,0.49 2.33,0.78 2.24,1.06 2.08,1.32 1.92,1.57 1.70,1.78 1.49,1.98 1.49,1.98 L 1.49,1.98 Z"></path></g><g transform="translate(171 130) rotate(0 -2 13.5)" stroke="none"><path d="M-12.24 1.28 C-12.24 1.28, -12.24 1.28, -12.24 1.28 M-12.24 1.28 C-12.24 1.28, -12.24 1.28, -12.24 1.28 M-19.49 13.96 C-12.49 6.67, -6.99 4.63, -8.18 -2.45 M-17.67 13.55 C-14.2 9.76, -11.35 5.76, -6.21 1.04 M-20.68 18.87 C-14.24 16.45, -12.83 13.32, -5.51 7.96 M-17.22 20.57 C-12.58 14.42, -12.32 10.49, -5.72 2.53 M-3.77 3.46 C-2.71 3.59, -3.29 2.49, -0.06 0.25 M-4.48 3.88 C-3.36 2.92, -2.14 1.97, -1.04 0.69 M-18.36 24.93 C-8.66 13.7, 0.36 11.27, 1.23 6.33 M-14.64 24.62 C-8.24 16.31, -4.49 11.97, 0.29 6.63 M-11.27 26.3 C-9.96 16.48, -2.68 11.89, 7.44 4.67 M-13.45 24.83 C-9.54 21.92, -3.07 17.12, 5.33 4.57 M-7.39 24.31 C-4.4 21.29, 0.69 19.02, 8.9 7.92 M-9.81 25.45 C-2.86 21.84, 1.92 12.72, 6.92 8.42 M-6.33 25.39 C1 18.18, 6.53 19.49, 14.7 12.93 M-2.35 27.6 C-0.75 23.58, 4.43 16.16, 9.43 10.78 M-0.47 26.77 C0.78 22.47, 9.34 22.94, 11.27 11.77 M1.84 28.48 C4.37 26.08, 9.2 19.46, 11.79 14.81 M3.23 29.09 C10.91 23.78, 12.07 20.03, 12.49 19.39 M7.16 29.4 C9.23 27.04, 10.29 24.9, 14.29 19.44" stroke="#000" stroke-width="0.5" fill="none"></path><path fill="#000000" d="M -0.62,2.50 Q -0.62,2.50 -1.77,2.23 -2.93,1.96 -4.12,1.90 -5.31,1.84 -6.60,2.05 -7.89,2.27 -8.75,3.16 -9.62,4.05 -10.72,5.06 -11.82,6.07 -13.13,8.23 -14.43,10.40 -14.73,12.11 -15.03,13.81 -15.08,15.68 -15.12,17.54 -14.40,18.71 -13.69,19.87 -12.79,20.65 -11.90,21.43 -10.67,22.42 -9.44,23.41 -8.40,24.06 -7.37,24.70 -5.13,24.97 -2.89,25.24 -1.48,25.31 -0.08,25.37 1.37,25.41 2.83,25.45 4.30,25.47 5.77,25.50 7.15,24.84 8.53,24.17 9.43,23.38 10.33,22.58 10.67,20.62 11.01,18.66 10.45,17.10 9.88,15.55 8.90,13.91 7.91,12.27 5.92,10.87 3.93,9.47 1.94,8.79 -0.04,8.11 -1.09,7.57 -2.14,7.03 -3.30,6.76 -4.47,6.49 -4.83,6.42 -5.19,6.35 -5.53,6.20 -5.86,6.04 -6.15,5.81 -6.43,5.58 -6.66,5.29 -6.88,5.00 -7.03,4.66 -7.18,4.32 -7.24,3.96 -7.30,3.59 -7.28,3.23 -7.25,2.86 -7.14,2.51 -7.02,2.16 -6.83,1.84 -6.63,1.53 -6.37,1.27 -6.11,1.01 -5.79,0.83 -5.47,0.64 -5.12,0.53 -4.77,0.43 -4.40,0.41 -4.03,0.39 -2.83,-0.80 -1.63,-2.01 -1.27,-2.22 -0.90,-2.43 -0.49,-2.51 -0.08,-2.59 0.33,-2.53 0.75,-2.48 1.12,-2.29 1.50,-2.11 1.80,-1.81 2.10,-1.52 2.29,-1.14 2.47,-0.77 2.53,-0.35 2.59,0.05 2.51,0.47 2.44,0.88 2.23,1.25 2.03,1.61 1.71,1.90 1.40,2.18 1.02,2.34 0.63,2.51 0.21,2.55 -0.20,2.58 -0.60,2.48 -1.01,2.38 -1.37,2.16 -1.72,1.93 -1.99,1.61 -2.25,1.28 -2.40,0.89 -2.54,0.49 -2.56,0.07 -2.57,-0.34 -2.45,-0.74 -2.33,-1.14 -2.08,-1.48 -1.84,-1.82 -1.50,-2.07 -1.16,-2.32 -0.76,-2.44 -0.36,-2.57 0.05,-2.56 0.47,-2.55 0.87,-2.40 1.26,-2.26 1.59,-2.00 1.92,-1.74 2.15,-1.38 2.38,-1.03 2.48,-0.62 2.58,-0.22 2.55,0.19 2.52,0.61 2.35,1.00 2.19,1.38 1.91,1.70 1.63,2.01 1.63,2.01 1.63,2.01 -1.41,4.25 -4.47,6.49 -4.83,6.42 -5.19,6.35 -5.53,6.20 -5.86,6.04 -6.15,5.81 -6.43,5.58 -6.66,5.29 -6.88,5.00 -7.03,4.66 -7.18,4.32 -7.24,3.96 -7.30,3.59 -7.28,3.23 -7.25,2.86 -7.14,2.51 -7.02,2.16 -6.83,1.84 -6.63,1.53 -6.37,1.27 -6.11,1.02 -5.79,0.83 -5.47,0.64 -5.12,0.53 -4.77,0.43 -4.40,0.41 -4.03,0.39 -2.88,0.80 -1.74,1.20 -0.06,1.80 1.61,2.40 2.65,3.17 3.70,3.93 5.48,4.52 7.25,5.12 8.23,5.89 9.20,6.66 10.77,7.68 12.35,8.70 13.32,10.01 14.29,11.31 14.78,12.42 15.27,13.53 15.71,14.77 16.15,16.00 16.42,17.51 16.70,19.02 16.57,20.53 16.45,22.03 16.01,23.36 15.57,24.70 14.01,26.32 12.46,27.94 11.53,28.48 10.60,29.02 9.49,29.45 8.39,29.87 7.09,30.17 5.80,30.46 4.28,30.47 2.76,30.47 1.24,30.46 -0.27,30.45 -1.81,30.41 -3.35,30.37 -4.95,30.23 -6.56,30.08 -8.29,29.63 -10.03,29.18 -11.29,28.40 -12.55,27.62 -14.03,26.61 -15.51,25.60 -16.93,24.38 -18.35,23.15 -19.25,21.73 -20.14,20.32 -20.46,18.89 -20.79,17.46 -20.74,16.38 -20.69,15.30 -20.60,14.16 -20.50,13.03 -20.28,11.75 -20.06,10.48 -19.55,9.02 -19.04,7.57 -18.27,6.22 -17.50,4.88 -15.95,2.88 -14.39,0.88 -13.22,-0.59 -12.05,-2.06 -10.94,-2.58 -9.84,-3.09 -8.59,-3.42 -7.34,-3.75 -6.10,-3.72 -4.85,-3.69 -3.26,-3.40 -1.66,-3.11 -0.52,-2.80 0.62,-2.50 0.91,-2.38 1.20,-2.27 1.46,-2.10 1.71,-1.92 1.92,-1.69 2.12,-1.45 2.26,-1.18 2.41,-0.90 2.48,-0.60 2.55,-0.30 2.55,0.00 2.55,0.31 2.48,0.62 2.40,0.92 2.26,1.19 2.11,1.47 1.90,1.70 1.70,1.93 1.44,2.11 1.19,2.28 0.89,2.39 0.60,2.50 0.29,2.54 -0.00,2.57 -0.31,2.53 -0.62,2.50 -0.62,2.50 L -0.62,2.50 Z"></path></g><g transform="translate(133 204) rotate(0 61.5 -45)" stroke="none"><path fill="#000000" d="M 1.17,-1.76 Q 1.17,-1.76 2.07,-1.24 2.97,-0.72 4.21,0.08 5.44,0.89 6.50,1.45 7.55,2.02 8.58,2.52 9.60,3.02 10.79,3.49 11.98,3.95 13.17,4.45 14.35,4.96 15.82,5.46 17.30,5.96 19.69,6.89 22.08,7.81 24.54,8.84 27.01,9.86 28.89,10.58 30.77,11.30 32.22,11.84 33.67,12.38 34.92,12.51 36.18,12.65 38.24,13.13 40.30,13.61 42.60,14.13 44.91,14.66 47.51,14.89 50.11,15.12 52.47,15.53 54.83,15.95 56.35,16.02 57.87,16.09 59.35,16.09 60.82,16.09 62.60,16.11 64.37,16.13 66.27,16.15 68.18,16.18 70.14,16.21 72.10,16.24 73.51,16.17 74.91,16.10 76.38,16.05 77.84,16.00 79.32,15.96 80.80,15.92 82.09,15.63 83.39,15.33 84.79,14.93 86.19,14.53 87.11,13.87 88.04,13.21 89.15,12.54 90.26,11.87 91.70,11.25 93.15,10.64 94.62,10.10 96.09,9.56 97.19,9.05 98.30,8.54 99.94,7.83 101.57,7.12 103.58,6.52 105.58,5.92 107.11,5.17 108.64,4.42 110.08,3.94 111.52,3.46 112.57,2.61 113.62,1.76 115.26,0.43 116.90,-0.90 118.01,-1.58 119.11,-2.26 120.12,-3.57 121.13,-4.88 121.98,-6.44 122.83,-8.01 123.90,-9.06 124.97,-10.11 125.84,-11.58 126.71,-13.05 127.27,-14.26 127.82,-15.47 128.33,-16.50 128.84,-17.53 129.32,-19.24 129.80,-20.95 129.88,-22.78 129.96,-24.60 129.97,-26.55 129.98,-28.50 129.40,-29.94 128.81,-31.38 128.08,-33.25 127.35,-35.13 126.72,-36.21 126.09,-37.29 125.55,-38.26 125.00,-39.23 124.50,-40.20 124.00,-41.17 122.58,-42.85 121.15,-44.54 120.36,-45.71 119.56,-46.88 118.82,-47.75 118.08,-48.63 116.88,-49.85 115.69,-51.07 114.78,-52.35 113.88,-53.62 112.37,-54.65 110.85,-55.68 109.86,-56.77 108.86,-57.86 106.84,-59.20 104.83,-60.54 103.61,-61.48 102.39,-62.42 101.47,-63.14 100.55,-63.85 98.28,-65.25 96.00,-66.64 94.48,-67.96 92.95,-69.29 91.59,-70.03 90.23,-70.77 88.66,-71.75 87.10,-72.74 85.40,-73.76 83.69,-74.78 82.15,-75.45 80.61,-76.12 78.96,-77.05 77.32,-77.98 75.88,-78.58 74.45,-79.18 73.35,-79.74 72.26,-80.31 70.96,-81.13 69.66,-81.94 68.40,-82.49 67.14,-83.03 65.75,-83.56 64.35,-84.09 62.68,-84.63 61.00,-85.17 59.37,-85.70 57.74,-86.22 55.96,-86.76 54.17,-87.30 52.27,-87.86 50.37,-88.42 48.06,-89.30 45.76,-90.19 43.95,-90.82 42.13,-91.45 40.26,-92.01 38.38,-92.57 36.43,-93.11 34.48,-93.66 32.64,-94.49 30.80,-95.32 29.25,-95.89 27.70,-96.45 26.57,-96.59 25.44,-96.73 24.19,-97.10 22.94,-97.46 21.81,-97.53 20.68,-97.60 18.74,-98.35 16.80,-99.09 15.23,-99.65 13.66,-100.20 12.54,-100.35 11.43,-100.49 10.15,-100.87 8.88,-101.25 6.37,-102.07 3.87,-102.88 1.57,-103.45 -0.72,-104.01 -1.95,-104.15 -3.18,-104.28 -4.58,-104.66 -5.98,-105.04 -8.10,-105.21 -10.22,-105.39 -10.63,-105.49 -11.04,-105.60 -11.40,-105.83 -11.75,-106.06 -12.02,-106.39 -12.28,-106.72 -12.43,-107.12 -12.57,-107.52 -12.58,-107.94 -12.59,-108.36 -12.46,-108.77 -12.33,-109.17 -12.08,-109.51 -11.84,-109.86 -11.49,-110.10 -11.14,-110.35 -10.74,-110.47 -10.33,-110.59 -9.91,-110.58 -9.49,-110.56 -9.09,-110.42 -8.69,-110.27 -8.36,-110.00 -8.04,-109.73 -7.81,-109.37 -7.58,-109.02 -7.48,-108.60 -7.38,-108.19 -7.42,-107.77 -7.46,-107.35 -7.63,-106.96 -7.80,-106.57 -8.08,-106.26 -8.37,-105.94 -8.74,-105.74 -9.11,-105.53 -9.52,-105.45 -9.94,-105.38 -10.36,-105.44 -10.78,-105.50 -11.16,-105.69 -11.54,-105.88 -11.83,-106.18 -12.13,-106.48 -12.32,-106.86 -12.50,-107.24 -12.56,-107.66 -12.61,-108.08 -12.53,-108.50 -12.45,-108.91 -12.24,-109.28 -12.03,-109.65 -11.71,-109.93 -11.39,-110.21 -11.00,-110.37 -10.61,-110.54 -10.19,-110.57 -9.77,-110.60 -9.77,-110.60 -9.77,-110.60 -6.17,-109.90 -2.57,-109.20 -0.94,-108.99 0.69,-108.78 1.97,-108.39 3.25,-108.00 4.62,-107.60 5.98,-107.20 6.96,-106.66 7.95,-106.11 10.10,-105.45 12.26,-104.79 13.65,-104.46 15.04,-104.12 16.65,-103.56 18.27,-102.99 19.76,-102.44 21.25,-101.88 23.75,-101.18 26.24,-100.47 27.61,-100.08 28.97,-99.69 30.59,-99.00 32.21,-98.31 33.77,-97.55 35.32,-96.79 37.31,-96.29 39.30,-95.79 41.27,-95.25 43.25,-94.70 45.08,-94.09 46.91,-93.47 49.12,-92.78 51.33,-92.09 53.29,-91.64 55.24,-91.19 57.13,-90.73 59.02,-90.26 60.62,-89.76 62.22,-89.27 64.08,-88.76 65.95,-88.26 67.46,-87.67 68.98,-87.08 70.51,-86.36 72.05,-85.64 74.05,-84.25 76.05,-82.87 77.65,-82.15 79.26,-81.44 80.73,-80.62 82.19,-79.81 83.90,-79.08 85.61,-78.35 87.50,-77.45 89.39,-76.54 90.87,-75.70 92.34,-74.85 94.08,-73.99 95.81,-73.12 97.52,-72.02 99.22,-70.93 100.09,-70.25 100.97,-69.58 103.23,-68.19 105.50,-66.80 106.91,-65.87 108.32,-64.94 109.21,-64.24 110.10,-63.54 112.05,-62.02 114.00,-60.50 115.09,-59.80 116.19,-59.10 117.36,-58.09 118.52,-57.08 119.25,-56.12 119.97,-55.17 121.21,-53.79 122.45,-52.41 123.99,-50.47 125.52,-48.53 126.52,-47.49 127.51,-46.45 128.48,-45.25 129.44,-44.04 130.33,-42.39 131.21,-40.74 131.78,-39.82 132.35,-38.90 132.88,-37.33 133.40,-35.77 133.90,-34.71 134.39,-33.65 134.85,-32.50 135.31,-31.34 135.65,-29.94 135.99,-28.53 135.96,-26.46 135.93,-24.40 135.89,-23.32 135.84,-22.24 135.73,-21.07 135.63,-19.90 135.36,-18.57 135.09,-17.23 134.30,-15.59 133.51,-13.95 132.58,-12.05 131.64,-10.15 131.01,-9.10 130.38,-8.05 129.00,-6.63 127.63,-5.21 127.07,-4.24 126.52,-3.26 125.21,-1.64 123.89,-0.03 122.85,1.03 121.80,2.10 120.82,2.65 119.83,3.21 118.83,3.91 117.82,4.61 116.33,5.63 114.84,6.66 113.77,7.12 112.70,7.58 111.58,7.82 110.47,8.05 108.70,8.98 106.93,9.92 105.23,10.56 103.53,11.21 101.86,12.08 100.20,12.95 98.94,13.46 97.69,13.96 96.31,14.46 94.93,14.97 93.72,15.44 92.51,15.91 91.44,16.45 90.37,16.99 88.87,17.83 87.38,18.67 85.78,19.09 84.19,19.51 82.50,19.79 80.81,20.07 79.32,20.03 77.83,19.99 76.37,19.94 74.91,19.88 73.50,19.81 72.09,19.73 70.12,19.75 68.15,19.77 66.23,19.78 64.31,19.78 62.49,19.74 60.67,19.71 59.10,19.57 57.53,19.43 55.94,19.19 54.35,18.95 52.12,18.62 49.88,18.30 47.07,18.15 44.25,17.99 41.93,17.61 39.61,17.23 37.56,16.92 35.52,16.62 33.87,16.27 32.22,15.92 30.90,15.30 29.57,14.69 27.63,14.06 25.69,13.44 23.23,12.64 20.76,11.84 18.32,11.19 15.88,10.54 14.09,10.03 12.30,9.52 11.23,9.01 10.15,8.49 8.73,7.90 7.31,7.32 6.25,6.71 5.19,6.09 4.05,5.39 2.91,4.68 1.69,3.85 0.47,3.02 -0.34,2.39 -1.17,1.76 -1.36,1.59 -1.56,1.42 -1.71,1.22 -1.85,1.01 -1.95,0.77 -2.04,0.53 -2.08,0.28 -2.11,0.03 -2.09,-0.21 -2.06,-0.47 -1.97,-0.71 -1.89,-0.95 -1.74,-1.16 -1.60,-1.37 -1.41,-1.55 -1.23,-1.72 -1.00,-1.84 -0.78,-1.96 -0.53,-2.03 -0.28,-2.09 -0.03,-2.10 0.22,-2.10 0.47,-2.04 0.71,-1.99 0.94,-1.87 1.17,-1.76 1.17,-1.76 L 1.17,-1.76 Z"></path></g><g transform="translate(106 78) rotate(0 -6 14.5)" stroke="none"><path d="M-18.68 3.63 C-18.68 3.63, -18.68 3.63, -18.68 3.63 M-18.68 3.63 C-18.68 3.63, -18.68 3.63, -18.68 3.63 M-18.77 8.81 C-13.53 8.28, -10.04 0.06, -11.38 0.96 M-21.87 12.67 C-16.59 7.52, -13.67 6.26, -8.89 -1.93 M-24.78 20.18 C-14.26 12.58, -8.78 6.03, -4.07 -1.98 M-23.13 19.87 C-18.66 14.62, -12.36 9.56, -4.67 0.14 M-19.49 19.69 C-11.78 15.35, -8.15 5.08, -0.04 1.91 M-19.3 21.79 C-16.07 19.05, -10.53 13.07, 1.77 -0.77 M-16.28 23.82 C-16.35 18.82, -11.24 17.55, 1.63 4.59 M-17.91 25.37 C-13.11 21.42, -10.17 17.73, 3.11 6.12 M-13.91 29.83 C-4.75 18.42, -2.98 9.92, 8.28 7.98 M-13.73 28.76 C-8.21 24.56, -5.06 19.02, 2.8 8.81 M-9.11 27.27 C-3.05 26.29, -1.17 17.18, 4.73 13.7 M-8.36 30.82 C-4.28 25.07, -2.68 19.06, 5.91 9.45 M-0.96 31.6 C-0.41 24.91, 0.5 17.04, 8.82 11.63 M-3.13 32.28 C-0.63 26.69, 2.46 20.21, 12.05 14.54 M-2.01 30.73 C0.64 28.04, 5.64 26.62, 9.96 17.58 M-1.02 31.65 C0.37 29.81, 4.44 25.3, 9.53 19.55" stroke="#000" stroke-width="0.5" fill="none"></path><path fill="#000000" d="M -0.51,2.58 Q -0.51,2.58 -1.95,2.28 -3.38,1.97 -4.74,1.52 -6.10,1.08 -7.48,0.97 -8.87,0.86 -10.04,0.89 -11.21,0.91 -12.13,2.15 -13.05,3.39 -14.58,4.62 -16.11,5.85 -16.96,6.98 -17.80,8.11 -18.31,9.10 -18.83,10.08 -18.78,11.29 -18.73,12.49 -18.74,14.09 -18.75,15.70 -18.54,17.17 -18.34,18.65 -17.71,19.64 -17.09,20.63 -16.18,21.76 -15.28,22.89 -13.99,23.86 -12.71,24.83 -10.91,25.62 -9.12,26.40 -7.92,26.52 -6.71,26.63 -4.98,27.40 -3.25,28.16 -1.78,27.91 -0.31,27.65 0.99,27.14 2.30,26.63 3.36,25.15 4.43,23.67 4.98,22.68 5.54,21.70 6.02,20.41 6.50,19.12 6.55,17.49 6.59,15.87 5.90,14.72 5.20,13.57 3.77,11.94 2.34,10.31 1.05,9.02 -0.22,7.73 -1.52,4.30 -2.82,0.86 -2.88,0.38 -2.95,-0.08 -2.86,-0.55 -2.77,-1.02 -2.53,-1.43 -2.29,-1.85 -1.94,-2.17 -1.58,-2.49 -1.14,-2.67 -0.70,-2.86 -0.23,-2.90 0.24,-2.94 0.70,-2.82 1.17,-2.71 1.57,-2.45 1.97,-2.19 2.27,-1.82 2.57,-1.45 2.73,-1.00 2.90,-0.55 2.91,-0.07 2.92,0.40 2.78,0.85 2.64,1.31 2.36,1.70 2.08,2.09 1.69,2.37 1.30,2.64 0.85,2.78 0.39,2.92 -0.08,2.91 -0.56,2.90 -1.00,2.73 -1.45,2.56 -1.83,2.26 -2.20,1.96 -2.45,1.56 -2.71,1.16 -2.83,0.69 -2.94,0.23 -2.90,-0.24 -2.86,-0.71 -2.67,-1.15 -2.48,-1.59 -2.16,-1.95 -1.84,-2.30 -1.43,-2.54 -1.01,-2.77 -0.54,-2.86 -0.07,-2.95 0.39,-2.88 0.87,-2.82 1.29,-2.60 1.72,-2.39 2.06,-2.05 2.40,-1.71 2.61,-1.29 2.82,-0.86 2.82,-0.86 2.82,-0.86 3.95,1.56 5.08,3.99 6.15,4.78 7.23,5.57 8.12,6.74 9.00,7.90 10.70,9.48 12.40,11.06 12.88,12.31 13.35,13.56 13.36,14.78 13.36,15.99 13.31,17.61 13.25,19.22 12.88,20.89 12.50,22.57 11.77,24.21 11.05,25.85 10.36,27.01 9.67,28.18 8.34,29.77 7.01,31.37 5.30,32.39 3.60,33.41 2.35,33.84 1.09,34.27 -0.69,34.25 -2.48,34.24 -3.55,34.16 -4.61,34.09 -5.70,33.48 -6.79,32.86 -7.87,32.92 -8.94,32.98 -10.95,32.45 -12.96,31.91 -15.11,30.70 -17.27,29.49 -18.22,28.86 -19.18,28.23 -20.10,27.00 -21.03,25.78 -22.14,24.80 -23.24,23.83 -23.87,22.14 -24.50,20.44 -24.86,18.05 -25.23,15.66 -25.20,13.99 -25.18,12.31 -25.00,10.29 -24.83,8.26 -24.19,7.09 -23.56,5.92 -22.54,4.41 -21.52,2.90 -20.54,1.78 -19.55,0.66 -18.50,-0.12 -17.45,-0.91 -16.46,-1.88 -15.47,-2.84 -13.27,-3.86 -11.08,-4.87 -9.75,-4.76 -8.42,-4.64 -6.41,-4.25 -4.39,-3.87 -3.37,-3.49 -2.36,-3.12 -0.92,-2.85 0.51,-2.58 0.81,-2.48 1.12,-2.38 1.39,-2.21 1.66,-2.05 1.88,-1.82 2.10,-1.59 2.26,-1.31 2.42,-1.04 2.51,-0.73 2.60,-0.43 2.61,-0.11 2.63,0.20 2.56,0.51 2.50,0.82 2.37,1.11 2.23,1.40 2.03,1.64 1.83,1.89 1.58,2.08 1.32,2.28 1.03,2.40 0.74,2.53 0.43,2.58 0.11,2.63 -0.20,2.61 -0.51,2.58 -0.51,2.58 L -0.51,2.58 Z"></path></g><g transform="translate(167 66) rotate(0 0.5 6.5)" stroke="none"><path fill="#000000" d="M 2.59,0 Q 2.59,0 2.53,1.72 2.47,3.44 2.48,4.75 2.50,6.06 2.59,7.55 2.68,9.04 2.75,10.13 2.83,11.22 2.87,12.93 2.92,14.64 2.96,16.30 3.00,17.96 3.04,19.08 3.09,20.20 3.15,21.73 3.20,23.25 3.16,23.64 3.11,24.02 2.97,24.38 2.84,24.74 2.62,25.06 2.40,25.38 2.11,25.64 1.82,25.89 1.47,26.07 1.13,26.25 0.76,26.34 0.38,26.44 -0.00,26.44 -0.38,26.44 -0.76,26.34 -1.13,26.25 -1.47,26.07 -1.82,25.89 -2.11,25.64 -2.40,25.38 -2.62,25.06 -2.84,24.74 -2.97,24.38 -3.11,24.02 -3.16,23.64 -3.20,23.25 -2.83,21.80 -2.45,20.36 -2.27,18.15 -2.09,15.94 -2.02,14.52 -1.94,13.10 -1.93,11.92 -1.91,10.74 -1.92,8.75 -1.93,6.76 -1.96,5.06 -2.00,3.35 -2.01,1.40 -2.03,-0.54 -2.23,-1.68 -2.43,-2.81 -2.65,-4.04 -2.88,-5.27 -2.95,-6.35 -3.01,-7.42 -3.07,-9.18 -3.13,-10.94 -3.06,-11.45 -2.99,-11.95 -2.76,-12.40 -2.53,-12.85 -2.16,-13.21 -1.80,-13.57 -1.34,-13.79 -0.88,-14.01 -0.38,-14.07 0.11,-14.13 0.61,-14.03 1.11,-13.93 1.55,-13.68 1.99,-13.42 2.32,-13.04 2.66,-12.66 2.85,-12.19 3.05,-11.72 3.09,-11.21 3.12,-10.71 2.99,-10.21 2.87,-9.72 2.59,-9.30 2.31,-8.87 1.91,-8.56 1.51,-8.24 1.03,-8.07 0.55,-7.90 0.04,-7.90 -0.45,-7.89 -0.94,-8.04 -1.42,-8.20 -1.83,-8.50 -2.24,-8.80 -2.53,-9.22 -2.82,-9.63 -2.97,-10.12 -3.11,-10.61 -3.09,-11.11 -3.07,-11.62 -2.89,-12.10 -2.71,-12.57 -2.39,-12.96 -2.07,-13.36 -1.63,-13.62 -1.20,-13.89 -0.71,-14.01 -0.21,-14.13 0.28,-14.08 0.79,-14.03 1.25,-13.83 1.72,-13.62 2.09,-13.28 2.46,-12.93 2.71,-12.49 2.95,-12.04 3.04,-11.54 3.13,-11.04 3.13,-11.05 3.13,-11.05 3.15,-9.40 3.17,-7.76 3.22,-6.42 3.28,-5.08 3.65,-2.81 4.03,-0.54 4.01,1.40 4.00,3.35 3.96,5.06 3.92,6.77 3.90,8.78 3.88,10.78 3.88,11.98 3.88,13.19 3.91,14.68 3.93,16.16 3.92,17.65 3.91,19.14 3.56,21.19 3.20,23.25 3.16,23.64 3.11,24.02 2.97,24.38 2.84,24.74 2.62,25.06 2.40,25.38 2.11,25.64 1.82,25.89 1.47,26.07 1.13,26.25 0.76,26.34 0.38,26.44 0.00,26.44 -0.38,26.44 -0.76,26.34 -1.13,26.25 -1.47,26.07 -1.82,25.89 -2.11,25.64 -2.40,25.38 -2.62,25.06 -2.84,24.74 -2.97,24.38 -3.11,24.02 -3.16,23.64 -3.20,23.25 -3.15,21.73 -3.09,20.20 -3.04,19.08 -3.00,17.96 -2.96,16.30 -2.92,14.64 -2.87,12.93 -2.83,11.22 -2.75,10.13 -2.68,9.04 -2.59,7.55 -2.50,6.06 -2.48,4.75 -2.47,3.44 -2.53,1.72 -2.59,0 -2.55,-0.31 -2.52,-0.62 -2.41,-0.91 -2.29,-1.20 -2.12,-1.46 -1.94,-1.72 -1.70,-1.93 -1.47,-2.13 -1.19,-2.28 -0.92,-2.42 -0.61,-2.50 -0.31,-2.57 0.00,-2.57 0.31,-2.57 0.61,-2.50 0.92,-2.42 1.19,-2.28 1.47,-2.13 1.71,-1.92 1.94,-1.72 2.12,-1.46 2.30,-1.20 2.41,-0.91 2.52,-0.62 2.55,-0.31 2.59,0.00 2.59,0.00 L 2.59,0 Z"></path></g></svg>