<svg version="1.1" xmlns="http://www.w3.org/2000/svg" viewBox="0 0 248 372" width="248" height="372">
  <!-- svg-source:excalidraw -->
  
  <defs>
    <style>
      @font-face {
        font-family: "Virgil";
        src: url("https://excalidraw.com/Virgil.woff2");
      }
      @font-face {
        font-family: "Cascadia";
        src: url("https://excalidraw.com/Cascadia.woff2");
      }
    </style>
  </defs>
  <g transform="translate(30 14) rotate(0 -1.5 35.5)" stroke="none"><path fill="#000000" d="M 2.04,0 Q 2.04,0 2.04,1.72 2.03,3.44 2.17,5.47 2.31,7.50 2.34,10.09 2.38,12.67 2.01,14.66 1.65,16.66 1.20,18.38 0.75,20.11 0.49,22.06 0.22,24.00 -0.22,26.14 -0.67,28.27 -0.86,30.20 -1.04,32.13 -1.07,33.83 -1.11,35.52 -1.14,37.38 -1.17,39.24 -1.15,40.89 -1.12,42.55 -1.09,44.12 -1.05,45.68 -1.01,47.21 -0.98,48.74 -0.91,49.96 -0.85,51.19 -0.79,52.28 -0.73,53.38 -0.61,54.74 -0.50,56.10 -0.40,57.57 -0.31,59.05 -0.24,60.42 -0.17,61.79 -0.11,62.98 -0.05,64.17 -0.02,65.90 0.01,67.64 0.03,69.32 0.05,71.00 -0.02,71.48 -0.10,71.97 -0.33,72.41 -0.56,72.85 -0.92,73.19 -1.28,73.53 -1.73,73.73 -2.18,73.94 -2.67,74.00 -3.16,74.05 -3.64,73.94 -4.13,73.84 -4.55,73.58 -4.97,73.33 -5.30,72.95 -5.62,72.57 -5.80,72.11 -5.98,71.65 -6.01,71.16 -6.04,70.66 -5.90,70.19 -5.77,69.71 -5.49,69.30 -5.21,68.89 -4.82,68.59 -4.43,68.29 -3.96,68.14 -3.49,67.98 -2.99,67.98 -2.50,67.98 -2.03,68.14 -1.56,68.29 -1.17,68.59 -0.77,68.89 -0.50,69.30 -0.22,69.71 -0.09,70.19 0.04,70.66 0.01,71.16 -0.01,71.65 -0.19,72.11 -0.37,72.57 -0.70,72.95 -1.02,73.33 -1.44,73.58 -1.86,73.84 -2.35,73.94 -2.83,74.05 -3.32,74.00 -3.81,73.94 -4.26,73.73 -4.71,73.53 -5.07,73.19 -5.43,72.85 -5.66,72.41 -5.89,71.97 -5.97,71.48 -6.05,70.99 -6.05,70.99 -6.05,70.99 -6.03,69.32 -6.01,67.64 -5.97,65.90 -5.94,64.17 -5.88,62.98 -5.82,61.79 -5.75,60.42 -5.68,59.05 -5.59,57.57 -5.49,56.10 -5.38,54.74 -5.26,53.37 -5.20,52.28 -5.14,51.18 -5.07,49.96 -5.01,48.73 -4.97,47.20 -4.93,45.67 -4.88,44.10 -4.83,42.52 -4.78,40.86 -4.73,39.19 -4.71,37.28 -4.69,35.38 -4.59,33.63 -4.49,31.87 -4.37,29.76 -4.25,27.64 -3.98,25.66 -3.71,23.68 -3.62,21.36 -3.54,19.04 -3.17,17.50 -2.80,15.95 -2.59,14.31 -2.38,12.66 -2.34,10.08 -2.31,7.50 -2.17,5.47 -2.03,3.44 -2.04,1.72 -2.04,0 -2.01,-0.24 -1.98,-0.49 -1.90,-0.72 -1.81,-0.95 -1.67,-1.15 -1.53,-1.35 -1.34,-1.52 -1.16,-1.68 -0.94,-1.79 -0.72,-1.91 -0.48,-1.97 -0.24,-2.03 0.00,-2.03 0.24,-2.03 0.48,-1.97 0.72,-1.91 0.94,-1.79 1.16,-1.68 1.34,-1.52 1.53,-1.35 1.67,-1.15 1.81,-0.95 1.90,-0.72 1.98,-0.48 2.01,-0.24 2.04,0.00 2.04,0.00 L 2.04,0 Z"></path></g><g transform="translate(26 61) rotate(0 13.5 -1)" stroke="none"><path fill="#000000" d="M -1.23,-1.95 Q -1.23,-1.95 2.01,-1.89 4.02,-1.84 6.89,-1.77 9.76,-1.69 12.92,-1.93 16.08,-2.16 18.55,-2.52 21.02,-2.89 23.92,-3.30 26.81,-3.72 27.09,-3.70 27.37,-3.69 27.63,-3.58 27.89,-3.48 28.11,-3.30 28.32,-3.11 28.46,-2.87 28.61,-2.63 28.67,-2.36 28.73,-2.08 28.70,-1.80 28.67,-1.53 28.55,-1.27 28.43,-1.02 28.23,-0.81 28.04,-0.61 27.79,-0.48 27.54,-0.35 27.27,-0.30 26.99,-0.26 26.71,-0.31 26.44,-0.35 26.19,-0.49 25.94,-0.62 25.75,-0.82 25.56,-1.03 25.44,-1.28 25.32,-1.54 25.29,-1.82 25.26,-2.09 25.32,-2.37 25.39,-2.64 25.53,-2.88 25.68,-3.12 25.89,-3.30 26.11,-3.48 26.37,-3.59 26.63,-3.69 26.91,-3.70 27.19,-3.72 27.46,-3.64 27.73,-3.57 27.96,-3.41 28.19,-3.25 28.36,-3.03 28.53,-2.80 28.62,-2.54 28.71,-2.27 28.71,-1.99 28.71,-1.71 28.62,-1.44 28.52,-1.18 28.35,-0.95 28.18,-0.73 27.95,-0.57 27.72,-0.42 27.45,-0.34 27.18,-0.27 27.18,-0.27 27.18,-0.27 24.34,-0.08 21.51,0.10 18.93,0.55 16.36,1.01 13.06,1.35 9.76,1.69 6.89,1.77 4.02,1.84 2.01,1.89 1.23,1.95 -0.23,1.92 -0.46,1.89 -0.68,1.81 -0.90,1.73 -1.10,1.59 -1.29,1.46 -1.45,1.28 -1.60,1.11 -1.71,0.90 -1.82,0.69 -1.88,0.46 -1.94,0.23 -1.94,-0.00 -1.94,-0.23 -1.88,-0.46 -1.82,-0.69 -1.71,-0.90 -1.60,-1.11 -1.45,-1.28 -1.29,-1.46 -1.10,-1.59 -0.90,-1.73 -0.68,-1.81 -0.46,-1.89 -0.23,-1.92 0.00,-1.95 0.00,-1.95 L -1.23,-1.95 Z"></path></g><g transform="translate(52 28) rotate(0 2 26.5)" stroke="none"><path fill="#000000" d="M 1.67,0 Q 1.67,0 1.62,2.3 1.57,4.6 1.54,7.30 1.50,10.00 1.76,12.80 2.02,15.60 2.12,18.59 2.23,21.58 2.27,24.58 2.31,27.57 2.32,30.28 2.33,32.99 2.61,35.21 2.90,37.42 3.02,39.60 3.15,41.77 3.57,43.11 4.00,44.46 4.42,46.14 4.84,47.82 5.49,50.14 6.13,52.47 6.16,52.83 6.18,53.18 6.10,53.52 6.01,53.87 5.82,54.17 5.63,54.47 5.35,54.69 5.07,54.91 4.74,55.03 4.40,55.15 4.05,55.16 3.69,55.17 3.35,55.07 3.01,54.96 2.72,54.75 2.44,54.54 2.23,54.25 2.02,53.97 1.92,53.63 1.82,53.28 1.83,52.93 1.84,52.57 1.96,52.24 2.09,51.91 2.31,51.63 2.53,51.36 2.83,51.16 3.13,50.97 3.48,50.89 3.82,50.80 4.18,50.83 4.53,50.86 4.86,51.01 5.18,51.15 5.45,51.39 5.71,51.62 5.89,51.93 6.06,52.24 6.13,52.59 6.19,52.94 6.14,53.29 6.09,53.65 5.93,53.96 5.78,54.28 5.52,54.53 5.27,54.78 4.95,54.94 4.63,55.10 4.28,55.14 3.93,55.19 3.58,55.12 3.23,55.05 2.92,54.88 2.61,54.70 2.38,54.44 2.14,54.17 2.00,53.85 1.86,53.52 1.86,53.52 1.86,53.52 1.41,50.84 0.97,48.17 0.97,46.66 0.98,45.16 0.73,43.54 0.47,41.93 0.34,39.85 0.22,37.77 -0.08,35.39 -0.39,33.01 -0.43,30.32 -0.46,27.62 -0.52,24.66 -0.59,21.70 -0.73,18.79 -0.87,15.89 -1.18,12.95 -1.50,10.00 -1.54,7.30 -1.57,4.6 -1.62,2.3 -1.67,0 -1.65,-0.20 -1.62,-0.40 -1.55,-0.59 -1.48,-0.77 -1.37,-0.94 -1.25,-1.11 -1.10,-1.24 -0.95,-1.38 -0.77,-1.47 -0.59,-1.56 -0.39,-1.61 -0.20,-1.66 0.00,-1.66 0.20,-1.66 0.39,-1.61 0.59,-1.56 0.77,-1.47 0.95,-1.38 1.10,-1.24 1.25,-1.11 1.37,-0.94 1.48,-0.77 1.55,-0.59 1.62,-0.40 1.65,-0.20 1.67,0.00 1.67,0.00 L 1.67,0 Z"></path></g><g transform="translate(81 18) rotate(0 2.5 37.5)" stroke="none"><path fill="#000000" d="M 1.56,0 Q 1.56,0 1.52,2.3 1.49,4.6 1.46,7.30 1.44,10.00 1.71,13.10 1.97,16.19 2.08,19.59 2.20,22.98 2.24,26.44 2.28,29.89 2.30,33.37 2.31,36.85 2.32,40.05 2.32,43.26 2.61,45.99 2.89,48.72 3.01,51.09 3.14,53.47 3.52,55.23 3.90,56.99 4.13,58.70 4.36,60.42 4.85,61.78 5.34,63.15 5.75,64.86 6.16,66.56 6.71,67.96 7.27,69.36 7.47,72.16 7.67,74.95 7.61,75.38 7.54,75.81 7.35,76.20 7.15,76.58 6.84,76.88 6.53,77.19 6.14,77.37 5.75,77.56 5.32,77.62 4.89,77.67 4.47,77.58 4.04,77.50 3.67,77.28 3.29,77.06 3.01,76.74 2.72,76.41 2.56,76.01 2.39,75.61 2.36,75.18 2.33,74.75 2.44,74.33 2.55,73.91 2.79,73.55 3.02,73.18 3.36,72.92 3.70,72.65 4.11,72.51 4.52,72.36 4.95,72.35 5.39,72.35 5.80,72.48 6.21,72.61 6.56,72.87 6.91,73.12 7.16,73.48 7.41,73.83 7.53,74.25 7.65,74.66 7.63,75.10 7.62,75.53 7.46,75.93 7.31,76.34 7.03,76.67 6.76,77.01 6.39,77.24 6.02,77.47 5.60,77.57 5.18,77.67 4.75,77.63 4.32,77.58 3.92,77.41 3.53,77.23 3.21,76.94 2.89,76.65 2.68,76.27 2.47,75.89 2.40,75.46 2.32,75.04 2.32,75.04 2.32,75.04 2.32,73.15 2.32,71.26 2.35,70.17 2.38,69.07 2.02,68.03 1.66,66.99 1.69,65.87 1.72,64.74 1.46,62.72 1.21,60.69 1.15,59.10 1.09,57.51 0.79,55.56 0.49,53.61 0.36,51.30 0.24,49.00 -0.05,46.13 -0.35,43.27 -0.36,40.07 -0.38,36.87 -0.41,33.40 -0.44,29.93 -0.50,26.51 -0.56,23.08 -0.69,19.77 -0.82,16.45 -1.13,13.23 -1.44,10.00 -1.46,7.30 -1.49,4.6 -1.52,2.3 -1.56,0 -1.53,-0.18 -1.51,-0.37 -1.45,-0.54 -1.38,-0.72 -1.27,-0.88 -1.16,-1.03 -1.02,-1.16 -0.88,-1.28 -0.72,-1.37 -0.55,-1.46 -0.37,-1.50 -0.18,-1.55 0.00,-1.55 0.18,-1.55 0.37,-1.50 0.55,-1.46 0.72,-1.37 0.88,-1.28 1.02,-1.16 1.16,-1.03 1.27,-0.88 1.38,-0.72 1.45,-0.54 1.51,-0.37 1.53,-0.18 1.56,0.00 1.56,0.00 L 1.56,0 Z"></path></g><g transform="translate(70 55) rotate(0 16.5 -4.5)" stroke="none"><path fill="#000000" d="M -0.23,-1.88 Q -0.23,-1.88 2.07,-2.09 4.38,-2.30 7.29,-2.92 10.21,-3.55 13.48,-4.37 16.75,-5.20 19.85,-6.10 22.95,-7.01 25.06,-7.94 27.18,-8.86 29.86,-9.73 32.55,-10.61 32.82,-10.63 33.09,-10.66 33.35,-10.60 33.62,-10.55 33.85,-10.41 34.08,-10.27 34.25,-10.06 34.43,-9.85 34.53,-9.60 34.63,-9.35 34.64,-9.08 34.66,-8.81 34.58,-8.55 34.51,-8.29 34.36,-8.07 34.21,-7.84 33.99,-7.68 33.77,-7.52 33.52,-7.43 33.26,-7.35 32.99,-7.35 32.72,-7.35 32.47,-7.43 32.21,-7.52 32.00,-7.68 31.78,-7.85 31.63,-8.07 31.48,-8.30 31.41,-8.56 31.33,-8.82 31.35,-9.09 31.36,-9.36 31.47,-9.61 31.57,-9.86 31.74,-10.06 31.92,-10.27 32.15,-10.41 32.38,-10.55 32.64,-10.61 32.91,-10.66 33.18,-10.63 33.44,-10.60 33.69,-10.49 33.93,-10.38 34.13,-10.19 34.33,-10.00 34.45,-9.76 34.58,-9.53 34.62,-9.26 34.67,-8.99 34.62,-8.73 34.58,-8.46 34.45,-8.22 34.32,-7.98 34.13,-7.80 33.93,-7.61 33.68,-7.50 33.44,-7.38 33.44,-7.38 33.44,-7.38 30.89,-6.81 28.34,-6.24 26.08,-5.21 23.81,-4.18 20.67,-3.20 17.54,-2.22 14.24,-1.30 10.94,-0.38 7.88,0.38 4.81,1.15 2.52,1.51 0.23,1.88 0.00,1.88 -0.22,1.88 -0.44,1.83 -0.66,1.77 -0.87,1.67 -1.07,1.56 -1.24,1.41 -1.41,1.26 -1.54,1.07 -1.67,0.88 -1.76,0.67 -1.84,0.46 -1.87,0.23 -1.89,0.00 -1.87,-0.22 -1.84,-0.44 -1.76,-0.66 -1.68,-0.87 -1.55,-1.06 -1.42,-1.25 -1.25,-1.40 -1.08,-1.55 -0.88,-1.66 -0.67,-1.77 -0.45,-1.82 -0.23,-1.88 -0.23,-1.88 L -0.23,-1.88 Z"></path></g><g transform="translate(116 46) rotate(0 14.5 19)" stroke="none"><path fill="#000000" d="M 1.89,0 Q 1.89,0 1.90,1.72 1.91,3.44 1.83,5.62 1.75,7.79 1.69,10.72 1.63,13.66 1.59,16.63 1.54,19.60 1.22,22.94 0.90,26.28 0.75,29.08 0.61,31.87 0.56,33.93 0.50,35.98 0.60,37.14 0.70,38.30 0.79,39.13 0.88,39.95 0.85,40.18 0.82,40.40 0.74,40.61 0.66,40.82 0.53,41.01 0.40,41.19 0.22,41.34 0.05,41.49 -0.14,41.59 -0.34,41.70 -0.56,41.75 -0.78,41.80 -1.01,41.80 -1.24,41.80 -1.46,41.74 -1.68,41.68 -1.88,41.57 -2.08,41.47 -2.25,41.31 -2.41,41.16 -2.54,40.97 -2.67,40.78 -2.75,40.57 -2.82,40.36 -2.85,40.13 -2.87,39.91 -2.99,37.97 -3.11,36.04 -2.79,34.13 -2.47,32.23 -2.26,30.17 -2.05,28.11 -1.63,25.40 -1.21,22.69 -1.01,20.19 -0.82,17.69 -0.72,15.19 -0.62,12.69 -0.56,10.48 -0.50,8.27 -0.54,6.46 -0.58,4.66 -0.70,2.69 -0.83,0.73 -0.67,0.59 -0.51,0.45 -0.48,0.20 -0.45,-0.04 -0.36,-0.27 -0.27,-0.51 -0.12,-0.71 0.01,-0.92 0.20,-1.09 0.39,-1.25 0.61,-1.37 0.83,-1.48 1.08,-1.54 1.32,-1.60 1.57,-1.60 1.83,-1.60 2.07,-1.54 2.31,-1.48 2.54,-1.36 2.76,-1.25 2.95,-1.08 3.13,-0.91 3.28,-0.70 3.42,-0.50 3.51,-0.26 3.60,-0.03 3.63,0.21 3.65,0.46 5.24,2.26 6.82,4.05 7.84,5.33 8.87,6.60 10.21,8.77 11.54,10.95 12.64,12.71 13.74,14.47 14.59,15.79 15.45,17.11 16.15,18.24 16.85,19.38 17.27,20.64 17.70,21.91 18.12,23.16 18.54,24.41 18.88,25.41 19.23,26.42 19.25,26.71 19.27,26.99 19.23,27.28 19.18,27.56 19.07,27.83 18.95,28.09 18.78,28.32 18.60,28.55 18.38,28.73 18.16,28.91 17.90,29.03 17.64,29.16 17.35,29.21 17.07,29.27 16.79,29.26 16.50,29.24 16.22,29.16 15.95,29.08 15.70,28.94 15.45,28.79 15.24,28.59 15.03,28.39 14.88,28.15 14.73,27.91 14.64,27.63 14.55,27.36 14.85,25.32 15.15,23.29 15.25,22.06 15.34,20.82 16.16,18.59 16.98,16.36 17.32,14.27 17.66,12.17 18.16,9.99 18.65,7.81 18.86,5.85 19.07,3.88 19.37,2.52 19.67,1.16 20.07,-0.01 20.46,-1.19 22.13,-2.81 23.80,-4.43 24.98,-4.07 26.17,-3.72 27.02,-3.05 27.87,-2.38 28.51,-0.78 29.14,0.82 29.51,2.06 29.89,3.31 30.29,5.08 30.68,6.85 30.77,9.52 30.85,12.20 31.11,15.23 31.36,18.25 31.44,21.05 31.52,23.85 31.53,26.48 31.54,29.11 31.56,31.09 31.58,33.06 31.59,35.06 31.59,37.05 31.70,39.02 31.82,40.99 31.77,41.28 31.72,41.57 31.59,41.83 31.45,42.09 31.24,42.29 31.02,42.50 30.76,42.62 30.49,42.75 30.20,42.78 29.90,42.81 29.62,42.75 29.33,42.69 29.08,42.54 28.82,42.39 28.63,42.16 28.44,41.94 28.33,41.67 28.22,41.39 28.20,41.10 28.18,40.81 28.26,40.52 28.34,40.24 28.50,39.99 28.67,39.75 28.90,39.57 29.14,39.39 29.41,39.30 29.69,39.20 29.99,39.20 30.28,39.20 30.56,39.29 30.84,39.38 31.08,39.56 31.31,39.74 31.48,39.98 31.64,40.22 31.72,40.51 31.80,40.79 31.79,41.08 31.77,41.38 31.67,41.65 31.56,41.93 31.37,42.15 31.18,42.38 30.93,42.53 30.68,42.68 30.39,42.75 30.10,42.81 29.81,42.78 29.52,42.75 29.25,42.63 28.98,42.51 28.77,42.30 28.55,42.10 28.41,41.84 28.27,41.58 28.22,41.29 28.17,41.00 28.17,41.00 28.17,41.00 28.27,39.04 28.37,37.07 28.34,35.09 28.32,33.11 28.29,31.15 28.25,29.19 28.13,26.62 28.00,24.05 27.77,21.38 27.53,18.71 27.05,15.63 26.56,12.54 26.26,10.32 25.96,8.09 25.45,6.44 24.93,4.80 24.58,2.57 24.23,0.35 23.32,2.26 22.42,4.18 22.28,6.32 22.15,8.47 21.84,10.55 21.53,12.62 21.34,15.13 21.14,17.64 20.71,19.47 20.27,21.30 19.75,23.86 19.23,26.42 19.25,26.71 19.27,26.99 19.23,27.28 19.18,27.56 19.07,27.83 18.95,28.09 18.78,28.32 18.61,28.55 18.38,28.73 18.16,28.91 17.90,29.03 17.64,29.16 17.36,29.21 17.07,29.27 16.79,29.26 16.50,29.24 16.22,29.16 15.95,29.08 15.70,28.94 15.45,28.79 15.24,28.59 15.03,28.39 14.88,28.15 14.73,27.91 14.64,27.63 14.55,27.36 14.41,26.53 14.27,25.70 13.79,23.49 13.31,21.27 12.78,20.14 12.25,19.01 11.54,17.71 10.84,16.40 9.64,14.71 8.44,13.01 7.06,11.12 5.68,9.22 4.38,7.66 3.08,6.11 2.56,5.01 2.04,3.91 0.76,2.18 -0.51,0.45 -0.48,0.20 -0.45,-0.04 -0.36,-0.27 -0.27,-0.51 -0.12,-0.71 0.01,-0.92 0.20,-1.09 0.39,-1.25 0.61,-1.37 0.83,-1.48 1.08,-1.54 1.32,-1.60 1.57,-1.60 1.83,-1.60 2.07,-1.54 2.31,-1.48 2.54,-1.36 2.76,-1.25 2.95,-1.08 3.13,-0.91 3.28,-0.70 3.42,-0.50 3.51,-0.26 3.60,-0.03 3.63,0.21 3.65,0.46 3.21,1.51 2.77,2.56 2.66,3.62 2.54,4.68 2.49,6.49 2.43,8.30 2.43,10.53 2.43,12.77 2.41,15.32 2.39,17.88 2.30,20.50 2.20,23.13 1.94,25.72 1.69,28.32 1.65,30.61 1.62,32.90 1.37,34.48 1.11,36.05 1.00,38.00 0.88,39.95 0.85,40.18 0.82,40.40 0.74,40.61 0.66,40.82 0.53,41.01 0.40,41.19 0.22,41.34 0.05,41.49 -0.14,41.59 -0.34,41.70 -0.56,41.75 -0.78,41.80 -1.01,41.80 -1.24,41.80 -1.46,41.74 -1.68,41.68 -1.88,41.57 -2.08,41.47 -2.25,41.31 -2.41,41.16 -2.54,40.97 -2.67,40.78 -2.75,40.57 -2.82,40.36 -2.85,40.13 -2.87,39.91 -2.75,39.07 -2.63,38.24 -2.49,37.07 -2.35,35.91 -2.30,33.83 -2.25,31.75 -2.15,28.89 -2.05,26.02 -1.80,22.81 -1.54,19.60 -1.59,16.63 -1.63,13.66 -1.69,10.72 -1.75,7.79 -1.83,5.62 -1.91,3.44 -1.90,1.72 -1.89,0 -1.86,-0.22 -1.83,-0.45 -1.75,-0.66 -1.67,-0.87 -1.54,-1.06 -1.41,-1.25 -1.24,-1.40 -1.07,-1.55 -0.87,-1.66 -0.67,-1.76 -0.44,-1.82 -0.22,-1.87 0.00,-1.87 0.22,-1.87 0.44,-1.82 0.67,-1.76 0.87,-1.66 1.07,-1.55 1.24,-1.40 1.41,-1.25 1.54,-1.06 1.67,-0.87 1.75,-0.66 1.83,-0.45 1.86,-0.22 1.89,0.00 1.89,0.00 L 1.89,0 Z"></path></g><g transform="translate(166 10) rotate(0 26 37.5)" stroke="none"><path fill="#000000" d="M 1.91,0 Q 1.91,0 1.96,1.42 2.01,2.84 2.54,4.89 3.08,6.93 3.18,8.09 3.29,9.25 3.29,10.91 3.30,12.57 3.45,14.87 3.61,17.18 3.92,19.61 4.22,22.04 4.61,24.22 4.99,26.39 5.15,28.88 5.31,31.36 5.35,33.55 5.40,35.75 5.54,36.95 5.69,38.16 5.74,39.84 5.80,41.52 5.85,43.09 5.90,44.67 5.90,46.49 5.89,48.31 5.86,50.23 5.84,52.15 5.90,53.54 5.97,54.94 6.04,56.10 6.11,57.27 6.18,58.34 6.24,59.41 6.28,60.73 6.31,62.05 6.36,63.18 6.41,64.32 6.50,66.11 6.59,67.91 6.67,69.05 6.75,70.19 6.35,71.92 5.95,73.64 7.38,72.96 8.81,72.28 12.22,72.18 15.62,72.09 20.86,71.81 26.10,71.54 30.61,71.18 35.12,70.83 38.23,70.70 41.34,70.58 42.95,70.44 44.55,70.30 46.23,70.08 47.92,69.86 49.95,69.80 51.99,69.74 52.35,69.80 52.71,69.86 53.03,70.03 53.35,70.20 53.61,70.46 53.86,70.73 54.01,71.06 54.17,71.39 54.21,71.75 54.25,72.11 54.17,72.47 54.09,72.82 53.90,73.14 53.72,73.45 53.44,73.69 53.16,73.92 52.82,74.06 52.48,74.19 52.12,74.22 51.76,74.24 51.40,74.14 51.05,74.04 50.75,73.84 50.45,73.63 50.23,73.34 50.01,73.05 49.89,72.71 49.77,72.36 49.77,72.00 49.77,71.64 49.89,71.29 50.00,70.94 50.22,70.65 50.44,70.36 50.74,70.16 51.04,69.95 51.40,69.85 51.75,69.76 52.11,69.77 52.48,69.79 52.81,69.93 53.15,70.06 53.43,70.30 53.71,70.53 53.90,70.84 54.09,71.16 54.17,71.51 54.25,71.87 54.21,72.23 54.17,72.59 54.02,72.92 53.86,73.26 53.61,73.52 53.36,73.79 53.04,73.96 52.72,74.13 52.36,74.19 52.00,74.25 52.00,74.25 52.00,74.25 50.01,74.21 48.01,74.17 46.37,74.05 44.73,73.93 43.15,73.96 41.56,73.99 38.53,74.25 35.50,74.52 30.96,75.08 26.42,75.64 21.20,76.17 15.98,76.71 12.35,77.15 8.72,77.60 5.27,77.36 1.82,77.11 1.21,76.14 0.59,75.16 0.45,73.86 0.31,72.56 0.77,71.38 1.24,70.19 1.32,69.05 1.40,67.91 1.49,66.11 1.58,64.32 1.63,63.18 1.68,62.05 1.71,60.73 1.75,59.41 1.81,58.34 1.88,57.27 1.95,56.10 2.02,54.94 2.08,53.55 2.15,52.15 2.12,50.23 2.09,48.31 2.08,46.50 2.07,44.68 2.11,43.12 2.15,41.55 2.17,39.91 2.20,38.27 2.27,37.07 2.34,35.86 2.22,33.74 2.10,31.62 1.87,29.36 1.63,27.10 1.09,24.88 0.54,22.66 0.02,20.17 -0.49,17.68 -0.92,15.16 -1.36,12.63 -1.40,11.05 -1.44,9.47 -1.47,7.40 -1.49,5.32 -1.75,4.11 -2.01,2.90 -1.96,1.45 -1.91,0 -1.88,-0.22 -1.85,-0.45 -1.77,-0.67 -1.69,-0.88 -1.56,-1.07 -1.43,-1.26 -1.26,-1.42 -1.08,-1.57 -0.88,-1.68 -0.67,-1.78 -0.45,-1.84 -0.23,-1.90 0.00,-1.90 0.23,-1.90 0.45,-1.84 0.67,-1.78 0.88,-1.68 1.08,-1.57 1.26,-1.42 1.43,-1.26 1.56,-1.07 1.69,-0.88 1.77,-0.67 1.85,-0.45 1.88,-0.22 1.91,0.00 1.91,0.00 L 1.91,0 Z"></path></g><g transform="translate(10 113) rotate(0 114 124.5)" stroke="none"><path fill="#000000" d="M 0,-2.67 Q 0,-2.67 1.15,-2.68 2.3,-2.70 3.98,-2.76 5.66,-2.83 7.19,-2.88 8.72,-2.93 9.94,-2.98 11.16,-3.03 12.99,-3.09 14.82,-3.14 16.03,-3.17 17.24,-3.20 18.55,-2.83 19.86,-2.46 21.30,-2.37 22.74,-2.27 24.37,-2.25 25.99,-2.23 27.10,-2.25 28.21,-2.27 30.58,-1.90 32.96,-1.54 34.10,-1.40 35.24,-1.26 36.89,-0.83 38.53,-0.39 39.81,-0.23 41.09,-0.06 42.50,0.03 43.91,0.13 45.37,0.19 46.84,0.25 48.56,0.61 50.29,0.97 52.18,1.23 54.07,1.49 56.34,1.67 58.61,1.86 60.74,1.98 62.86,2.10 65.03,2.47 67.20,2.84 69.15,2.99 71.11,3.14 72.80,3.15 74.50,3.17 76.37,3.19 78.23,3.22 80.46,3.28 82.69,3.35 84.79,3.39 86.89,3.43 88.93,3.45 90.98,3.46 92.71,3.41 94.44,3.36 96.04,3.30 97.64,3.24 99.60,3.53 101.56,3.82 103.69,4.00 105.81,4.17 108.53,4.56 111.25,4.95 113.76,5.12 116.28,5.30 118.78,5.38 121.29,5.46 124.08,5.51 126.87,5.55 129.49,5.57 132.12,5.60 134.67,5.61 137.22,5.63 139.54,5.93 141.86,6.23 144.20,6.35 146.53,6.48 149.25,6.53 151.97,6.59 154.85,6.61 157.73,6.64 160.11,6.65 162.48,6.66 164.64,6.66 166.80,6.67 168.58,6.60 170.36,6.53 172.27,6.50 174.18,6.47 176.42,6.50 178.67,6.53 181.64,6.55 184.61,6.57 187.31,6.59 190.01,6.60 192.30,6.61 194.60,6.62 196.15,6.53 197.70,6.43 198.94,6.33 200.17,6.22 201.62,6.05 203.06,5.89 204.14,5.76 205.22,5.64 207.31,5.51 209.40,5.38 211.04,5.31 212.68,5.23 213.91,5.17 215.15,5.10 216.48,5.05 217.81,5.00 218.99,4.95 220.18,4.91 221.71,4.85 223.25,4.79 224.75,4.75 226.26,4.70 227.30,4.96 228.34,5.22 229.39,6.00 230.45,6.78 230.82,8.16 231.19,9.53 231.22,10.61 231.25,11.69 230.87,12.99 230.50,14.29 230.04,16.17 229.59,18.04 229.01,18.99 228.42,19.94 227.54,21.53 226.66,23.11 225.71,25.33 224.77,27.54 224.12,29.55 223.47,31.56 222.97,32.64 222.47,33.71 221.92,35.99 221.36,38.26 220.88,39.59 220.40,40.92 220.17,43.04 219.95,45.17 219.88,46.55 219.82,47.94 219.71,49.68 219.61,51.41 219.56,53.02 219.52,54.62 219.44,56.46 219.35,58.30 219.06,59.89 218.76,61.49 218.66,63.79 218.56,66.09 218.54,67.50 218.51,68.91 218.50,70.37 218.48,71.83 218.47,73.32 218.46,74.80 218.48,76.01 218.51,77.21 218.51,78.59 218.52,79.96 218.54,81.12 218.57,82.28 218.57,83.64 218.57,84.99 218.56,86.43 218.55,87.87 218.57,89.05 218.60,90.24 218.59,91.61 218.59,92.97 218.58,94.42 218.57,95.86 218.59,97.05 218.61,98.24 218.60,99.61 218.60,100.97 218.43,104.14 218.27,107.31 218.14,109.81 218.02,112.30 217.92,115.38 217.83,118.45 217.76,120.62 217.69,122.79 217.64,125.15 217.58,127.51 217.61,129.37 217.63,131.24 217.58,134.04 217.54,136.85 217.63,138.33 217.71,139.81 217.88,141.98 218.05,144.14 218.12,145.25 218.19,146.36 218.28,148.71 218.37,151.06 218.38,152.48 218.39,153.90 218.43,155.08 218.47,156.25 217.74,167.16 217.01,178.07 216.66,182.96 216.30,187.85 215.81,190.06 215.31,192.27 214.87,193.43 214.42,194.58 213.96,195.62 213.50,196.66 212.13,197.75 210.77,198.84 208.94,199.52 207.11,200.19 205.70,200.93 204.28,201.66 202.80,202.54 201.32,203.41 199.53,204.55 197.73,205.68 196.07,206.77 194.42,207.85 192.85,208.89 191.29,209.94 189.67,210.76 188.05,211.58 186.61,212.45 185.18,213.31 183.97,214.04 182.76,214.77 181.12,215.98 179.49,217.19 178.52,217.77 177.54,218.35 176.56,218.90 175.58,219.45 174.19,220.01 172.80,220.57 171.35,221.07 169.91,221.58 168.60,222.26 167.29,222.94 165.70,223.59 164.11,224.24 162.82,225.17 161.52,226.10 159.49,226.93 157.46,227.76 155.99,228.78 154.52,229.80 152.48,230.65 150.44,231.50 148.87,232.37 147.31,233.23 146.16,234.16 145.02,235.09 143.48,235.91 141.95,236.73 140.80,237.37 139.66,238.01 138.38,238.80 137.10,239.59 135.94,240.29 134.77,240.99 133.31,241.62 131.86,242.25 130.76,242.80 129.66,243.34 128.64,243.88 127.62,244.42 125.86,245.26 124.10,246.11 122.60,246.90 121.10,247.69 119.96,248.60 118.81,249.50 117.09,249.77 115.36,250.04 113.38,250.57 111.40,251.11 110.14,251.18 108.87,251.24 107.73,251.63 106.58,252.02 105.08,252.16 103.58,252.29 102.30,251.83 101.02,251.37 99.99,250.47 98.95,249.56 96.83,248.14 94.70,246.72 93.67,246.19 92.63,245.65 91.28,244.62 89.93,243.60 88.67,242.63 87.41,241.66 86.19,241.04 84.97,240.42 83.59,239.83 82.21,239.25 80.77,238.28 79.33,237.32 77.99,236.36 76.65,235.41 75.55,234.78 74.45,234.15 73.41,233.62 72.36,233.08 71.34,232.58 70.32,232.09 69.15,231.62 67.97,231.16 66.60,230.64 65.23,230.13 63.43,229.21 61.62,228.29 59.76,227.26 57.89,226.22 56.08,225.51 54.26,224.80 52.24,223.83 50.23,222.87 48.33,222.20 46.43,221.53 44.71,220.99 42.99,220.45 41.38,219.96 39.78,219.47 38.23,219.00 36.68,218.53 35.36,218.06 34.05,217.60 32.55,216.78 31.05,215.95 29.85,215.75 28.66,215.55 27.33,215.14 26.00,214.72 24.64,214.28 23.28,213.83 21.62,213.32 19.96,212.81 18.34,212.30 16.71,211.79 15.55,211.27 14.39,210.76 12.93,210.69 11.48,210.61 10.45,210.19 9.42,209.77 7.52,209.40 5.62,209.03 4.06,208.50 2.51,207.96 1.50,207.37 0.50,206.78 -0.51,205.84 -1.54,204.91 -1.79,203.65 -2.05,202.40 -2.13,201.14 -2.22,199.88 -2.25,198.53 -2.27,197.18 -2.28,195.71 -2.30,194.24 -2.25,192.05 -2.20,189.86 -2.18,188.75 -2.16,187.64 -2.07,186.01 -1.98,184.39 -1.77,181.98 -1.57,179.56 -1.41,177.39 -1.24,175.21 -1.12,172.85 -1.00,170.49 -0.91,168.33 -0.81,166.18 -0.76,164.11 -0.71,162.05 -0.68,160.02 -0.65,157.99 -0.63,155.98 -0.61,153.97 -0.57,151.39 -0.53,148.81 -0.50,145.99 -0.47,143.17 -0.45,139.95 -0.43,136.74 -0.69,133.42 -0.96,130.11 -1.08,126.62 -1.19,123.14 -1.23,119.65 -1.28,116.16 -1.29,112.95 -1.31,109.74 -1.31,106.65 -1.32,103.56 -1.32,100.24 -1.32,96.91 -1.32,93.77 -1.32,90.63 -1.32,87.58 -1.32,84.52 -1.32,81.78 -1.31,79.04 -1.31,76.44 -1.31,73.84 -1.31,71.58 -1.31,69.33 -1.31,66.93 -1.31,64.54 -1.31,62.08 -1.31,59.63 -1.31,57.43 -1.31,55.24 -1.38,53.44 -1.45,51.65 -1.52,50.02 -1.60,48.40 -1.63,46.56 -1.65,44.72 -1.70,43.07 -1.76,41.43 -1.76,39.58 -1.76,37.73 -1.80,36.08 -1.84,34.43 -1.89,32.87 -1.93,31.31 -1.97,29.78 -2.01,28.25 -2.04,26.74 -2.08,25.23 -2.14,24.01 -2.20,22.79 -2.23,21.41 -2.26,20.03 -2.31,18.87 -2.36,17.71 -2.40,16.64 -2.45,15.57 -2.55,14.23 -2.64,12.89 -2.68,10.94 -2.71,9.00 -2.64,8.56 -2.57,8.13 -2.36,7.74 -2.16,7.35 -1.84,7.05 -1.52,6.75 -1.12,6.56 -0.72,6.38 -0.28,6.33 0.14,6.28 0.57,6.38 1.00,6.47 1.38,6.70 1.75,6.93 2.04,7.26 2.32,7.60 2.48,8.00 2.65,8.41 2.67,8.85 2.69,9.29 2.58,9.71 2.46,10.14 2.21,10.50 1.97,10.86 1.62,11.13 1.27,11.39 0.85,11.53 0.43,11.67 -0.00,11.67 -0.43,11.67 -0.85,11.53 -1.27,11.39 -1.62,11.13 -1.97,10.86 -2.21,10.50 -2.46,10.13 -2.58,9.71 -2.69,9.29 -2.67,8.85 -2.65,8.41 -2.48,8.00 -2.32,7.59 -2.04,7.26 -1.75,6.93 -1.38,6.70 -1.00,6.47 -0.57,6.38 -0.14,6.28 0.29,6.33 0.72,6.38 1.12,6.56 1.52,6.75 1.84,7.05 2.16,7.35 2.36,7.74 2.57,8.13 2.64,8.56 2.71,9.00 2.71,9.00 2.71,8.99 2.68,10.94 2.64,12.89 2.55,14.23 2.45,15.57 2.40,16.64 2.36,17.71 2.31,18.87 2.26,20.03 2.23,21.41 2.20,22.79 2.14,24.01 2.08,25.23 2.04,26.74 2.01,28.25 1.97,29.78 1.93,31.31 1.89,32.87 1.84,34.43 1.80,36.08 1.76,37.73 1.76,39.58 1.76,41.43 1.70,43.07 1.65,44.72 1.63,46.56 1.60,48.40 1.52,50.02 1.45,51.65 1.38,53.44 1.31,55.24 1.31,57.43 1.31,59.63 1.31,62.08 1.31,64.54 1.31,66.93 1.31,69.33 1.31,71.58 1.31,73.84 1.31,76.44 1.32,79.04 1.32,81.78 1.32,84.52 1.32,87.57 1.32,90.63 1.33,93.77 1.33,96.91 1.34,100.23 1.35,103.55 1.36,106.64 1.37,109.72 1.40,112.92 1.43,116.12 1.49,119.58 1.55,123.04 1.68,126.46 1.81,129.87 2.12,133.31 2.43,136.74 2.45,139.95 2.47,143.17 2.50,145.99 2.53,148.81 2.57,151.39 2.61,153.97 2.63,155.98 2.65,157.99 2.68,160.02 2.71,162.05 2.76,164.11 2.81,166.18 2.91,168.33 3.00,170.49 3.12,172.85 3.24,175.21 3.41,177.39 3.57,179.56 3.77,181.98 3.98,184.39 4.07,186.01 4.16,187.64 4.18,188.75 4.20,189.86 4.25,192.05 4.30,194.24 4.29,195.70 4.28,197.16 4.27,198.43 4.26,199.71 3.68,200.68 3.09,201.65 4.41,202.03 5.72,202.42 7.08,203.35 8.44,204.28 10.27,204.89 12.09,205.49 13.41,205.75 14.72,206.01 16.36,206.84 18.00,207.67 19.57,208.14 21.15,208.62 22.95,209.08 24.75,209.55 26.13,210.04 27.51,210.54 28.56,210.98 29.62,211.43 31.33,211.90 33.04,212.37 34.31,213.13 35.58,213.89 36.72,214.43 37.86,214.98 39.38,215.53 40.91,216.08 42.48,216.65 44.06,217.22 45.75,217.81 47.45,218.40 49.54,219.03 51.62,219.67 53.56,220.43 55.51,221.19 57.60,221.83 59.70,222.46 61.62,223.25 63.54,224.03 65.24,224.69 66.94,225.35 68.40,225.85 69.87,226.35 71.29,226.92 72.71,227.48 73.74,228.05 74.78,228.61 75.87,229.23 76.97,229.85 78.19,230.58 79.40,231.31 80.81,232.21 82.21,233.10 83.17,233.77 84.13,234.45 85.70,235.03 87.26,235.60 88.91,236.35 90.56,237.09 91.99,237.99 93.42,238.89 94.35,239.56 95.27,240.22 97.73,241.58 100.20,242.94 101.78,243.71 103.36,244.48 104.53,244.84 105.69,245.20 107.75,244.97 109.81,244.73 111.17,244.72 112.53,244.71 113.71,244.29 114.89,243.86 115.96,243.53 117.04,243.21 118.89,242.84 120.75,242.48 121.63,241.86 122.52,241.25 124.02,240.66 125.52,240.06 126.62,239.58 127.73,239.09 128.93,238.59 130.13,238.08 131.38,237.60 132.63,237.11 133.77,236.54 134.91,235.96 136.35,235.11 137.79,234.26 138.99,233.73 140.19,233.20 141.47,232.63 142.74,232.06 144.14,231.06 145.55,230.07 147.27,229.10 148.99,228.14 150.62,227.41 152.26,226.67 154.03,225.32 155.80,223.96 157.34,223.26 158.88,222.55 160.57,221.23 162.26,219.91 163.64,219.32 165.02,218.72 166.63,217.83 168.24,216.93 169.61,216.43 170.98,215.94 172.15,215.49 173.32,215.05 174.31,214.59 175.30,214.13 177.12,213.26 178.94,212.39 179.88,211.82 180.83,211.25 182.05,210.66 183.28,210.06 184.86,209.15 186.44,208.24 187.87,207.60 189.29,206.96 190.84,205.91 192.38,204.86 193.98,203.73 195.57,202.60 197.36,201.22 199.16,199.85 200.71,198.87 202.27,197.90 203.95,196.99 205.62,196.08 207.76,195.30 209.91,194.52 210.87,193.04 211.83,191.57 212.12,189.61 212.41,187.65 212.55,182.75 212.68,177.84 213.10,167.05 213.52,156.25 213.56,155.08 213.60,153.90 213.61,152.48 213.62,151.06 213.71,148.71 213.80,146.36 213.87,145.25 213.94,144.14 214.11,141.98 214.28,139.81 214.36,138.33 214.45,136.85 214.41,134.04 214.36,131.24 214.38,129.37 214.41,127.51 214.35,125.15 214.30,122.79 214.23,120.62 214.16,118.45 214.07,115.38 213.97,112.30 213.85,109.81 213.72,107.31 213.56,104.14 213.39,100.97 213.39,99.61 213.38,98.24 213.40,97.05 213.42,95.86 213.41,94.42 213.40,92.97 213.40,91.61 213.39,90.24 213.42,89.05 213.44,87.87 213.43,86.43 213.42,84.99 213.42,83.64 213.42,82.28 213.45,81.12 213.48,79.96 213.48,78.58 213.49,77.21 213.52,76.00 213.55,74.79 213.54,73.29 213.54,71.80 213.54,70.32 213.54,68.83 213.56,67.37 213.58,65.90 213.65,64.47 213.72,63.03 213.90,61.76 214.08,60.50 214.36,59.38 214.64,58.27 214.57,56.44 214.49,54.60 214.46,52.99 214.42,51.37 214.35,49.59 214.28,47.81 214.28,46.32 214.28,44.83 214.35,43.33 214.43,41.83 214.67,40.47 214.91,39.11 215.62,36.87 216.33,34.62 216.60,32.94 216.88,31.26 217.64,29.42 218.40,27.58 219.25,25.21 220.10,22.85 220.44,21.48 220.77,20.12 221.26,19.13 221.75,18.13 222.53,16.86 223.31,15.58 223.59,14.54 223.86,13.49 225.06,12.39 226.26,11.29 224.75,11.24 223.25,11.20 221.71,11.14 220.18,11.08 218.99,11.04 217.81,10.99 216.48,10.94 215.15,10.89 213.91,10.82 212.68,10.76 211.04,10.68 209.40,10.61 207.31,10.48 205.22,10.35 204.14,10.23 203.06,10.10 201.62,9.94 200.17,9.77 198.94,9.66 197.70,9.56 196.15,9.46 194.60,9.37 192.30,9.38 190.01,9.39 187.31,9.40 184.61,9.42 181.64,9.44 178.67,9.46 176.42,9.49 174.18,9.51 172.27,9.48 170.36,9.45 168.58,9.38 166.80,9.31 164.64,9.31 162.47,9.30 160.09,9.30 157.71,9.29 154.82,9.27 151.92,9.25 149.16,9.20 146.40,9.15 143.96,9.03 141.52,8.90 139.37,8.63 137.22,8.35 134.66,8.35 132.10,8.36 129.47,8.36 126.84,8.36 124.03,8.35 121.22,8.34 118.67,8.31 116.11,8.27 113.48,8.15 110.86,8.04 108.24,7.75 105.63,7.46 103.32,7.39 101.02,7.32 99.32,7.03 97.63,6.75 96.03,6.69 94.44,6.63 92.70,6.58 90.97,6.52 88.93,6.53 86.89,6.54 84.78,6.58 82.68,6.61 80.44,6.66 78.19,6.71 76.29,6.68 74.39,6.66 72.65,6.57 70.90,6.48 68.80,6.38 66.71,6.27 64.76,6.05 62.82,5.82 60.67,5.90 58.52,5.97 56.15,6.05 53.79,6.13 51.53,6.13 49.27,6.13 48.00,5.90 46.73,5.66 45.20,5.67 43.68,5.68 42.11,5.66 40.53,5.64 38.86,5.51 37.18,5.39 35.93,5.14 34.68,4.90 33.08,4.79 31.48,4.69 29.83,4.48 28.19,4.27 27.05,4.23 25.91,4.20 24.15,4.16 22.40,4.12 21.30,4.06 20.21,4.00 18.66,3.60 17.12,3.20 15.97,3.17 14.82,3.14 12.99,3.09 11.16,3.03 9.94,2.98 8.72,2.93 7.19,2.88 5.66,2.83 3.98,2.76 2.3,2.70 1.15,2.68 0,2.67 -0.31,2.63 -0.63,2.59 -0.94,2.48 -1.24,2.36 -1.50,2.18 -1.77,2.00 -1.98,1.75 -2.20,1.51 -2.34,1.23 -2.49,0.94 -2.57,0.63 -2.65,0.32 -2.65,-0.00 -2.65,-0.32 -2.57,-0.63 -2.49,-0.94 -2.34,-1.23 -2.19,-1.51 -1.98,-1.75 -1.77,-2.00 -1.50,-2.18 -1.24,-2.36 -0.94,-2.48 -0.63,-2.59 -0.31,-2.63 0.00,-2.67 0.00,-2.67 L 0,-2.67 Z"></path></g><g transform="translate(170 166) rotate(0 -48 59)" stroke="none"><path fill="#000000" d="M 0,1.56 Q 0,1.56 -2.58,1.52 -5.17,1.49 -7.71,1.46 -10.24,1.44 -12.47,1.42 -14.70,1.40 -17.37,1.39 -20.05,1.38 -23.48,1.37 -26.92,1.36 -30.96,1.35 -35.01,1.34 -39.03,1.34 -43.05,1.33 -47.59,1.62 -52.14,1.90 -56.70,2.02 -61.25,2.14 -64.63,2.19 -68.00,2.24 -71.16,2.26 -74.32,2.28 -76.81,2.29 -79.31,2.30 -80.94,2.40 -82.58,2.49 -83.85,2.60 -85.12,2.71 -86.21,2.80 -87.30,2.89 -88.48,3.44 -89.66,3.99 -91.20,4.20 -92.73,4.41 -94.25,4.42 -95.77,4.42 -96.99,4.45 -98.20,4.49 -99.29,4.52 -100.38,4.56 -100.72,5.92 -101.06,7.28 -100.84,8.35 -100.62,9.41 -100.28,10.77 -99.94,12.12 -99.81,14.13 -99.69,16.14 -99.40,17.60 -99.10,19.07 -99.00,21.08 -98.90,23.09 -98.65,24.92 -98.40,26.76 -98.34,29.14 -98.29,31.53 -98.30,33.68 -98.32,35.82 -98.33,37.89 -98.35,39.95 -98.30,41.68 -98.25,43.42 -98.17,44.74 -98.08,46.05 -98.00,47.18 -97.92,48.32 -97.78,49.70 -97.65,51.09 -97.54,52.57 -97.43,54.04 -97.35,55.13 -97.27,56.22 -97.20,57.54 -97.14,58.86 -97.47,60.19 -97.81,61.52 -98.25,63.68 -98.70,65.85 -98.76,67.37 -98.82,68.89 -98.81,69.52 -98.81,70.15 -98.86,70.53 -98.92,70.91 -99.07,71.26 -99.21,71.62 -99.44,71.92 -99.67,72.23 -99.96,72.48 -100.25,72.72 -100.60,72.89 -100.94,73.06 -101.32,73.14 -101.69,73.22 -102.07,73.21 -102.45,73.20 -102.82,73.10 -103.19,72.99 -103.53,72.81 -103.86,72.62 -104.14,72.36 -104.42,72.09 -104.62,71.77 -104.83,71.45 -104.96,71.09 -105.08,70.73 -105.12,70.35 -105.15,69.97 -102.00,70.04 -98.85,70.11 -98.90,70.49 -98.96,70.86 -99.10,71.21 -99.25,71.56 -99.47,71.87 -99.70,72.17 -99.99,72.42 -100.28,72.66 -100.62,72.83 -100.96,72.99 -101.33,73.07 -101.70,73.15 -102.08,73.14 -102.46,73.13 -102.82,73.03 -103.19,72.93 -103.52,72.74 -103.85,72.56 -104.13,72.30 -104.40,72.04 -104.61,71.72 -104.81,71.40 -104.94,71.04 -105.06,70.68 -105.10,70.31 -105.13,69.93 -103.52,68.46 -101.92,66.99 -100.93,66.04 -99.94,65.09 -99.11,64.42 -98.28,63.76 -96.47,63.16 -94.65,62.57 -91.68,62.01 -88.71,61.45 -86.97,61.22 -85.22,60.99 -83.30,60.68 -81.37,60.36 -79.39,60.00 -77.41,59.63 -75.40,59.22 -73.40,58.82 -71.39,58.39 -69.38,57.96 -67.57,57.71 -65.75,57.46 -63.94,57.11 -62.13,56.77 -60.07,56.62 -58.02,56.47 -56.29,56.37 -54.57,56.26 -53.26,56.16 -51.95,56.05 -50.53,55.99 -49.10,55.93 -47.34,55.94 -45.59,55.95 -43.28,56.34 -40.98,56.73 -38.86,57.22 -36.73,57.71 -34.07,58.53 -31.41,59.34 -28.36,59.97 -25.32,60.60 -22.28,61.17 -19.25,61.74 -16.44,62.59 -13.63,63.43 -10.80,64.07 -7.96,64.70 -5.24,65.57 -2.52,66.44 -0.76,67.05 1.00,67.65 2.95,68.21 4.91,68.77 5.83,69.68 6.75,70.60 7.43,71.57 8.10,72.54 8.69,74.13 9.27,75.73 9.82,77.11 10.37,78.49 10.56,80.10 10.75,81.71 10.78,83.92 10.82,86.13 10.78,87.59 10.74,89.06 10.03,90.77 9.32,92.49 8.79,93.56 8.26,94.64 7.75,95.68 7.25,96.72 6.36,98.10 5.47,99.48 4.88,100.56 4.28,101.64 3.70,102.73 3.11,103.82 1.62,104.99 0.12,106.16 -0.98,106.81 -2.09,107.46 -2.96,108.18 -3.83,108.90 -5.21,109.48 -6.60,110.07 -7.90,110.50 -9.21,110.93 -11.00,111.34 -12.80,111.76 -14.57,112.36 -16.35,112.96 -18.06,113.56 -19.77,114.15 -21.72,114.66 -23.66,115.17 -25.97,115.61 -28.28,116.05 -30.38,116.48 -32.49,116.92 -34.54,117.37 -36.59,117.83 -38.61,118.30 -40.64,118.77 -43.05,118.97 -45.46,119.17 -47.63,119.24 -49.79,119.30 -51.86,119.34 -53.93,119.38 -56.25,119.38 -58.57,119.38 -61.28,119.37 -63.99,119.37 -66.58,119.36 -69.17,119.35 -71.71,119.35 -74.24,119.34 -76.76,119.34 -79.28,119.33 -81.49,119.33 -83.71,119.33 -86.09,119.32 -88.48,119.32 -90.06,119.42 -91.65,119.52 -93.19,119.60 -94.72,119.68 -96.93,119.85 -99.13,120.03 -101.06,120.09 -102.99,120.15 -103.34,120.10 -103.68,120.04 -103.99,119.88 -104.30,119.71 -104.54,119.46 -104.78,119.21 -104.93,118.89 -105.07,118.57 -105.11,118.23 -105.15,117.88 -105.07,117.54 -105.00,117.20 -104.82,116.90 -104.64,116.60 -104.37,116.37 -104.11,116.15 -103.78,116.02 -103.46,115.89 -103.11,115.87 -102.76,115.85 -102.43,115.94 -102.09,116.04 -101.80,116.23 -101.51,116.43 -101.30,116.71 -101.09,116.99 -100.98,117.32 -100.87,117.65 -100.87,118.00 -100.87,118.34 -100.98,118.67 -101.09,119.01 -101.30,119.28 -101.51,119.56 -101.80,119.76 -102.09,119.95 -102.43,120.05 -102.76,120.14 -103.11,120.12 -103.46,120.10 -103.78,119.97 -104.11,119.84 -104.37,119.62 -104.64,119.39 -104.82,119.09 -105.00,118.79 -105.07,118.45 -105.15,118.11 -105.11,117.76 -105.07,117.42 -104.93,117.10 -104.78,116.78 -104.54,116.53 -104.30,116.28 -103.99,116.11 -103.68,115.95 -103.34,115.89 -102.99,115.84 -102.99,115.84 -103.00,115.84 -101.06,115.90 -99.13,115.96 -96.93,116.14 -94.72,116.31 -93.19,116.39 -91.65,116.47 -90.06,116.57 -88.48,116.67 -86.10,116.67 -83.71,116.66 -81.50,116.66 -79.28,116.65 -76.76,116.65 -74.24,116.64 -71.71,116.64 -69.17,116.63 -66.58,116.62 -64.00,116.60 -61.29,116.58 -58.59,116.56 -56.29,116.53 -53.99,116.49 -51.95,116.46 -49.91,116.42 -47.83,116.30 -45.74,116.19 -43.56,115.96 -41.39,115.74 -39.38,115.21 -37.37,114.67 -35.34,114.12 -33.30,113.57 -31.22,112.99 -29.13,112.40 -26.99,111.80 -24.84,111.19 -23.08,110.60 -21.32,110.01 -19.71,109.37 -18.11,108.73 -16.14,107.78 -14.17,106.84 -12.57,106.30 -10.96,105.77 -9.06,105.20 -7.16,104.64 -5.99,103.70 -4.82,102.75 -3.15,101.90 -1.48,101.05 -0.95,100.04 -0.43,99.02 0.21,97.84 0.86,96.67 1.56,95.45 2.26,94.23 2.78,93.20 3.30,92.18 4.27,90.50 5.25,88.81 5.20,87.48 5.16,86.15 5.16,84.02 5.16,81.88 5.15,80.31 5.14,78.73 4.78,77.25 4.43,75.77 3.96,74.48 3.49,73.18 2.76,72.21 2.04,71.24 0.99,70.84 -0.04,70.43 -1.70,69.74 -3.35,69.06 -5.95,68.24 -8.56,67.43 -11.50,66.80 -14.44,66.17 -17.10,65.40 -19.76,64.63 -22.83,64.12 -25.90,63.60 -29.10,63.02 -32.29,62.43 -34.85,61.75 -37.40,61.07 -39.43,60.74 -41.46,60.42 -43.52,60.24 -45.58,60.06 -47.32,60.08 -49.06,60.10 -50.46,60.06 -51.86,60.02 -53.14,59.97 -54.42,59.93 -56.07,59.96 -57.73,59.99 -59.57,60.17 -61.41,60.34 -63.35,60.75 -65.30,61.16 -66.90,61.33 -68.51,61.50 -70.49,62.06 -72.47,62.62 -74.44,63.19 -76.41,63.77 -78.37,64.35 -80.33,64.94 -82.27,65.51 -84.21,66.08 -86.14,66.58 -88.07,67.08 -89.33,67.26 -90.58,67.44 -92.54,68.02 -94.50,68.60 -96.25,69.95 -98.00,71.30 -99.46,72.16 -100.92,73.02 -99.88,71.57 -98.85,70.11 -98.90,70.49 -98.96,70.86 -99.10,71.21 -99.25,71.56 -99.47,71.87 -99.70,72.17 -99.99,72.42 -100.28,72.66 -100.62,72.83 -100.96,72.99 -101.33,73.07 -101.70,73.15 -102.08,73.14 -102.46,73.13 -102.82,73.03 -103.19,72.93 -103.52,72.74 -103.85,72.56 -104.13,72.30 -104.40,72.04 -104.61,71.72 -104.81,71.40 -104.94,71.04 -105.06,70.69 -105.10,70.31 -105.13,69.93 -101.97,70.04 -98.81,70.15 -98.86,70.53 -98.92,70.91 -99.07,71.26 -99.21,71.62 -99.44,71.92 -99.67,72.23 -99.96,72.48 -100.25,72.72 -100.60,72.89 -100.94,73.06 -101.32,73.14 -101.69,73.22 -102.07,73.21 -102.45,73.20 -102.82,73.10 -103.19,72.99 -103.53,72.81 -103.86,72.62 -104.14,72.36 -104.42,72.09 -104.62,71.77 -104.83,71.45 -104.96,71.09 -105.08,70.73 -105.12,70.35 -105.15,69.97 -105.08,68.41 -105.02,66.86 -104.70,65.29 -104.38,63.72 -104.05,62.59 -103.72,61.47 -103.28,60.13 -102.85,58.78 -102.79,57.50 -102.72,56.22 -102.64,55.13 -102.56,54.05 -102.45,52.57 -102.34,51.09 -102.21,49.71 -102.07,48.33 -102.00,47.19 -101.92,46.06 -101.85,44.75 -101.77,43.45 -101.75,41.72 -101.72,39.99 -101.79,37.96 -101.86,35.93 -102.00,33.86 -102.14,31.79 -102.39,29.66 -102.63,27.53 -103.09,25.50 -103.54,23.48 -103.75,21.81 -103.95,20.15 -104.38,18.40 -104.81,16.64 -105.03,15.12 -105.25,13.60 -105.72,12.07 -106.19,10.55 -106.53,8.88 -106.87,7.22 -106.85,5.96 -106.84,4.71 -106.30,2.77 -105.77,0.83 -104.77,0.19 -103.78,-0.43 -102.08,-0.50 -100.39,-0.56 -99.30,-0.53 -98.22,-0.50 -97.01,-0.47 -95.80,-0.45 -94.34,-0.46 -92.87,-0.48 -91.23,-0.42 -89.60,-0.37 -88.50,-0.63 -87.39,-0.90 -86.26,-0.81 -85.12,-0.71 -83.85,-0.61 -82.58,-0.50 -80.95,-0.42 -79.32,-0.33 -76.83,-0.34 -74.34,-0.35 -71.19,-0.37 -68.04,-0.40 -64.68,-0.45 -61.33,-0.50 -56.81,-0.63 -52.30,-0.75 -47.68,-1.04 -43.05,-1.33 -39.03,-1.34 -35.01,-1.34 -30.96,-1.35 -26.92,-1.36 -23.48,-1.37 -20.05,-1.38 -17.37,-1.39 -14.70,-1.40 -12.47,-1.42 -10.24,-1.44 -7.71,-1.46 -5.17,-1.49 -2.58,-1.52 0,-1.56 0.18,-1.53 0.37,-1.51 0.54,-1.45 0.72,-1.38 0.88,-1.27 1.03,-1.16 1.16,-1.02 1.28,-0.88 1.37,-0.72 1.46,-0.55 1.50,-0.37 1.55,-0.18 1.55,0.00 1.55,0.18 1.50,0.37 1.46,0.55 1.37,0.72 1.28,0.88 1.16,1.02 1.03,1.16 0.88,1.27 0.72,1.38 0.54,1.45 0.37,1.51 0.18,1.53 -0.00,1.56 -0.00,1.56 L 0,1.56 Z"></path></g></svg>